<?xml version="1.0" standalone="no"?>
<!DOCTYPE svg PUBLIC "-//W3C//DTD SVG 1.1//EN" "http://www.w3.org/Graphics/SVG/1.1/DTD/svg11.dtd" >
<svg xmlns="http://www.w3.org/2000/svg" xmlns:xlink="http://www.w3.org/1999/xlink" version="1.1">
<metadata>
Created by FontForge 20170731 at Mon Jan 19 22:48:52 2015
 By Aleksey,,,
Copyright (c) 2015 by Guilhem Greco/ Hypefontso^. All rights reserved.
</metadata>
<defs>
<font id="NEOTERIC" horiz-adv-x="1019" >
  <font-face 
    font-family="NEOTERIC"
    font-weight="400"
    font-stretch="normal"
    units-per-em="1000"
    panose-1="0 0 0 0 0 0 0 0 0 0"
    ascent="818"
    descent="-182"
    x-height="526"
    cap-height="659"
    bbox="-37 -263.96 1117 950"
    underline-thickness="50"
    underline-position="-150"
    unicode-range="U+000A-F8FF"
  />
<missing-glyph horiz-adv-x="395" 
 />
    <glyph glyph-name=".notdef" horiz-adv-x="395" 
 />
    <glyph glyph-name=".null" horiz-adv-x="0" 
 />
    <glyph glyph-name="nonmarkingreturn" unicode="&#xd;" horiz-adv-x="300" 
 />
    <glyph glyph-name="NULL" horiz-adv-x="0" 
 />
    <glyph glyph-name="NULL" horiz-adv-x="0" 
 />
    <glyph glyph-name="LF" unicode="&#xa;" horiz-adv-x="0" 
 />
    <glyph glyph-name="DLE" horiz-adv-x="0" 
 />
    <glyph glyph-name="space" unicode=" " horiz-adv-x="320" 
 />
    <glyph glyph-name="exclam" unicode="!" horiz-adv-x="164" 
d="M115 55q10 0 17 -7t7 -18q0 -14 -7 -20t-17 -6q-26 0 -26 26q0 25 26 25zM137 89h-44v569h44v-569z" />
    <glyph glyph-name="quotedbl" unicode="&#x22;" horiz-adv-x="234" 
d="M110 732v-102h-46v102h46zM190 732v-102h-46v102h46z" />
    <glyph glyph-name="numbersign" unicode="#" horiz-adv-x="608" 
d="M406 292h142l-11 -42h-140l-49 -187q-15 0 -28.5 0.5t-15.5 0.5l49 186h-150q-11 -45 -19 -76t-13.5 -52t-9 -35t-6.5 -24q-15 0 -28.5 0.5t-15.5 0.5l49 186h-150l11 42h148q7 28 12 45.5t8 28.5t5 18.5t4 16.5h-150l11 42h149l38 148h44l-38 -148h149l38 148h43
l-36 -148h140l-11 -42h-141zM212 292h151q7 28 11.5 45.5t7.5 28.5t5 18.5t4 16.5h-150z" />
    <glyph glyph-name="dollar" unicode="$" horiz-adv-x="373" 
d="M152 56q-30 2 -67.5 11t-66.5 20l12 36l28 -7q17 -5 44 -11.5t50 -6.5v219q-25 4 -49 13t-42.5 25.5t-30 40.5t-11.5 58q0 54 34 92t94 50q2 1 1.5 1t3.5 0v61h43v-56h22q12 0 27.5 -2.5t32 -6.5t32 -9t27.5 -10l-11 -40q-38 15 -66 20.5t-60 5.5h-4v-205q25 -2 48.5 -8
t48.5 -23q28 -20 43.5 -51t15.5 -64q0 -34 -12 -60.5t-33 -46t-49.5 -31t-61.5 -14.5v-74h-43v73zM293 266q-20 29 -45 37.5t-53 10.5v-216q23 1 44 9.5t36.5 23.5t25 35.5t9.5 47.5q0 13 -5.5 27.5t-11.5 24.5zM98 379q13 -10 26.5 -14t27.5 -6v196q-38 -9 -65 -35t-27 -75
q0 -18 10.5 -36.5t27.5 -29.5z" />
    <glyph glyph-name="percent" unicode="%" horiz-adv-x="817" 
d="M668 731l-497 -731h-49l497 731h49zM370 516q0 -41 -11.5 -79.5t-33 -68t-51 -47.5t-65.5 -18t-65.5 18t-51.5 47.5t-34 68t-12 79.5t12 80t34 69t51.5 48.5t65.5 18.5t65.5 -18.5t51 -48.5t33 -69t11.5 -80zM326 516q0 32 -8.5 63t-23.5 55t-36.5 39t-48.5 15
q-26 0 -48 -15t-38 -39t-25 -55t-9 -63q0 -31 9 -61t25 -54t38 -39t48 -15q27 0 48.5 15t36.5 39t23.5 54t8.5 61zM751 205q0 -41 -11.5 -79.5t-33 -68.5t-51 -48t-65.5 -18q-35 0 -65 18t-51.5 48t-33.5 68.5t-12 79.5t12 80t33.5 69t51.5 48t65 18q36 0 65.5 -18t51 -48
t33 -69t11.5 -80zM707 205q0 31 -8.5 62t-23.5 55t-36.5 39t-48.5 15q-26 0 -48 -15t-37.5 -39t-24.5 -55t-9 -62t9 -61.5t24.5 -54.5t37.5 -39t48 -15q27 0 48.5 15t36.5 39t23.5 54.5t8.5 61.5z" />
    <glyph glyph-name="ampersand" unicode="&#x26;" horiz-adv-x="625" 
d="M313 195q21 32 41.5 43.5t41.5 11.5q18 0 36 -5t37 -13q17 -6 33 -11t33 -5q12 0 25.5 6t30.5 20l23 -35q-47 -33 -86 -33q-22 0 -42 7q-18 -42 -37.5 -71t-42.5 -51q-32 -25 -70.5 -42.5t-81.5 -17.5h-13q-35 0 -68 13.5t-59 37t-42 55t-16 67.5q0 49 29 89t71 62
q-21 9 -39.5 22.5t-32.5 31t-22 38.5t-8 44q0 38 15 74t40.5 64.5t60.5 46t75 17.5q54 0 98.5 -30t73.5 -78l-35 -23q-23 41 -59 65.5t-75 24.5q-32 0 -59.5 -13.5t-47.5 -35t-32 -49.5t-12 -57q0 -32 14.5 -54.5t38.5 -36.5t53.5 -20t59.5 -6q6 0 13.5 0.5t27.5 2.5v-47
q-17 3 -22.5 3.5t-8.5 0.5q-29 0 -60 -10t-56.5 -28t-41.5 -43.5t-16 -57.5q0 -29 12.5 -52.5t33 -40.5t46 -26.5t52.5 -9.5h8q33 1 64.5 14t57.5 34.5t45.5 49.5t29.5 59q-11 7 -21.5 9.5t-23.5 2.5q-14 0 -28.5 -9t-26.5 -30z" />
    <glyph glyph-name="quotesingle" unicode="'" horiz-adv-x="221" 
d="M184 669l-74 -161l-45 21l56 117z" />
    <glyph glyph-name="parenleft" unicode="(" horiz-adv-x="239" 
d="M171 724q-57 -97 -85 -199.5t-28 -205.5q0 -111 33 -221t102 -210l-35 -26q-72 108 -108.5 225.5t-36.5 235.5q0 109 29.5 216t89.5 207z" />
    <glyph glyph-name="parenright" unicode=")" horiz-adv-x="239" 
d="M74 746q60 -100 89.5 -207t29.5 -216q0 -118 -36.5 -235.5t-108.5 -225.5l-35 26q69 100 102 210t33 221q0 103 -28 205.5t-85 199.5z" />
    <glyph glyph-name="asterisk" unicode="*" horiz-adv-x="269" 
d="M254 544l2 -37l-88 -14q14 -17 30.5 -38t28.5 -35l-33 -18l-55 67l-33 -85l-33 16l31 82l-91 -15l-2 39l87 13l-57 69l27 28l59 -72l33 85l32 -16l-30 -83z" />
    <glyph glyph-name="plus" unicode="+" horiz-adv-x="429" 
d="M234 507v-186h189v-44h-189v-196h-44v196h-193v44h193v186h44z" />
    <glyph glyph-name="comma" unicode="," horiz-adv-x="127" 
d="M88 55l-31 -128l-45 9l20 88z" />
    <glyph glyph-name="hyphen" unicode="-" horiz-adv-x="555" 
d="M493 277h-425v44h425v-44z" />
    <glyph glyph-name="period" unicode="." horiz-adv-x="159" 
d="M75 53q14 0 21.5 -9t7.5 -20q0 -13 -7.5 -21t-21.5 -8q-12 0 -19.5 8t-7.5 21q0 11 7.5 20t19.5 9z" />
    <glyph glyph-name="slash" unicode="/" horiz-adv-x="529" 
d="M532 731l-497 -731h-49l497 731h49z" />
    <glyph glyph-name="zero" unicode="0" 
d="M988 435q0 -3 -0.5 -11t-1.5 -16.5t-2 -16.5t-1 -12q-2 -12 -5 -24l-6 -24q-22 -82 -68 -149.5t-109 -116t-140 -75.5t-162 -27q-106 0 -197.5 40.5t-158 110t-103.5 162.5t-34 198q2 1 2 4q2 63 19 120t50 111q11 19 28 42t37.5 45t42 40.5t41.5 28.5l1 4h4l2 3
q3 2 6.5 3t6.5 3q6 4 11.5 7.5t10.5 7.5q14 8 29.5 14t30.5 12q41 16 83.5 23.5t86.5 7.5q96 0 186.5 -35.5t159.5 -103.5q23 -23 44 -48.5t38 -54.5q5 -9 9 -19t9 -19q3 -6 6.5 -11t5.5 -11q8 -16 12.5 -32.5t9.5 -33.5q10 -39 13 -72.5t3 -74.5zM754 677
q-35 -3 -70.5 -2.5t-70.5 0.5h-27q-12 -36 -21.5 -72.5t-21.5 -72.5q6 -1 12 -0.5t12 0.5q9 0 14 -2v-324h145v159h110q8 33 18.5 65.5t18.5 66.5h-147q1 5 0.5 10.5t-0.5 10.5v6.5t2 5.5h123q9 40 21.5 79t22.5 79h-138q-5 -2 -3 -9zM134 670q-9 -35 -20 -70t-19 -70
q6 -1 12 -0.5t12 0.5h6.5t6.5 -2v-324h145v125v21.5t2 21.5q14 -1 28 -0.5t28 0.5h16.5t17.5 -2v-164q14 -2 28 -2h28q22 0 44 0.5t45 -0.5v471q-23 -1 -45 0t-44 1q-29 0 -56 -3v-152h-92q0 23 0.5 47t0.5 47q0 30 -3 60h-137q-2 0 -2.5 -2t-1.5 -3zM562 -63q-2 -4 -2.5 -8
t-3.5 -8q-3 0 -6 1t-7 1q-2 0 -3 -1q3 -5 9 -6t11 -5q3 -5 3 -11q0 -7 -3 -13q-8 -7 -21 -7q-9 0 -18 3v2q0 5 1.5 8.5t2.5 8.5q4 -1 7.5 -2.5t7.5 -1.5h3q0 5 -5 6t-9 2q-3 5 -6.5 7.5t-3.5 8.5q0 10 10 14t18 4q7 0 15 -3zM184 -61h37v-1q1 -5 -1.5 -8.5t-1.5 -8.5
q-3 -1 -6 -0.5t-6 0.5q-4 0 -5 -2q2 -3 7.5 -2.5t8.5 0.5h3q-1 -5 -3 -8t-1 -9h-15v-20h-10q-7 0 -9 2l1 36q0 1 -4 3q2 5 2.5 9t2.5 9zM246 -61q0 -6 -0.5 -12t-0.5 -12q0 -10 4 -17h3q5 0 5 6v10v25h10q6 0 8 -2l1 -18q0 -13 -3.5 -26t-20.5 -13q-11 0 -21 9q-2 8 -2 14.5
v14.5q0 2 -2 2.5t-4 0.5q2 5 3 9t3 9h17zM301 -63q0 -9 -0.5 -18.5t0.5 -18.5q1 -2 4.5 -2h5.5h2q-2 -5 -3 -9t-3 -9h-24v38q0 2 -2 2t-4 1q2 4 3 8.5t3 9.5h10q6 0 8 -2zM335 -61q0 -10 -0.5 -19.5t0.5 -19.5q0 -2 3.5 -2h5.5h2v-2q1 -5 -1.5 -8t-2.5 -8q-4 0 -7.5 -0.5
t-7.5 -0.5q-7 0 -11 3l1 35q0 4 -4 4q2 5 2.5 9t2.5 9h17zM367 -61h18q2 -6 4.5 -11.5t3.5 -12.5q5 4 6 11.5t3 12.5h19q-3 -15 -8.5 -30t-10.5 -29h-15q-5 14 -10.5 29t-9.5 30zM424 -61h39q-2 -5 -3.5 -9t-1.5 -9q-2 -1 -5 -0.5t-5 0.5q-4 0 -5 -2q2 -3 7.5 -2.5t8.5 0.5
h3q-1 -4 -2 -7.5t-2 -7.5h-15q2 -3 7.5 -2t8.5 0h3v-1q0 -5 -2 -9.5t-4 -9.5h-32v39q0 2 -2 1.5t-3 0.5q2 4 3 8.5t2 9.5zM514 -84q0 -5 -1.5 -10t-6.5 -8q0 -5 4 -8t4 -9v-1q-3 -1 -8 -1q-6 0 -11.5 2t-5.5 10q-2 -1 -2 -3v-4q0 -4 -1 -4h-17v38q0 2 -2 2t-2 2q0 5 2 8.5
t4 8.5h8q14 1 24.5 -2.5t10.5 -20.5zM488 -89h2q6 0 5 6v2q-2 0 -3 1t-3 1h-1v-10zM586 -61v-59h-17l1 38q0 2 -2 2.5t-4 0.5q2 5 3 9t2 9h17zM614 -63q2 2 8 2q5 0 10 -2.5t10 -4.5q5 -8 9 -21q-2 -11 -8.5 -21t-19.5 -10q-14 0 -22.5 9.5t-8.5 23.5q0 9 7 16t15 8z
M629 -81q-4 2 -8 2t-7.5 -2.5t-3.5 -7.5q0 -13 14 -13h1q7 5 7 12q0 4 -3 9zM674 -61q3 -5 6 -9t5 -9q2 1 2 5.5v7.5q0 4 2 5h16v-59h-15q-4 5 -7.5 11.5t-6.5 12.5q-3 -3 -2.5 -9.5t0.5 -11.5v-3h-17v38q0 2 -2 2t-4 1q2 5 3 9t3 9h17zM752 -63q3 3 8 3t10 -3t10 -5
q3 -5 6 -11t3 -12q0 -13 -8.5 -20.5t-20.5 -7.5q-14 0 -22 8t-8 22q0 9 7 17t15 9zM760 -102q11 0 11 12q0 5 -4 8t-8 3t-3 -2q-8 -1 -8 -10q0 -11 12 -11zM811 -61q4 -5 7 -9t5 -9q2 1 1.5 5.5t-0.5 7.5t2 5h17v-59h-15q-2 6 -6.5 11t-6.5 11q-3 -2 -2 -8t1 -9l-1 -3
q-2 -2 -8 -2h-10v38q0 2 -2 2t-2 3q0 5 2 8t2 8h16zM508 -158l-2 -10t-3 -10h-15q2 -3 7.5 -2t7.5 0h3q0 -1 0.5 -1.5t0.5 -1.5q0 -3 -1.5 -6t-1.5 -6q-2 -1 -5 -0.5t-6 0.5q-4 0 -5 -2q2 -2 8 -1.5t9 0.5l3 -1q-2 -5 -2.5 -9t-2.5 -9h-34v36q0 2 -2 2.5t-2 2.5t2.5 8.5
t3.5 8.5l6 -1q7 0 13.5 1.5t13.5 1.5zM553 -158q-2 -11 -6 -20h-15q0 -5 6.5 -4t9.5 1q1 0 1.5 -0.5t1.5 -0.5q-1 -8 -6 -17h-13v-18h-18q-2 7 -1 13.5t1 14.5q0 5 -2 9t-2 6q3 2 3 6.5t3 8.5l6 -1q7 0 13 1.5t13 1.5zM715 -158q-2 -5 -3 -13t-10 -7v-39h-19v37q0 3 -3 2.5
t-5 -0.5h-1q0 5 1.5 9.5t1.5 9.5l6 -1q7 0 13.5 1.5t13.5 1.5zM737 -219h-6v2q-4 0 -9 1t-5 6q3 5 1 11l4 2q4 0 7.5 -2t7.5 -2l2 1q0 3 -4 4.5t-8.5 3.5t-8 5t-3.5 11q0 10 9 14t17 4q7 0 15 -3v-3q0 -4 -1.5 -5.5t-0.5 -6.5q-2 -2 -3 -2q-3 0 -5.5 1t-5.5 1q-4 0 -5 -2
q8 -2 16 -6.5t8 -14.5q0 -7 -7.5 -13.5t-14.5 -6.5zM813 -219h-5v2q-13 1 -20 9.5t-7 20.5q0 13 9.5 20.5t21.5 7.5q10 0 18 -6q-2 -5 -4 -8.5t-3 -8.5q-4 4 -12 4q-3 0 -6 -1t-5 -5v-9q0 -3 3.5 -4t5.5 -1q4 0 7 1t7 1q1 0 1 -1q1 -4 2.5 -6.5t3.5 -6.5q-2 -5 -7.5 -5.5
t-9.5 -3.5zM80 -159h19q1 -5 2 -10.5t1 -10.5l4 10t2 11h15q2 -5 2.5 -10.5t2.5 -10.5q4 4 3.5 10t2.5 11h37v-3q0 -5 1.5 -8t0.5 -8q5 2 5.5 8t2.5 11h14q0 -6 2.5 -11t1.5 -10q4 4 4 10t2 11h37q2 -5 2 -10.5t2 -10.5q2 5 3.5 10t1.5 11h15q2 -5 3 -10.5t3 -10.5q3 4 3 10
t2 11h17q-1 -15 -5 -29.5t-6 -28.5h-19v2q1 5 -1.5 9t-1.5 9q-4 -4 -5 -9.5t-1 -10.5h-19q-3 13 -5.5 25.5t-7.5 24.5q-8 -26 -11 -50h-18q-2 5 -3 9.5t-3 8.5q-4 -3 -3.5 -8.5t-2.5 -9.5h-18q-2 14 -5.5 26t-5.5 26q-6 -12 -7.5 -25.5t-5.5 -26.5h-19v2q1 5 -2 9t-2 9
q-3 -4 -4 -9.5t-1 -10.5h-19q-2 14 -6.5 28.5t-6.5 29.5zM337 -159v-19h9q3 2 2 7.5t0 8.5v3q3 -1 5.5 -0.5t5.5 0.5h4t4 -2v-56h-19v20h-9q-3 -2 -2.5 -8t0.5 -9v-3h-19v33q1 1 1 3t-2 2.5t-2 2.5q0 5 1.5 8.5t1.5 8.5h19zM369 -159h18l6 -12q2 2 2.5 5.5t2.5 6.5h19
q-2 -9 -5 -15l-6 -12t-4.5 -13t0.5 -18h-19q0 18 -1 25t-3 10.5t-4.5 7t-5.5 15.5zM439 -206v-11h-18v37q0 2 -2.5 2h-3.5q2 5 3 9.5t3 9.5h9q11 0 22 -4.5t11 -18.5q0 -11 -11 -22h-1q-4 0 -5.5 -1.5t-6.5 -0.5zM439 -187l2 -1q4 0 4 5t-4 5h-2v-9zM584 -219v2q-14 0 -21 9
t-7 23q0 11 9.5 18t20.5 7q13 0 21.5 -8t8.5 -21q0 -11 -10.5 -21.5t-21.5 -8.5zM592 -178q-2 0 -2.5 0.5t-2.5 0.5q-12 0 -12 -12q0 -4 4 -10q2 0 3 -0.5t3 -0.5q10 0 12 13q-1 2 -2.5 4.5t-2.5 4.5zM640 -159q1 -6 4.5 -10t5.5 -9q2 2 1.5 7.5t-0.5 8.5v3h19v-58h-17
l-6 12t-9 10v-22h-16v37q0 2 -2 2h-4q2 5 3 9.5t3 9.5h18zM860 -219v2q-11 0 -19 8.5t-8 19.5q0 13 7.5 21t21.5 8q11 0 20.5 -7.5t9.5 -19.5q0 -13 -9.5 -23t-22.5 -9zM860 -200q9 0 13 7v3q1 7 -3 10t-10 2h-4q-4 -4 -4 -10q0 -9 8 -12zM897 -159h19q2 -3 3.5 -6.5
t5.5 -5.5q3 2 5 5.5t4 6.5h19v-58h-19v26q0 1 -1 1q-2 0 -3.5 -3.5t-2.5 -5.5h-1q-5 0 -5.5 4.5t-4.5 5.5v-28h-19v36q0 2 -2 2.5t-2 2.5q0 4 2 8t2 9zM303 -219q-8 4 -8 11q0 9 10 9q9 0 9 -9q0 -11 -11 -11zM771 -219h-2q-4 0 -6 4.5t-2 6.5q0 10 10 10q4 0 5.5 -3t3.5 -5
v-3q0 -5 -3.5 -6.5t-5.5 -3.5z" />
    <glyph glyph-name="one" unicode="1" 
d="M988 435q0 -3 -0.5 -11t-1.5 -16.5t-2 -16.5t-1 -12q-2 -12 -5 -24l-6 -24q-22 -82 -68 -149.5t-109 -116t-140 -75.5t-162 -27q-106 0 -197.5 40.5t-158 110t-103.5 162.5t-34 198q2 1 2 4q2 63 19 120t50 111q11 19 28 42t37.5 45t42 40.5t41.5 28.5l1 4h4l2 3
q3 2 6.5 3t6.5 3q6 4 11.5 7.5t10.5 7.5q14 8 29.5 14t30.5 12q41 16 83.5 23.5t86.5 7.5q96 0 186.5 -35.5t159.5 -103.5q23 -23 44 -48.5t38 -54.5q5 -9 9 -19t9 -19q3 -6 6.5 -11t5.5 -11q8 -16 12.5 -32.5t9.5 -33.5q10 -39 13 -72.5t3 -74.5zM754 677
q-35 -3 -70.5 -2.5t-70.5 0.5h-27q-12 -36 -21.5 -72.5t-21.5 -72.5q6 -1 12 -0.5t12 0.5q9 0 14 -2v-324h145v159h110q8 33 18.5 65.5t18.5 66.5h-147q1 5 0.5 10.5t-0.5 10.5v6.5t2 5.5h123q9 40 21.5 79t22.5 79h-138q-5 -2 -3 -9zM134 670q-9 -35 -20 -70t-19 -70
q6 -1 12 -0.5t12 0.5h6.5t6.5 -2v-324h145v125v21.5t2 21.5q14 -1 28 -0.5t28 0.5h16.5t17.5 -2v-164q14 -2 28 -2h28q22 0 44 0.5t45 -0.5v471q-23 -1 -45 0t-44 1q-29 0 -56 -3v-152h-92q0 23 0.5 47t0.5 47q0 30 -3 60h-137q-2 0 -2.5 -2t-1.5 -3zM562 -63q-2 -4 -2.5 -8
t-3.5 -8q-3 0 -6 1t-7 1q-2 0 -3 -1q3 -5 9 -6t11 -5q3 -5 3 -11q0 -7 -3 -13q-8 -7 -21 -7q-9 0 -18 3v2q0 5 1.5 8.5t2.5 8.5q4 -1 7.5 -2.5t7.5 -1.5h3q0 5 -5 6t-9 2q-3 5 -6.5 7.5t-3.5 8.5q0 10 10 14t18 4q7 0 15 -3zM184 -61h37v-1q1 -5 -1.5 -8.5t-1.5 -8.5
q-3 -1 -6 -0.5t-6 0.5q-4 0 -5 -2q2 -3 7.5 -2.5t8.5 0.5h3q-1 -5 -3 -8t-1 -9h-15v-20h-10q-7 0 -9 2l1 36q0 1 -4 3q2 5 2.5 9t2.5 9zM246 -61q0 -6 -0.5 -12t-0.5 -12q0 -10 4 -17h3q5 0 5 6v10v25h10q6 0 8 -2l1 -18q0 -13 -3.5 -26t-20.5 -13q-11 0 -21 9q-2 8 -2 14.5
v14.5q0 2 -2 2.5t-4 0.5q2 5 3 9t3 9h17zM301 -63q0 -9 -0.5 -18.5t0.5 -18.5q1 -2 4.5 -2h5.5h2q-2 -5 -3 -9t-3 -9h-24v38q0 2 -2 2t-4 1q2 4 3 8.5t3 9.5h10q6 0 8 -2zM335 -61q0 -10 -0.5 -19.5t0.5 -19.5q0 -2 3.5 -2h5.5h2v-2q1 -5 -1.5 -8t-2.5 -8q-4 0 -7.5 -0.5
t-7.5 -0.5q-7 0 -11 3l1 35q0 4 -4 4q2 5 2.5 9t2.5 9h17zM367 -61h18q2 -6 4.5 -11.5t3.5 -12.5q5 4 6 11.5t3 12.5h19q-3 -15 -8.5 -30t-10.5 -29h-15q-5 14 -10.5 29t-9.5 30zM424 -61h39q-2 -5 -3.5 -9t-1.5 -9q-2 -1 -5 -0.5t-5 0.5q-4 0 -5 -2q2 -3 7.5 -2.5t8.5 0.5
h3q-1 -4 -2 -7.5t-2 -7.5h-15q2 -3 7.5 -2t8.5 0h3v-1q0 -5 -2 -9.5t-4 -9.5h-32v39q0 2 -2 1.5t-3 0.5q2 4 3 8.5t2 9.5zM514 -84q0 -5 -1.5 -10t-6.5 -8q0 -5 4 -8t4 -9v-1q-3 -1 -8 -1q-6 0 -11.5 2t-5.5 10q-2 -1 -2 -3v-4q0 -4 -1 -4h-17v38q0 2 -2 2t-2 2q0 5 2 8.5
t4 8.5h8q14 1 24.5 -2.5t10.5 -20.5zM488 -89h2q6 0 5 6v2q-2 0 -3 1t-3 1h-1v-10zM586 -61v-59h-17l1 38q0 2 -2 2.5t-4 0.5q2 5 3 9t2 9h17zM614 -63q2 2 8 2q5 0 10 -2.5t10 -4.5q5 -8 9 -21q-2 -11 -8.5 -21t-19.5 -10q-14 0 -22.5 9.5t-8.5 23.5q0 9 7 16t15 8z
M629 -81q-4 2 -8 2t-7.5 -2.5t-3.5 -7.5q0 -13 14 -13h1q7 5 7 12q0 4 -3 9zM674 -61q3 -5 6 -9t5 -9q2 1 2 5.5v7.5q0 4 2 5h16v-59h-15q-4 5 -7.5 11.5t-6.5 12.5q-3 -3 -2.5 -9.5t0.5 -11.5v-3h-17v38q0 2 -2 2t-4 1q2 5 3 9t3 9h17zM752 -63q3 3 8 3t10 -3t10 -5
q3 -5 6 -11t3 -12q0 -13 -8.5 -20.5t-20.5 -7.5q-14 0 -22 8t-8 22q0 9 7 17t15 9zM760 -102q11 0 11 12q0 5 -4 8t-8 3t-3 -2q-8 -1 -8 -10q0 -11 12 -11zM811 -61q4 -5 7 -9t5 -9q2 1 1.5 5.5t-0.5 7.5t2 5h17v-59h-15q-2 6 -6.5 11t-6.5 11q-3 -2 -2 -8t1 -9l-1 -3
q-2 -2 -8 -2h-10v38q0 2 -2 2t-2 3q0 5 2 8t2 8h16zM508 -158l-2 -10t-3 -10h-15q2 -3 7.5 -2t7.5 0h3q0 -1 0.5 -1.5t0.5 -1.5q0 -3 -1.5 -6t-1.5 -6q-2 -1 -5 -0.5t-6 0.5q-4 0 -5 -2q2 -2 8 -1.5t9 0.5l3 -1q-2 -5 -2.5 -9t-2.5 -9h-34v36q0 2 -2 2.5t-2 2.5t2.5 8.5
t3.5 8.5l6 -1q7 0 13.5 1.5t13.5 1.5zM553 -158q-2 -11 -6 -20h-15q0 -5 6.5 -4t9.5 1q1 0 1.5 -0.5t1.5 -0.5q-1 -8 -6 -17h-13v-18h-18q-2 7 -1 13.5t1 14.5q0 5 -2 9t-2 6q3 2 3 6.5t3 8.5l6 -1q7 0 13 1.5t13 1.5zM715 -158q-2 -5 -3 -13t-10 -7v-39h-19v37q0 3 -3 2.5
t-5 -0.5h-1q0 5 1.5 9.5t1.5 9.5l6 -1q7 0 13.5 1.5t13.5 1.5zM737 -219h-6v2q-4 0 -9 1t-5 6q3 5 1 11l4 2q4 0 7.5 -2t7.5 -2l2 1q0 3 -4 4.5t-8.5 3.5t-8 5t-3.5 11q0 10 9 14t17 4q7 0 15 -3v-3q0 -4 -1.5 -5.5t-0.5 -6.5q-2 -2 -3 -2q-3 0 -5.5 1t-5.5 1q-4 0 -5 -2
q8 -2 16 -6.5t8 -14.5q0 -7 -7.5 -13.5t-14.5 -6.5zM813 -219h-5v2q-13 1 -20 9.5t-7 20.5q0 13 9.5 20.5t21.5 7.5q10 0 18 -6q-2 -5 -4 -8.5t-3 -8.5q-4 4 -12 4q-3 0 -6 -1t-5 -5v-9q0 -3 3.5 -4t5.5 -1q4 0 7 1t7 1q1 0 1 -1q1 -4 2.5 -6.5t3.5 -6.5q-2 -5 -7.5 -5.5
t-9.5 -3.5zM80 -159h19q1 -5 2 -10.5t1 -10.5l4 10t2 11h15q2 -5 2.5 -10.5t2.5 -10.5q4 4 3.5 10t2.5 11h37v-3q0 -5 1.5 -8t0.5 -8q5 2 5.5 8t2.5 11h14q0 -6 2.5 -11t1.5 -10q4 4 4 10t2 11h37q2 -5 2 -10.5t2 -10.5q2 5 3.5 10t1.5 11h15q2 -5 3 -10.5t3 -10.5q3 4 3 10
t2 11h17q-1 -15 -5 -29.5t-6 -28.5h-19v2q1 5 -1.5 9t-1.5 9q-4 -4 -5 -9.5t-1 -10.5h-19q-3 13 -5.5 25.5t-7.5 24.5q-8 -26 -11 -50h-18q-2 5 -3 9.5t-3 8.5q-4 -3 -3.5 -8.5t-2.5 -9.5h-18q-2 14 -5.5 26t-5.5 26q-6 -12 -7.5 -25.5t-5.5 -26.5h-19v2q1 5 -2 9t-2 9
q-3 -4 -4 -9.5t-1 -10.5h-19q-2 14 -6.5 28.5t-6.5 29.5zM337 -159v-19h9q3 2 2 7.5t0 8.5v3q3 -1 5.5 -0.5t5.5 0.5h4t4 -2v-56h-19v20h-9q-3 -2 -2.5 -8t0.5 -9v-3h-19v33q1 1 1 3t-2 2.5t-2 2.5q0 5 1.5 8.5t1.5 8.5h19zM369 -159h18l6 -12q2 2 2.5 5.5t2.5 6.5h19
q-2 -9 -5 -15l-6 -12t-4.5 -13t0.5 -18h-19q0 18 -1 25t-3 10.5t-4.5 7t-5.5 15.5zM439 -206v-11h-18v37q0 2 -2.5 2h-3.5q2 5 3 9.5t3 9.5h9q11 0 22 -4.5t11 -18.5q0 -11 -11 -22h-1q-4 0 -5.5 -1.5t-6.5 -0.5zM439 -187l2 -1q4 0 4 5t-4 5h-2v-9zM584 -219v2q-14 0 -21 9
t-7 23q0 11 9.5 18t20.5 7q13 0 21.5 -8t8.5 -21q0 -11 -10.5 -21.5t-21.5 -8.5zM592 -178q-2 0 -2.5 0.5t-2.5 0.5q-12 0 -12 -12q0 -4 4 -10q2 0 3 -0.5t3 -0.5q10 0 12 13q-1 2 -2.5 4.5t-2.5 4.5zM640 -159q1 -6 4.5 -10t5.5 -9q2 2 1.5 7.5t-0.5 8.5v3h19v-58h-17
l-6 12t-9 10v-22h-16v37q0 2 -2 2h-4q2 5 3 9.5t3 9.5h18zM860 -219v2q-11 0 -19 8.5t-8 19.5q0 13 7.5 21t21.5 8q11 0 20.5 -7.5t9.5 -19.5q0 -13 -9.5 -23t-22.5 -9zM860 -200q9 0 13 7v3q1 7 -3 10t-10 2h-4q-4 -4 -4 -10q0 -9 8 -12zM897 -159h19q2 -3 3.5 -6.5
t5.5 -5.5q3 2 5 5.5t4 6.5h19v-58h-19v26q0 1 -1 1q-2 0 -3.5 -3.5t-2.5 -5.5h-1q-5 0 -5.5 4.5t-4.5 5.5v-28h-19v36q0 2 -2 2.5t-2 2.5q0 4 2 8t2 9zM303 -219q-8 4 -8 11q0 9 10 9q9 0 9 -9q0 -11 -11 -11zM771 -219h-2q-4 0 -6 4.5t-2 6.5q0 10 10 10q4 0 5.5 -3t3.5 -5
v-3q0 -5 -3.5 -6.5t-5.5 -3.5z" />
    <glyph glyph-name="two" unicode="2" 
d="M988 435q0 -3 -0.5 -11t-1.5 -16.5t-2 -16.5t-1 -12q-2 -12 -5 -24l-6 -24q-22 -82 -68 -149.5t-109 -116t-140 -75.5t-162 -27q-106 0 -197.5 40.5t-158 110t-103.5 162.5t-34 198q2 1 2 4q2 63 19 120t50 111q11 19 28 42t37.5 45t42 40.5t41.5 28.5l1 4h4l2 3
q3 2 6.5 3t6.5 3q6 4 11.5 7.5t10.5 7.5q14 8 29.5 14t30.5 12q41 16 83.5 23.5t86.5 7.5q96 0 186.5 -35.5t159.5 -103.5q23 -23 44 -48.5t38 -54.5q5 -9 9 -19t9 -19q3 -6 6.5 -11t5.5 -11q8 -16 12.5 -32.5t9.5 -33.5q10 -39 13 -72.5t3 -74.5zM754 677
q-35 -3 -70.5 -2.5t-70.5 0.5h-27q-12 -36 -21.5 -72.5t-21.5 -72.5q6 -1 12 -0.5t12 0.5q9 0 14 -2v-324h145v159h110q8 33 18.5 65.5t18.5 66.5h-147q1 5 0.5 10.5t-0.5 10.5v6.5t2 5.5h123q9 40 21.5 79t22.5 79h-138q-5 -2 -3 -9zM134 670q-9 -35 -20 -70t-19 -70
q6 -1 12 -0.5t12 0.5h6.5t6.5 -2v-324h145v125v21.5t2 21.5q14 -1 28 -0.5t28 0.5h16.5t17.5 -2v-164q14 -2 28 -2h28q22 0 44 0.5t45 -0.5v471q-23 -1 -45 0t-44 1q-29 0 -56 -3v-152h-92q0 23 0.5 47t0.5 47q0 30 -3 60h-137q-2 0 -2.5 -2t-1.5 -3zM562 -63q-2 -4 -2.5 -8
t-3.5 -8q-3 0 -6 1t-7 1q-2 0 -3 -1q3 -5 9 -6t11 -5q3 -5 3 -11q0 -7 -3 -13q-8 -7 -21 -7q-9 0 -18 3v2q0 5 1.5 8.5t2.5 8.5q4 -1 7.5 -2.5t7.5 -1.5h3q0 5 -5 6t-9 2q-3 5 -6.5 7.5t-3.5 8.5q0 10 10 14t18 4q7 0 15 -3zM184 -61h37v-1q1 -5 -1.5 -8.5t-1.5 -8.5
q-3 -1 -6 -0.5t-6 0.5q-4 0 -5 -2q2 -3 7.5 -2.5t8.5 0.5h3q-1 -5 -3 -8t-1 -9h-15v-20h-10q-7 0 -9 2l1 36q0 1 -4 3q2 5 2.5 9t2.5 9zM246 -61q0 -6 -0.5 -12t-0.5 -12q0 -10 4 -17h3q5 0 5 6v10v25h10q6 0 8 -2l1 -18q0 -13 -3.5 -26t-20.5 -13q-11 0 -21 9q-2 8 -2 14.5
v14.5q0 2 -2 2.5t-4 0.5q2 5 3 9t3 9h17zM301 -63q0 -9 -0.5 -18.5t0.5 -18.5q1 -2 4.5 -2h5.5h2q-2 -5 -3 -9t-3 -9h-24v38q0 2 -2 2t-4 1q2 4 3 8.5t3 9.5h10q6 0 8 -2zM335 -61q0 -10 -0.5 -19.5t0.5 -19.5q0 -2 3.5 -2h5.5h2v-2q1 -5 -1.5 -8t-2.5 -8q-4 0 -7.5 -0.5
t-7.5 -0.5q-7 0 -11 3l1 35q0 4 -4 4q2 5 2.5 9t2.5 9h17zM367 -61h18q2 -6 4.5 -11.5t3.5 -12.5q5 4 6 11.5t3 12.5h19q-3 -15 -8.5 -30t-10.5 -29h-15q-5 14 -10.5 29t-9.5 30zM424 -61h39q-2 -5 -3.5 -9t-1.5 -9q-2 -1 -5 -0.5t-5 0.5q-4 0 -5 -2q2 -3 7.5 -2.5t8.5 0.5
h3q-1 -4 -2 -7.5t-2 -7.5h-15q2 -3 7.5 -2t8.5 0h3v-1q0 -5 -2 -9.5t-4 -9.5h-32v39q0 2 -2 1.5t-3 0.5q2 4 3 8.5t2 9.5zM514 -84q0 -5 -1.5 -10t-6.5 -8q0 -5 4 -8t4 -9v-1q-3 -1 -8 -1q-6 0 -11.5 2t-5.5 10q-2 -1 -2 -3v-4q0 -4 -1 -4h-17v38q0 2 -2 2t-2 2q0 5 2 8.5
t4 8.5h8q14 1 24.5 -2.5t10.5 -20.5zM488 -89h2q6 0 5 6v2q-2 0 -3 1t-3 1h-1v-10zM586 -61v-59h-17l1 38q0 2 -2 2.5t-4 0.5q2 5 3 9t2 9h17zM614 -63q2 2 8 2q5 0 10 -2.5t10 -4.5q5 -8 9 -21q-2 -11 -8.5 -21t-19.5 -10q-14 0 -22.5 9.5t-8.5 23.5q0 9 7 16t15 8z
M629 -81q-4 2 -8 2t-7.5 -2.5t-3.5 -7.5q0 -13 14 -13h1q7 5 7 12q0 4 -3 9zM674 -61q3 -5 6 -9t5 -9q2 1 2 5.5v7.5q0 4 2 5h16v-59h-15q-4 5 -7.5 11.5t-6.5 12.5q-3 -3 -2.5 -9.5t0.5 -11.5v-3h-17v38q0 2 -2 2t-4 1q2 5 3 9t3 9h17zM752 -63q3 3 8 3t10 -3t10 -5
q3 -5 6 -11t3 -12q0 -13 -8.5 -20.5t-20.5 -7.5q-14 0 -22 8t-8 22q0 9 7 17t15 9zM760 -102q11 0 11 12q0 5 -4 8t-8 3t-3 -2q-8 -1 -8 -10q0 -11 12 -11zM811 -61q4 -5 7 -9t5 -9q2 1 1.5 5.5t-0.5 7.5t2 5h17v-59h-15q-2 6 -6.5 11t-6.5 11q-3 -2 -2 -8t1 -9l-1 -3
q-2 -2 -8 -2h-10v38q0 2 -2 2t-2 3q0 5 2 8t2 8h16zM508 -158l-2 -10t-3 -10h-15q2 -3 7.5 -2t7.5 0h3q0 -1 0.5 -1.5t0.5 -1.5q0 -3 -1.5 -6t-1.5 -6q-2 -1 -5 -0.5t-6 0.5q-4 0 -5 -2q2 -2 8 -1.5t9 0.5l3 -1q-2 -5 -2.5 -9t-2.5 -9h-34v36q0 2 -2 2.5t-2 2.5t2.5 8.5
t3.5 8.5l6 -1q7 0 13.5 1.5t13.5 1.5zM553 -158q-2 -11 -6 -20h-15q0 -5 6.5 -4t9.5 1q1 0 1.5 -0.5t1.5 -0.5q-1 -8 -6 -17h-13v-18h-18q-2 7 -1 13.5t1 14.5q0 5 -2 9t-2 6q3 2 3 6.5t3 8.5l6 -1q7 0 13 1.5t13 1.5zM715 -158q-2 -5 -3 -13t-10 -7v-39h-19v37q0 3 -3 2.5
t-5 -0.5h-1q0 5 1.5 9.5t1.5 9.5l6 -1q7 0 13.5 1.5t13.5 1.5zM737 -219h-6v2q-4 0 -9 1t-5 6q3 5 1 11l4 2q4 0 7.5 -2t7.5 -2l2 1q0 3 -4 4.5t-8.5 3.5t-8 5t-3.5 11q0 10 9 14t17 4q7 0 15 -3v-3q0 -4 -1.5 -5.5t-0.5 -6.5q-2 -2 -3 -2q-3 0 -5.5 1t-5.5 1q-4 0 -5 -2
q8 -2 16 -6.5t8 -14.5q0 -7 -7.5 -13.5t-14.5 -6.5zM813 -219h-5v2q-13 1 -20 9.5t-7 20.5q0 13 9.5 20.5t21.5 7.5q10 0 18 -6q-2 -5 -4 -8.5t-3 -8.5q-4 4 -12 4q-3 0 -6 -1t-5 -5v-9q0 -3 3.5 -4t5.5 -1q4 0 7 1t7 1q1 0 1 -1q1 -4 2.5 -6.5t3.5 -6.5q-2 -5 -7.5 -5.5
t-9.5 -3.5zM80 -159h19q1 -5 2 -10.5t1 -10.5l4 10t2 11h15q2 -5 2.5 -10.5t2.5 -10.5q4 4 3.5 10t2.5 11h37v-3q0 -5 1.5 -8t0.5 -8q5 2 5.5 8t2.5 11h14q0 -6 2.5 -11t1.5 -10q4 4 4 10t2 11h37q2 -5 2 -10.5t2 -10.5q2 5 3.5 10t1.5 11h15q2 -5 3 -10.5t3 -10.5q3 4 3 10
t2 11h17q-1 -15 -5 -29.5t-6 -28.5h-19v2q1 5 -1.5 9t-1.5 9q-4 -4 -5 -9.5t-1 -10.5h-19q-3 13 -5.5 25.5t-7.5 24.5q-8 -26 -11 -50h-18q-2 5 -3 9.5t-3 8.5q-4 -3 -3.5 -8.5t-2.5 -9.5h-18q-2 14 -5.5 26t-5.5 26q-6 -12 -7.5 -25.5t-5.5 -26.5h-19v2q1 5 -2 9t-2 9
q-3 -4 -4 -9.5t-1 -10.5h-19q-2 14 -6.5 28.5t-6.5 29.5zM337 -159v-19h9q3 2 2 7.5t0 8.5v3q3 -1 5.5 -0.5t5.5 0.5h4t4 -2v-56h-19v20h-9q-3 -2 -2.5 -8t0.5 -9v-3h-19v33q1 1 1 3t-2 2.5t-2 2.5q0 5 1.5 8.5t1.5 8.5h19zM369 -159h18l6 -12q2 2 2.5 5.5t2.5 6.5h19
q-2 -9 -5 -15l-6 -12t-4.5 -13t0.5 -18h-19q0 18 -1 25t-3 10.5t-4.5 7t-5.5 15.5zM439 -206v-11h-18v37q0 2 -2.5 2h-3.5q2 5 3 9.5t3 9.5h9q11 0 22 -4.5t11 -18.5q0 -11 -11 -22h-1q-4 0 -5.5 -1.5t-6.5 -0.5zM439 -187l2 -1q4 0 4 5t-4 5h-2v-9zM584 -219v2q-14 0 -21 9
t-7 23q0 11 9.5 18t20.5 7q13 0 21.5 -8t8.5 -21q0 -11 -10.5 -21.5t-21.5 -8.5zM592 -178q-2 0 -2.5 0.5t-2.5 0.5q-12 0 -12 -12q0 -4 4 -10q2 0 3 -0.5t3 -0.5q10 0 12 13q-1 2 -2.5 4.5t-2.5 4.5zM640 -159q1 -6 4.5 -10t5.5 -9q2 2 1.5 7.5t-0.5 8.5v3h19v-58h-17
l-6 12t-9 10v-22h-16v37q0 2 -2 2h-4q2 5 3 9.5t3 9.5h18zM860 -219v2q-11 0 -19 8.5t-8 19.5q0 13 7.5 21t21.5 8q11 0 20.5 -7.5t9.5 -19.5q0 -13 -9.5 -23t-22.5 -9zM860 -200q9 0 13 7v3q1 7 -3 10t-10 2h-4q-4 -4 -4 -10q0 -9 8 -12zM897 -159h19q2 -3 3.5 -6.5
t5.5 -5.5q3 2 5 5.5t4 6.5h19v-58h-19v26q0 1 -1 1q-2 0 -3.5 -3.5t-2.5 -5.5h-1q-5 0 -5.5 4.5t-4.5 5.5v-28h-19v36q0 2 -2 2.5t-2 2.5q0 4 2 8t2 9zM303 -219q-8 4 -8 11q0 9 10 9q9 0 9 -9q0 -11 -11 -11zM771 -219h-2q-4 0 -6 4.5t-2 6.5q0 10 10 10q4 0 5.5 -3t3.5 -5
v-3q0 -5 -3.5 -6.5t-5.5 -3.5z" />
    <glyph glyph-name="three" unicode="3" 
d="M988 435q0 -3 -0.5 -11t-1.5 -16.5t-2 -16.5t-1 -12q-2 -12 -5 -24l-6 -24q-22 -82 -68 -149.5t-109 -116t-140 -75.5t-162 -27q-106 0 -197.5 40.5t-158 110t-103.5 162.5t-34 198q2 1 2 4q2 63 19 120t50 111q11 19 28 42t37.5 45t42 40.5t41.5 28.5l1 4h4l2 3
q3 2 6.5 3t6.5 3q6 4 11.5 7.5t10.5 7.5q14 8 29.5 14t30.5 12q41 16 83.5 23.5t86.5 7.5q96 0 186.5 -35.5t159.5 -103.5q23 -23 44 -48.5t38 -54.5q5 -9 9 -19t9 -19q3 -6 6.5 -11t5.5 -11q8 -16 12.5 -32.5t9.5 -33.5q10 -39 13 -72.5t3 -74.5zM754 677
q-35 -3 -70.5 -2.5t-70.5 0.5h-27q-12 -36 -21.5 -72.5t-21.5 -72.5q6 -1 12 -0.5t12 0.5q9 0 14 -2v-324h145v159h110q8 33 18.5 65.5t18.5 66.5h-147q1 5 0.5 10.5t-0.5 10.5v6.5t2 5.5h123q9 40 21.5 79t22.5 79h-138q-5 -2 -3 -9zM134 670q-9 -35 -20 -70t-19 -70
q6 -1 12 -0.5t12 0.5h6.5t6.5 -2v-324h145v125v21.5t2 21.5q14 -1 28 -0.5t28 0.5h16.5t17.5 -2v-164q14 -2 28 -2h28q22 0 44 0.5t45 -0.5v471q-23 -1 -45 0t-44 1q-29 0 -56 -3v-152h-92q0 23 0.5 47t0.5 47q0 30 -3 60h-137q-2 0 -2.5 -2t-1.5 -3zM562 -63q-2 -4 -2.5 -8
t-3.5 -8q-3 0 -6 1t-7 1q-2 0 -3 -1q3 -5 9 -6t11 -5q3 -5 3 -11q0 -7 -3 -13q-8 -7 -21 -7q-9 0 -18 3v2q0 5 1.5 8.5t2.5 8.5q4 -1 7.5 -2.5t7.5 -1.5h3q0 5 -5 6t-9 2q-3 5 -6.5 7.5t-3.5 8.5q0 10 10 14t18 4q7 0 15 -3zM184 -61h37v-1q1 -5 -1.5 -8.5t-1.5 -8.5
q-3 -1 -6 -0.5t-6 0.5q-4 0 -5 -2q2 -3 7.5 -2.5t8.5 0.5h3q-1 -5 -3 -8t-1 -9h-15v-20h-10q-7 0 -9 2l1 36q0 1 -4 3q2 5 2.5 9t2.5 9zM246 -61q0 -6 -0.5 -12t-0.5 -12q0 -10 4 -17h3q5 0 5 6v10v25h10q6 0 8 -2l1 -18q0 -13 -3.5 -26t-20.5 -13q-11 0 -21 9q-2 8 -2 14.5
v14.5q0 2 -2 2.5t-4 0.5q2 5 3 9t3 9h17zM301 -63q0 -9 -0.5 -18.5t0.5 -18.5q1 -2 4.5 -2h5.5h2q-2 -5 -3 -9t-3 -9h-24v38q0 2 -2 2t-4 1q2 4 3 8.5t3 9.5h10q6 0 8 -2zM335 -61q0 -10 -0.5 -19.5t0.5 -19.5q0 -2 3.5 -2h5.5h2v-2q1 -5 -1.5 -8t-2.5 -8q-4 0 -7.5 -0.5
t-7.5 -0.5q-7 0 -11 3l1 35q0 4 -4 4q2 5 2.5 9t2.5 9h17zM367 -61h18q2 -6 4.5 -11.5t3.5 -12.5q5 4 6 11.5t3 12.5h19q-3 -15 -8.5 -30t-10.5 -29h-15q-5 14 -10.5 29t-9.5 30zM424 -61h39q-2 -5 -3.5 -9t-1.5 -9q-2 -1 -5 -0.5t-5 0.5q-4 0 -5 -2q2 -3 7.5 -2.5t8.5 0.5
h3q-1 -4 -2 -7.5t-2 -7.5h-15q2 -3 7.5 -2t8.5 0h3v-1q0 -5 -2 -9.5t-4 -9.5h-32v39q0 2 -2 1.5t-3 0.5q2 4 3 8.5t2 9.5zM514 -84q0 -5 -1.5 -10t-6.5 -8q0 -5 4 -8t4 -9v-1q-3 -1 -8 -1q-6 0 -11.5 2t-5.5 10q-2 -1 -2 -3v-4q0 -4 -1 -4h-17v38q0 2 -2 2t-2 2q0 5 2 8.5
t4 8.5h8q14 1 24.5 -2.5t10.5 -20.5zM488 -89h2q6 0 5 6v2q-2 0 -3 1t-3 1h-1v-10zM586 -61v-59h-17l1 38q0 2 -2 2.5t-4 0.5q2 5 3 9t2 9h17zM614 -63q2 2 8 2q5 0 10 -2.5t10 -4.5q5 -8 9 -21q-2 -11 -8.5 -21t-19.5 -10q-14 0 -22.5 9.5t-8.5 23.5q0 9 7 16t15 8z
M629 -81q-4 2 -8 2t-7.5 -2.5t-3.5 -7.5q0 -13 14 -13h1q7 5 7 12q0 4 -3 9zM674 -61q3 -5 6 -9t5 -9q2 1 2 5.5v7.5q0 4 2 5h16v-59h-15q-4 5 -7.5 11.5t-6.5 12.5q-3 -3 -2.5 -9.5t0.5 -11.5v-3h-17v38q0 2 -2 2t-4 1q2 5 3 9t3 9h17zM752 -63q3 3 8 3t10 -3t10 -5
q3 -5 6 -11t3 -12q0 -13 -8.5 -20.5t-20.5 -7.5q-14 0 -22 8t-8 22q0 9 7 17t15 9zM760 -102q11 0 11 12q0 5 -4 8t-8 3t-3 -2q-8 -1 -8 -10q0 -11 12 -11zM811 -61q4 -5 7 -9t5 -9q2 1 1.5 5.5t-0.5 7.5t2 5h17v-59h-15q-2 6 -6.5 11t-6.5 11q-3 -2 -2 -8t1 -9l-1 -3
q-2 -2 -8 -2h-10v38q0 2 -2 2t-2 3q0 5 2 8t2 8h16zM508 -158l-2 -10t-3 -10h-15q2 -3 7.5 -2t7.5 0h3q0 -1 0.5 -1.5t0.5 -1.5q0 -3 -1.5 -6t-1.5 -6q-2 -1 -5 -0.5t-6 0.5q-4 0 -5 -2q2 -2 8 -1.5t9 0.5l3 -1q-2 -5 -2.5 -9t-2.5 -9h-34v36q0 2 -2 2.5t-2 2.5t2.5 8.5
t3.5 8.5l6 -1q7 0 13.5 1.5t13.5 1.5zM553 -158q-2 -11 -6 -20h-15q0 -5 6.5 -4t9.5 1q1 0 1.5 -0.5t1.5 -0.5q-1 -8 -6 -17h-13v-18h-18q-2 7 -1 13.5t1 14.5q0 5 -2 9t-2 6q3 2 3 6.5t3 8.5l6 -1q7 0 13 1.5t13 1.5zM715 -158q-2 -5 -3 -13t-10 -7v-39h-19v37q0 3 -3 2.5
t-5 -0.5h-1q0 5 1.5 9.5t1.5 9.5l6 -1q7 0 13.5 1.5t13.5 1.5zM737 -219h-6v2q-4 0 -9 1t-5 6q3 5 1 11l4 2q4 0 7.5 -2t7.5 -2l2 1q0 3 -4 4.5t-8.5 3.5t-8 5t-3.5 11q0 10 9 14t17 4q7 0 15 -3v-3q0 -4 -1.5 -5.5t-0.5 -6.5q-2 -2 -3 -2q-3 0 -5.5 1t-5.5 1q-4 0 -5 -2
q8 -2 16 -6.5t8 -14.5q0 -7 -7.5 -13.5t-14.5 -6.5zM813 -219h-5v2q-13 1 -20 9.5t-7 20.5q0 13 9.5 20.5t21.5 7.5q10 0 18 -6q-2 -5 -4 -8.5t-3 -8.5q-4 4 -12 4q-3 0 -6 -1t-5 -5v-9q0 -3 3.5 -4t5.5 -1q4 0 7 1t7 1q1 0 1 -1q1 -4 2.5 -6.5t3.5 -6.5q-2 -5 -7.5 -5.5
t-9.5 -3.5zM80 -159h19q1 -5 2 -10.5t1 -10.5l4 10t2 11h15q2 -5 2.5 -10.5t2.5 -10.5q4 4 3.5 10t2.5 11h37v-3q0 -5 1.5 -8t0.5 -8q5 2 5.5 8t2.5 11h14q0 -6 2.5 -11t1.5 -10q4 4 4 10t2 11h37q2 -5 2 -10.5t2 -10.5q2 5 3.5 10t1.5 11h15q2 -5 3 -10.5t3 -10.5q3 4 3 10
t2 11h17q-1 -15 -5 -29.5t-6 -28.5h-19v2q1 5 -1.5 9t-1.5 9q-4 -4 -5 -9.5t-1 -10.5h-19q-3 13 -5.5 25.5t-7.5 24.5q-8 -26 -11 -50h-18q-2 5 -3 9.5t-3 8.5q-4 -3 -3.5 -8.5t-2.5 -9.5h-18q-2 14 -5.5 26t-5.5 26q-6 -12 -7.5 -25.5t-5.5 -26.5h-19v2q1 5 -2 9t-2 9
q-3 -4 -4 -9.5t-1 -10.5h-19q-2 14 -6.5 28.5t-6.5 29.5zM337 -159v-19h9q3 2 2 7.5t0 8.5v3q3 -1 5.5 -0.5t5.5 0.5h4t4 -2v-56h-19v20h-9q-3 -2 -2.5 -8t0.5 -9v-3h-19v33q1 1 1 3t-2 2.5t-2 2.5q0 5 1.5 8.5t1.5 8.5h19zM369 -159h18l6 -12q2 2 2.5 5.5t2.5 6.5h19
q-2 -9 -5 -15l-6 -12t-4.5 -13t0.5 -18h-19q0 18 -1 25t-3 10.5t-4.5 7t-5.5 15.5zM439 -206v-11h-18v37q0 2 -2.5 2h-3.5q2 5 3 9.5t3 9.5h9q11 0 22 -4.5t11 -18.5q0 -11 -11 -22h-1q-4 0 -5.5 -1.5t-6.5 -0.5zM439 -187l2 -1q4 0 4 5t-4 5h-2v-9zM584 -219v2q-14 0 -21 9
t-7 23q0 11 9.5 18t20.5 7q13 0 21.5 -8t8.5 -21q0 -11 -10.5 -21.5t-21.5 -8.5zM592 -178q-2 0 -2.5 0.5t-2.5 0.5q-12 0 -12 -12q0 -4 4 -10q2 0 3 -0.5t3 -0.5q10 0 12 13q-1 2 -2.5 4.5t-2.5 4.5zM640 -159q1 -6 4.5 -10t5.5 -9q2 2 1.5 7.5t-0.5 8.5v3h19v-58h-17
l-6 12t-9 10v-22h-16v37q0 2 -2 2h-4q2 5 3 9.5t3 9.5h18zM860 -219v2q-11 0 -19 8.5t-8 19.5q0 13 7.5 21t21.5 8q11 0 20.5 -7.5t9.5 -19.5q0 -13 -9.5 -23t-22.5 -9zM860 -200q9 0 13 7v3q1 7 -3 10t-10 2h-4q-4 -4 -4 -10q0 -9 8 -12zM897 -159h19q2 -3 3.5 -6.5
t5.5 -5.5q3 2 5 5.5t4 6.5h19v-58h-19v26q0 1 -1 1q-2 0 -3.5 -3.5t-2.5 -5.5h-1q-5 0 -5.5 4.5t-4.5 5.5v-28h-19v36q0 2 -2 2.5t-2 2.5q0 4 2 8t2 9zM303 -219q-8 4 -8 11q0 9 10 9q9 0 9 -9q0 -11 -11 -11zM771 -219h-2q-4 0 -6 4.5t-2 6.5q0 10 10 10q4 0 5.5 -3t3.5 -5
v-3q0 -5 -3.5 -6.5t-5.5 -3.5z" />
    <glyph glyph-name="four" unicode="4" 
d="M988 435q0 -3 -0.5 -11t-1.5 -16.5t-2 -16.5t-1 -12q-2 -12 -5 -24l-6 -24q-22 -82 -68 -149.5t-109 -116t-140 -75.5t-162 -27q-106 0 -197.5 40.5t-158 110t-103.5 162.5t-34 198q2 1 2 4q2 63 19 120t50 111q11 19 28 42t37.5 45t42 40.5t41.5 28.5l1 4h4l2 3
q3 2 6.5 3t6.5 3q6 4 11.5 7.5t10.5 7.5q14 8 29.5 14t30.5 12q41 16 83.5 23.5t86.5 7.5q96 0 186.5 -35.5t159.5 -103.5q23 -23 44 -48.5t38 -54.5q5 -9 9 -19t9 -19q3 -6 6.5 -11t5.5 -11q8 -16 12.5 -32.5t9.5 -33.5q10 -39 13 -72.5t3 -74.5zM754 677
q-35 -3 -70.5 -2.5t-70.5 0.5h-27q-12 -36 -21.5 -72.5t-21.5 -72.5q6 -1 12 -0.5t12 0.5q9 0 14 -2v-324h145v159h110q8 33 18.5 65.5t18.5 66.5h-147q1 5 0.5 10.5t-0.5 10.5v6.5t2 5.5h123q9 40 21.5 79t22.5 79h-138q-5 -2 -3 -9zM134 670q-9 -35 -20 -70t-19 -70
q6 -1 12 -0.5t12 0.5h6.5t6.5 -2v-324h145v125v21.5t2 21.5q14 -1 28 -0.5t28 0.5h16.5t17.5 -2v-164q14 -2 28 -2h28q22 0 44 0.5t45 -0.5v471q-23 -1 -45 0t-44 1q-29 0 -56 -3v-152h-92q0 23 0.5 47t0.5 47q0 30 -3 60h-137q-2 0 -2.5 -2t-1.5 -3zM562 -63q-2 -4 -2.5 -8
t-3.5 -8q-3 0 -6 1t-7 1q-2 0 -3 -1q3 -5 9 -6t11 -5q3 -5 3 -11q0 -7 -3 -13q-8 -7 -21 -7q-9 0 -18 3v2q0 5 1.5 8.5t2.5 8.5q4 -1 7.5 -2.5t7.5 -1.5h3q0 5 -5 6t-9 2q-3 5 -6.5 7.5t-3.5 8.5q0 10 10 14t18 4q7 0 15 -3zM184 -61h37v-1q1 -5 -1.5 -8.5t-1.5 -8.5
q-3 -1 -6 -0.5t-6 0.5q-4 0 -5 -2q2 -3 7.5 -2.5t8.5 0.5h3q-1 -5 -3 -8t-1 -9h-15v-20h-10q-7 0 -9 2l1 36q0 1 -4 3q2 5 2.5 9t2.5 9zM246 -61q0 -6 -0.5 -12t-0.5 -12q0 -10 4 -17h3q5 0 5 6v10v25h10q6 0 8 -2l1 -18q0 -13 -3.5 -26t-20.5 -13q-11 0 -21 9q-2 8 -2 14.5
v14.5q0 2 -2 2.5t-4 0.5q2 5 3 9t3 9h17zM301 -63q0 -9 -0.5 -18.5t0.5 -18.5q1 -2 4.5 -2h5.5h2q-2 -5 -3 -9t-3 -9h-24v38q0 2 -2 2t-4 1q2 4 3 8.5t3 9.5h10q6 0 8 -2zM335 -61q0 -10 -0.5 -19.5t0.5 -19.5q0 -2 3.5 -2h5.5h2v-2q1 -5 -1.5 -8t-2.5 -8q-4 0 -7.5 -0.5
t-7.5 -0.5q-7 0 -11 3l1 35q0 4 -4 4q2 5 2.5 9t2.5 9h17zM367 -61h18q2 -6 4.5 -11.5t3.5 -12.5q5 4 6 11.5t3 12.5h19q-3 -15 -8.5 -30t-10.5 -29h-15q-5 14 -10.5 29t-9.5 30zM424 -61h39q-2 -5 -3.5 -9t-1.5 -9q-2 -1 -5 -0.5t-5 0.5q-4 0 -5 -2q2 -3 7.5 -2.5t8.5 0.5
h3q-1 -4 -2 -7.5t-2 -7.5h-15q2 -3 7.5 -2t8.5 0h3v-1q0 -5 -2 -9.5t-4 -9.5h-32v39q0 2 -2 1.5t-3 0.5q2 4 3 8.5t2 9.5zM514 -84q0 -5 -1.5 -10t-6.5 -8q0 -5 4 -8t4 -9v-1q-3 -1 -8 -1q-6 0 -11.5 2t-5.5 10q-2 -1 -2 -3v-4q0 -4 -1 -4h-17v38q0 2 -2 2t-2 2q0 5 2 8.5
t4 8.5h8q14 1 24.5 -2.5t10.5 -20.5zM488 -89h2q6 0 5 6v2q-2 0 -3 1t-3 1h-1v-10zM586 -61v-59h-17l1 38q0 2 -2 2.5t-4 0.5q2 5 3 9t2 9h17zM614 -63q2 2 8 2q5 0 10 -2.5t10 -4.5q5 -8 9 -21q-2 -11 -8.5 -21t-19.5 -10q-14 0 -22.5 9.5t-8.5 23.5q0 9 7 16t15 8z
M629 -81q-4 2 -8 2t-7.5 -2.5t-3.5 -7.5q0 -13 14 -13h1q7 5 7 12q0 4 -3 9zM674 -61q3 -5 6 -9t5 -9q2 1 2 5.5v7.5q0 4 2 5h16v-59h-15q-4 5 -7.5 11.5t-6.5 12.5q-3 -3 -2.5 -9.5t0.5 -11.5v-3h-17v38q0 2 -2 2t-4 1q2 5 3 9t3 9h17zM752 -63q3 3 8 3t10 -3t10 -5
q3 -5 6 -11t3 -12q0 -13 -8.5 -20.5t-20.5 -7.5q-14 0 -22 8t-8 22q0 9 7 17t15 9zM760 -102q11 0 11 12q0 5 -4 8t-8 3t-3 -2q-8 -1 -8 -10q0 -11 12 -11zM811 -61q4 -5 7 -9t5 -9q2 1 1.5 5.5t-0.5 7.5t2 5h17v-59h-15q-2 6 -6.5 11t-6.5 11q-3 -2 -2 -8t1 -9l-1 -3
q-2 -2 -8 -2h-10v38q0 2 -2 2t-2 3q0 5 2 8t2 8h16zM508 -158l-2 -10t-3 -10h-15q2 -3 7.5 -2t7.5 0h3q0 -1 0.5 -1.5t0.5 -1.5q0 -3 -1.5 -6t-1.5 -6q-2 -1 -5 -0.5t-6 0.5q-4 0 -5 -2q2 -2 8 -1.5t9 0.5l3 -1q-2 -5 -2.5 -9t-2.5 -9h-34v36q0 2 -2 2.5t-2 2.5t2.5 8.5
t3.5 8.5l6 -1q7 0 13.5 1.5t13.5 1.5zM553 -158q-2 -11 -6 -20h-15q0 -5 6.5 -4t9.5 1q1 0 1.5 -0.5t1.5 -0.5q-1 -8 -6 -17h-13v-18h-18q-2 7 -1 13.5t1 14.5q0 5 -2 9t-2 6q3 2 3 6.5t3 8.5l6 -1q7 0 13 1.5t13 1.5zM715 -158q-2 -5 -3 -13t-10 -7v-39h-19v37q0 3 -3 2.5
t-5 -0.5h-1q0 5 1.5 9.5t1.5 9.5l6 -1q7 0 13.5 1.5t13.5 1.5zM737 -219h-6v2q-4 0 -9 1t-5 6q3 5 1 11l4 2q4 0 7.5 -2t7.5 -2l2 1q0 3 -4 4.5t-8.5 3.5t-8 5t-3.5 11q0 10 9 14t17 4q7 0 15 -3v-3q0 -4 -1.5 -5.5t-0.5 -6.5q-2 -2 -3 -2q-3 0 -5.5 1t-5.5 1q-4 0 -5 -2
q8 -2 16 -6.5t8 -14.5q0 -7 -7.5 -13.5t-14.5 -6.5zM813 -219h-5v2q-13 1 -20 9.5t-7 20.5q0 13 9.5 20.5t21.5 7.5q10 0 18 -6q-2 -5 -4 -8.5t-3 -8.5q-4 4 -12 4q-3 0 -6 -1t-5 -5v-9q0 -3 3.5 -4t5.5 -1q4 0 7 1t7 1q1 0 1 -1q1 -4 2.5 -6.5t3.5 -6.5q-2 -5 -7.5 -5.5
t-9.5 -3.5zM80 -159h19q1 -5 2 -10.5t1 -10.5l4 10t2 11h15q2 -5 2.5 -10.5t2.5 -10.5q4 4 3.5 10t2.5 11h37v-3q0 -5 1.5 -8t0.5 -8q5 2 5.5 8t2.5 11h14q0 -6 2.5 -11t1.5 -10q4 4 4 10t2 11h37q2 -5 2 -10.5t2 -10.5q2 5 3.5 10t1.5 11h15q2 -5 3 -10.5t3 -10.5q3 4 3 10
t2 11h17q-1 -15 -5 -29.5t-6 -28.5h-19v2q1 5 -1.5 9t-1.5 9q-4 -4 -5 -9.5t-1 -10.5h-19q-3 13 -5.5 25.5t-7.5 24.5q-8 -26 -11 -50h-18q-2 5 -3 9.5t-3 8.5q-4 -3 -3.5 -8.5t-2.5 -9.5h-18q-2 14 -5.5 26t-5.5 26q-6 -12 -7.5 -25.5t-5.5 -26.5h-19v2q1 5 -2 9t-2 9
q-3 -4 -4 -9.5t-1 -10.5h-19q-2 14 -6.5 28.5t-6.5 29.5zM337 -159v-19h9q3 2 2 7.5t0 8.5v3q3 -1 5.5 -0.5t5.5 0.5h4t4 -2v-56h-19v20h-9q-3 -2 -2.5 -8t0.5 -9v-3h-19v33q1 1 1 3t-2 2.5t-2 2.5q0 5 1.5 8.5t1.5 8.5h19zM369 -159h18l6 -12q2 2 2.5 5.5t2.5 6.5h19
q-2 -9 -5 -15l-6 -12t-4.5 -13t0.5 -18h-19q0 18 -1 25t-3 10.5t-4.5 7t-5.5 15.5zM439 -206v-11h-18v37q0 2 -2.5 2h-3.5q2 5 3 9.5t3 9.5h9q11 0 22 -4.5t11 -18.5q0 -11 -11 -22h-1q-4 0 -5.5 -1.5t-6.5 -0.5zM439 -187l2 -1q4 0 4 5t-4 5h-2v-9zM584 -219v2q-14 0 -21 9
t-7 23q0 11 9.5 18t20.5 7q13 0 21.5 -8t8.5 -21q0 -11 -10.5 -21.5t-21.5 -8.5zM592 -178q-2 0 -2.5 0.5t-2.5 0.5q-12 0 -12 -12q0 -4 4 -10q2 0 3 -0.5t3 -0.5q10 0 12 13q-1 2 -2.5 4.5t-2.5 4.5zM640 -159q1 -6 4.5 -10t5.5 -9q2 2 1.5 7.5t-0.5 8.5v3h19v-58h-17
l-6 12t-9 10v-22h-16v37q0 2 -2 2h-4q2 5 3 9.5t3 9.5h18zM860 -219v2q-11 0 -19 8.5t-8 19.5q0 13 7.5 21t21.5 8q11 0 20.5 -7.5t9.5 -19.5q0 -13 -9.5 -23t-22.5 -9zM860 -200q9 0 13 7v3q1 7 -3 10t-10 2h-4q-4 -4 -4 -10q0 -9 8 -12zM897 -159h19q2 -3 3.5 -6.5
t5.5 -5.5q3 2 5 5.5t4 6.5h19v-58h-19v26q0 1 -1 1q-2 0 -3.5 -3.5t-2.5 -5.5h-1q-5 0 -5.5 4.5t-4.5 5.5v-28h-19v36q0 2 -2 2.5t-2 2.5q0 4 2 8t2 9zM303 -219q-8 4 -8 11q0 9 10 9q9 0 9 -9q0 -11 -11 -11zM771 -219h-2q-4 0 -6 4.5t-2 6.5q0 10 10 10q4 0 5.5 -3t3.5 -5
v-3q0 -5 -3.5 -6.5t-5.5 -3.5z" />
    <glyph glyph-name="five" unicode="5" 
d="M988 435q0 -3 -0.5 -11t-1.5 -16.5t-2 -16.5t-1 -12q-2 -12 -5 -24l-6 -24q-22 -82 -68 -149.5t-109 -116t-140 -75.5t-162 -27q-106 0 -197.5 40.5t-158 110t-103.5 162.5t-34 198q2 1 2 4q2 63 19 120t50 111q11 19 28 42t37.5 45t42 40.5t41.5 28.5l1 4h4l2 3
q3 2 6.5 3t6.5 3q6 4 11.5 7.5t10.5 7.5q14 8 29.5 14t30.5 12q41 16 83.5 23.5t86.5 7.5q96 0 186.5 -35.5t159.5 -103.5q23 -23 44 -48.5t38 -54.5q5 -9 9 -19t9 -19q3 -6 6.5 -11t5.5 -11q8 -16 12.5 -32.5t9.5 -33.5q10 -39 13 -72.5t3 -74.5zM754 677
q-35 -3 -70.5 -2.5t-70.5 0.5h-27q-12 -36 -21.5 -72.5t-21.5 -72.5q6 -1 12 -0.5t12 0.5q9 0 14 -2v-324h145v159h110q8 33 18.5 65.5t18.5 66.5h-147q1 5 0.5 10.5t-0.5 10.5v6.5t2 5.5h123q9 40 21.5 79t22.5 79h-138q-5 -2 -3 -9zM134 670q-9 -35 -20 -70t-19 -70
q6 -1 12 -0.5t12 0.5h6.5t6.5 -2v-324h145v125v21.5t2 21.5q14 -1 28 -0.5t28 0.5h16.5t17.5 -2v-164q14 -2 28 -2h28q22 0 44 0.5t45 -0.5v471q-23 -1 -45 0t-44 1q-29 0 -56 -3v-152h-92q0 23 0.5 47t0.5 47q0 30 -3 60h-137q-2 0 -2.5 -2t-1.5 -3zM562 -63q-2 -4 -2.5 -8
t-3.5 -8q-3 0 -6 1t-7 1q-2 0 -3 -1q3 -5 9 -6t11 -5q3 -5 3 -11q0 -7 -3 -13q-8 -7 -21 -7q-9 0 -18 3v2q0 5 1.5 8.5t2.5 8.5q4 -1 7.5 -2.5t7.5 -1.5h3q0 5 -5 6t-9 2q-3 5 -6.5 7.5t-3.5 8.5q0 10 10 14t18 4q7 0 15 -3zM184 -61h37v-1q1 -5 -1.5 -8.5t-1.5 -8.5
q-3 -1 -6 -0.5t-6 0.5q-4 0 -5 -2q2 -3 7.5 -2.5t8.5 0.5h3q-1 -5 -3 -8t-1 -9h-15v-20h-10q-7 0 -9 2l1 36q0 1 -4 3q2 5 2.5 9t2.5 9zM246 -61q0 -6 -0.5 -12t-0.5 -12q0 -10 4 -17h3q5 0 5 6v10v25h10q6 0 8 -2l1 -18q0 -13 -3.5 -26t-20.5 -13q-11 0 -21 9q-2 8 -2 14.5
v14.5q0 2 -2 2.5t-4 0.5q2 5 3 9t3 9h17zM301 -63q0 -9 -0.5 -18.5t0.5 -18.5q1 -2 4.5 -2h5.5h2q-2 -5 -3 -9t-3 -9h-24v38q0 2 -2 2t-4 1q2 4 3 8.5t3 9.5h10q6 0 8 -2zM335 -61q0 -10 -0.5 -19.5t0.5 -19.5q0 -2 3.5 -2h5.5h2v-2q1 -5 -1.5 -8t-2.5 -8q-4 0 -7.5 -0.5
t-7.5 -0.5q-7 0 -11 3l1 35q0 4 -4 4q2 5 2.5 9t2.5 9h17zM367 -61h18q2 -6 4.5 -11.5t3.5 -12.5q5 4 6 11.5t3 12.5h19q-3 -15 -8.5 -30t-10.5 -29h-15q-5 14 -10.5 29t-9.5 30zM424 -61h39q-2 -5 -3.5 -9t-1.5 -9q-2 -1 -5 -0.5t-5 0.5q-4 0 -5 -2q2 -3 7.5 -2.5t8.5 0.5
h3q-1 -4 -2 -7.5t-2 -7.5h-15q2 -3 7.5 -2t8.5 0h3v-1q0 -5 -2 -9.5t-4 -9.5h-32v39q0 2 -2 1.5t-3 0.5q2 4 3 8.5t2 9.5zM514 -84q0 -5 -1.5 -10t-6.5 -8q0 -5 4 -8t4 -9v-1q-3 -1 -8 -1q-6 0 -11.5 2t-5.5 10q-2 -1 -2 -3v-4q0 -4 -1 -4h-17v38q0 2 -2 2t-2 2q0 5 2 8.5
t4 8.5h8q14 1 24.5 -2.5t10.5 -20.5zM488 -89h2q6 0 5 6v2q-2 0 -3 1t-3 1h-1v-10zM586 -61v-59h-17l1 38q0 2 -2 2.5t-4 0.5q2 5 3 9t2 9h17zM614 -63q2 2 8 2q5 0 10 -2.5t10 -4.5q5 -8 9 -21q-2 -11 -8.5 -21t-19.5 -10q-14 0 -22.5 9.5t-8.5 23.5q0 9 7 16t15 8z
M629 -81q-4 2 -8 2t-7.5 -2.5t-3.5 -7.5q0 -13 14 -13h1q7 5 7 12q0 4 -3 9zM674 -61q3 -5 6 -9t5 -9q2 1 2 5.5v7.5q0 4 2 5h16v-59h-15q-4 5 -7.5 11.5t-6.5 12.5q-3 -3 -2.5 -9.5t0.5 -11.5v-3h-17v38q0 2 -2 2t-4 1q2 5 3 9t3 9h17zM752 -63q3 3 8 3t10 -3t10 -5
q3 -5 6 -11t3 -12q0 -13 -8.5 -20.5t-20.5 -7.5q-14 0 -22 8t-8 22q0 9 7 17t15 9zM760 -102q11 0 11 12q0 5 -4 8t-8 3t-3 -2q-8 -1 -8 -10q0 -11 12 -11zM811 -61q4 -5 7 -9t5 -9q2 1 1.5 5.5t-0.5 7.5t2 5h17v-59h-15q-2 6 -6.5 11t-6.5 11q-3 -2 -2 -8t1 -9l-1 -3
q-2 -2 -8 -2h-10v38q0 2 -2 2t-2 3q0 5 2 8t2 8h16zM508 -158l-2 -10t-3 -10h-15q2 -3 7.5 -2t7.5 0h3q0 -1 0.5 -1.5t0.5 -1.5q0 -3 -1.5 -6t-1.5 -6q-2 -1 -5 -0.5t-6 0.5q-4 0 -5 -2q2 -2 8 -1.5t9 0.5l3 -1q-2 -5 -2.5 -9t-2.5 -9h-34v36q0 2 -2 2.5t-2 2.5t2.5 8.5
t3.5 8.5l6 -1q7 0 13.5 1.5t13.5 1.5zM553 -158q-2 -11 -6 -20h-15q0 -5 6.5 -4t9.5 1q1 0 1.5 -0.5t1.5 -0.5q-1 -8 -6 -17h-13v-18h-18q-2 7 -1 13.5t1 14.5q0 5 -2 9t-2 6q3 2 3 6.5t3 8.5l6 -1q7 0 13 1.5t13 1.5zM715 -158q-2 -5 -3 -13t-10 -7v-39h-19v37q0 3 -3 2.5
t-5 -0.5h-1q0 5 1.5 9.5t1.5 9.5l6 -1q7 0 13.5 1.5t13.5 1.5zM737 -219h-6v2q-4 0 -9 1t-5 6q3 5 1 11l4 2q4 0 7.5 -2t7.5 -2l2 1q0 3 -4 4.5t-8.5 3.5t-8 5t-3.5 11q0 10 9 14t17 4q7 0 15 -3v-3q0 -4 -1.5 -5.5t-0.5 -6.5q-2 -2 -3 -2q-3 0 -5.5 1t-5.5 1q-4 0 -5 -2
q8 -2 16 -6.5t8 -14.5q0 -7 -7.5 -13.5t-14.5 -6.5zM813 -219h-5v2q-13 1 -20 9.5t-7 20.5q0 13 9.5 20.5t21.5 7.5q10 0 18 -6q-2 -5 -4 -8.5t-3 -8.5q-4 4 -12 4q-3 0 -6 -1t-5 -5v-9q0 -3 3.5 -4t5.5 -1q4 0 7 1t7 1q1 0 1 -1q1 -4 2.5 -6.5t3.5 -6.5q-2 -5 -7.5 -5.5
t-9.5 -3.5zM80 -159h19q1 -5 2 -10.5t1 -10.5l4 10t2 11h15q2 -5 2.5 -10.5t2.5 -10.5q4 4 3.5 10t2.5 11h37v-3q0 -5 1.5 -8t0.5 -8q5 2 5.5 8t2.5 11h14q0 -6 2.5 -11t1.5 -10q4 4 4 10t2 11h37q2 -5 2 -10.5t2 -10.5q2 5 3.5 10t1.5 11h15q2 -5 3 -10.5t3 -10.5q3 4 3 10
t2 11h17q-1 -15 -5 -29.5t-6 -28.5h-19v2q1 5 -1.5 9t-1.5 9q-4 -4 -5 -9.5t-1 -10.5h-19q-3 13 -5.5 25.5t-7.5 24.5q-8 -26 -11 -50h-18q-2 5 -3 9.5t-3 8.5q-4 -3 -3.5 -8.5t-2.5 -9.5h-18q-2 14 -5.5 26t-5.5 26q-6 -12 -7.5 -25.5t-5.5 -26.5h-19v2q1 5 -2 9t-2 9
q-3 -4 -4 -9.5t-1 -10.5h-19q-2 14 -6.5 28.5t-6.5 29.5zM337 -159v-19h9q3 2 2 7.5t0 8.5v3q3 -1 5.5 -0.5t5.5 0.5h4t4 -2v-56h-19v20h-9q-3 -2 -2.5 -8t0.5 -9v-3h-19v33q1 1 1 3t-2 2.5t-2 2.5q0 5 1.5 8.5t1.5 8.5h19zM369 -159h18l6 -12q2 2 2.5 5.5t2.5 6.5h19
q-2 -9 -5 -15l-6 -12t-4.5 -13t0.5 -18h-19q0 18 -1 25t-3 10.5t-4.5 7t-5.5 15.5zM439 -206v-11h-18v37q0 2 -2.5 2h-3.5q2 5 3 9.5t3 9.5h9q11 0 22 -4.5t11 -18.5q0 -11 -11 -22h-1q-4 0 -5.5 -1.5t-6.5 -0.5zM439 -187l2 -1q4 0 4 5t-4 5h-2v-9zM584 -219v2q-14 0 -21 9
t-7 23q0 11 9.5 18t20.5 7q13 0 21.5 -8t8.5 -21q0 -11 -10.5 -21.5t-21.5 -8.5zM592 -178q-2 0 -2.5 0.5t-2.5 0.5q-12 0 -12 -12q0 -4 4 -10q2 0 3 -0.5t3 -0.5q10 0 12 13q-1 2 -2.5 4.5t-2.5 4.5zM640 -159q1 -6 4.5 -10t5.5 -9q2 2 1.5 7.5t-0.5 8.5v3h19v-58h-17
l-6 12t-9 10v-22h-16v37q0 2 -2 2h-4q2 5 3 9.5t3 9.5h18zM860 -219v2q-11 0 -19 8.5t-8 19.5q0 13 7.5 21t21.5 8q11 0 20.5 -7.5t9.5 -19.5q0 -13 -9.5 -23t-22.5 -9zM860 -200q9 0 13 7v3q1 7 -3 10t-10 2h-4q-4 -4 -4 -10q0 -9 8 -12zM897 -159h19q2 -3 3.5 -6.5
t5.5 -5.5q3 2 5 5.5t4 6.5h19v-58h-19v26q0 1 -1 1q-2 0 -3.5 -3.5t-2.5 -5.5h-1q-5 0 -5.5 4.5t-4.5 5.5v-28h-19v36q0 2 -2 2.5t-2 2.5q0 4 2 8t2 9zM303 -219q-8 4 -8 11q0 9 10 9q9 0 9 -9q0 -11 -11 -11zM771 -219h-2q-4 0 -6 4.5t-2 6.5q0 10 10 10q4 0 5.5 -3t3.5 -5
v-3q0 -5 -3.5 -6.5t-5.5 -3.5z" />
    <glyph glyph-name="six" unicode="6" 
d="M988 435q0 -3 -0.5 -11t-1.5 -16.5t-2 -16.5t-1 -12q-2 -12 -5 -24l-6 -24q-22 -82 -68 -149.5t-109 -116t-140 -75.5t-162 -27q-106 0 -197.5 40.5t-158 110t-103.5 162.5t-34 198q2 1 2 4q2 63 19 120t50 111q11 19 28 42t37.5 45t42 40.5t41.5 28.5l1 4h4l2 3
q3 2 6.5 3t6.5 3q6 4 11.5 7.5t10.5 7.5q14 8 29.5 14t30.5 12q41 16 83.5 23.5t86.5 7.5q96 0 186.5 -35.5t159.5 -103.5q23 -23 44 -48.5t38 -54.5q5 -9 9 -19t9 -19q3 -6 6.5 -11t5.5 -11q8 -16 12.5 -32.5t9.5 -33.5q10 -39 13 -72.5t3 -74.5zM754 677
q-35 -3 -70.5 -2.5t-70.5 0.5h-27q-12 -36 -21.5 -72.5t-21.5 -72.5q6 -1 12 -0.5t12 0.5q9 0 14 -2v-324h145v159h110q8 33 18.5 65.5t18.5 66.5h-147q1 5 0.5 10.5t-0.5 10.5v6.5t2 5.5h123q9 40 21.5 79t22.5 79h-138q-5 -2 -3 -9zM134 670q-9 -35 -20 -70t-19 -70
q6 -1 12 -0.5t12 0.5h6.5t6.5 -2v-324h145v125v21.5t2 21.5q14 -1 28 -0.5t28 0.5h16.5t17.5 -2v-164q14 -2 28 -2h28q22 0 44 0.5t45 -0.5v471q-23 -1 -45 0t-44 1q-29 0 -56 -3v-152h-92q0 23 0.5 47t0.5 47q0 30 -3 60h-137q-2 0 -2.5 -2t-1.5 -3zM562 -63q-2 -4 -2.5 -8
t-3.5 -8q-3 0 -6 1t-7 1q-2 0 -3 -1q3 -5 9 -6t11 -5q3 -5 3 -11q0 -7 -3 -13q-8 -7 -21 -7q-9 0 -18 3v2q0 5 1.5 8.5t2.5 8.5q4 -1 7.5 -2.5t7.5 -1.5h3q0 5 -5 6t-9 2q-3 5 -6.5 7.5t-3.5 8.5q0 10 10 14t18 4q7 0 15 -3zM184 -61h37v-1q1 -5 -1.5 -8.5t-1.5 -8.5
q-3 -1 -6 -0.5t-6 0.5q-4 0 -5 -2q2 -3 7.5 -2.5t8.5 0.5h3q-1 -5 -3 -8t-1 -9h-15v-20h-10q-7 0 -9 2l1 36q0 1 -4 3q2 5 2.5 9t2.5 9zM246 -61q0 -6 -0.5 -12t-0.5 -12q0 -10 4 -17h3q5 0 5 6v10v25h10q6 0 8 -2l1 -18q0 -13 -3.5 -26t-20.5 -13q-11 0 -21 9q-2 8 -2 14.5
v14.5q0 2 -2 2.5t-4 0.5q2 5 3 9t3 9h17zM301 -63q0 -9 -0.5 -18.5t0.5 -18.5q1 -2 4.5 -2h5.5h2q-2 -5 -3 -9t-3 -9h-24v38q0 2 -2 2t-4 1q2 4 3 8.5t3 9.5h10q6 0 8 -2zM335 -61q0 -10 -0.5 -19.5t0.5 -19.5q0 -2 3.5 -2h5.5h2v-2q1 -5 -1.5 -8t-2.5 -8q-4 0 -7.5 -0.5
t-7.5 -0.5q-7 0 -11 3l1 35q0 4 -4 4q2 5 2.5 9t2.5 9h17zM367 -61h18q2 -6 4.5 -11.5t3.5 -12.5q5 4 6 11.5t3 12.5h19q-3 -15 -8.5 -30t-10.5 -29h-15q-5 14 -10.5 29t-9.5 30zM424 -61h39q-2 -5 -3.5 -9t-1.5 -9q-2 -1 -5 -0.5t-5 0.5q-4 0 -5 -2q2 -3 7.5 -2.5t8.5 0.5
h3q-1 -4 -2 -7.5t-2 -7.5h-15q2 -3 7.5 -2t8.5 0h3v-1q0 -5 -2 -9.5t-4 -9.5h-32v39q0 2 -2 1.5t-3 0.5q2 4 3 8.5t2 9.5zM514 -84q0 -5 -1.5 -10t-6.5 -8q0 -5 4 -8t4 -9v-1q-3 -1 -8 -1q-6 0 -11.5 2t-5.5 10q-2 -1 -2 -3v-4q0 -4 -1 -4h-17v38q0 2 -2 2t-2 2q0 5 2 8.5
t4 8.5h8q14 1 24.5 -2.5t10.5 -20.5zM488 -89h2q6 0 5 6v2q-2 0 -3 1t-3 1h-1v-10zM586 -61v-59h-17l1 38q0 2 -2 2.5t-4 0.5q2 5 3 9t2 9h17zM614 -63q2 2 8 2q5 0 10 -2.5t10 -4.5q5 -8 9 -21q-2 -11 -8.5 -21t-19.5 -10q-14 0 -22.5 9.5t-8.5 23.5q0 9 7 16t15 8z
M629 -81q-4 2 -8 2t-7.5 -2.5t-3.5 -7.5q0 -13 14 -13h1q7 5 7 12q0 4 -3 9zM674 -61q3 -5 6 -9t5 -9q2 1 2 5.5v7.5q0 4 2 5h16v-59h-15q-4 5 -7.5 11.5t-6.5 12.5q-3 -3 -2.5 -9.5t0.5 -11.5v-3h-17v38q0 2 -2 2t-4 1q2 5 3 9t3 9h17zM752 -63q3 3 8 3t10 -3t10 -5
q3 -5 6 -11t3 -12q0 -13 -8.5 -20.5t-20.5 -7.5q-14 0 -22 8t-8 22q0 9 7 17t15 9zM760 -102q11 0 11 12q0 5 -4 8t-8 3t-3 -2q-8 -1 -8 -10q0 -11 12 -11zM811 -61q4 -5 7 -9t5 -9q2 1 1.5 5.5t-0.5 7.5t2 5h17v-59h-15q-2 6 -6.5 11t-6.5 11q-3 -2 -2 -8t1 -9l-1 -3
q-2 -2 -8 -2h-10v38q0 2 -2 2t-2 3q0 5 2 8t2 8h16zM508 -158l-2 -10t-3 -10h-15q2 -3 7.5 -2t7.5 0h3q0 -1 0.5 -1.5t0.5 -1.5q0 -3 -1.5 -6t-1.5 -6q-2 -1 -5 -0.5t-6 0.5q-4 0 -5 -2q2 -2 8 -1.5t9 0.5l3 -1q-2 -5 -2.5 -9t-2.5 -9h-34v36q0 2 -2 2.5t-2 2.5t2.5 8.5
t3.5 8.5l6 -1q7 0 13.5 1.5t13.5 1.5zM553 -158q-2 -11 -6 -20h-15q0 -5 6.5 -4t9.5 1q1 0 1.5 -0.5t1.5 -0.5q-1 -8 -6 -17h-13v-18h-18q-2 7 -1 13.5t1 14.5q0 5 -2 9t-2 6q3 2 3 6.5t3 8.5l6 -1q7 0 13 1.5t13 1.5zM715 -158q-2 -5 -3 -13t-10 -7v-39h-19v37q0 3 -3 2.5
t-5 -0.5h-1q0 5 1.5 9.5t1.5 9.5l6 -1q7 0 13.5 1.5t13.5 1.5zM737 -219h-6v2q-4 0 -9 1t-5 6q3 5 1 11l4 2q4 0 7.5 -2t7.5 -2l2 1q0 3 -4 4.5t-8.5 3.5t-8 5t-3.5 11q0 10 9 14t17 4q7 0 15 -3v-3q0 -4 -1.5 -5.5t-0.5 -6.5q-2 -2 -3 -2q-3 0 -5.5 1t-5.5 1q-4 0 -5 -2
q8 -2 16 -6.5t8 -14.5q0 -7 -7.5 -13.5t-14.5 -6.5zM813 -219h-5v2q-13 1 -20 9.5t-7 20.5q0 13 9.5 20.5t21.5 7.5q10 0 18 -6q-2 -5 -4 -8.5t-3 -8.5q-4 4 -12 4q-3 0 -6 -1t-5 -5v-9q0 -3 3.5 -4t5.5 -1q4 0 7 1t7 1q1 0 1 -1q1 -4 2.5 -6.5t3.5 -6.5q-2 -5 -7.5 -5.5
t-9.5 -3.5zM80 -159h19q1 -5 2 -10.5t1 -10.5l4 10t2 11h15q2 -5 2.5 -10.5t2.5 -10.5q4 4 3.5 10t2.5 11h37v-3q0 -5 1.5 -8t0.5 -8q5 2 5.5 8t2.5 11h14q0 -6 2.5 -11t1.5 -10q4 4 4 10t2 11h37q2 -5 2 -10.5t2 -10.5q2 5 3.5 10t1.5 11h15q2 -5 3 -10.5t3 -10.5q3 4 3 10
t2 11h17q-1 -15 -5 -29.5t-6 -28.5h-19v2q1 5 -1.5 9t-1.5 9q-4 -4 -5 -9.5t-1 -10.5h-19q-3 13 -5.5 25.5t-7.5 24.5q-8 -26 -11 -50h-18q-2 5 -3 9.5t-3 8.5q-4 -3 -3.5 -8.5t-2.5 -9.5h-18q-2 14 -5.5 26t-5.5 26q-6 -12 -7.5 -25.5t-5.5 -26.5h-19v2q1 5 -2 9t-2 9
q-3 -4 -4 -9.5t-1 -10.5h-19q-2 14 -6.5 28.5t-6.5 29.5zM337 -159v-19h9q3 2 2 7.5t0 8.5v3q3 -1 5.5 -0.5t5.5 0.5h4t4 -2v-56h-19v20h-9q-3 -2 -2.5 -8t0.5 -9v-3h-19v33q1 1 1 3t-2 2.5t-2 2.5q0 5 1.5 8.5t1.5 8.5h19zM369 -159h18l6 -12q2 2 2.5 5.5t2.5 6.5h19
q-2 -9 -5 -15l-6 -12t-4.5 -13t0.5 -18h-19q0 18 -1 25t-3 10.5t-4.5 7t-5.5 15.5zM439 -206v-11h-18v37q0 2 -2.5 2h-3.5q2 5 3 9.5t3 9.5h9q11 0 22 -4.5t11 -18.5q0 -11 -11 -22h-1q-4 0 -5.5 -1.5t-6.5 -0.5zM439 -187l2 -1q4 0 4 5t-4 5h-2v-9zM584 -219v2q-14 0 -21 9
t-7 23q0 11 9.5 18t20.5 7q13 0 21.5 -8t8.5 -21q0 -11 -10.5 -21.5t-21.5 -8.5zM592 -178q-2 0 -2.5 0.5t-2.5 0.5q-12 0 -12 -12q0 -4 4 -10q2 0 3 -0.5t3 -0.5q10 0 12 13q-1 2 -2.5 4.5t-2.5 4.5zM640 -159q1 -6 4.5 -10t5.5 -9q2 2 1.5 7.5t-0.5 8.5v3h19v-58h-17
l-6 12t-9 10v-22h-16v37q0 2 -2 2h-4q2 5 3 9.5t3 9.5h18zM860 -219v2q-11 0 -19 8.5t-8 19.5q0 13 7.5 21t21.5 8q11 0 20.5 -7.5t9.5 -19.5q0 -13 -9.5 -23t-22.5 -9zM860 -200q9 0 13 7v3q1 7 -3 10t-10 2h-4q-4 -4 -4 -10q0 -9 8 -12zM897 -159h19q2 -3 3.5 -6.5
t5.5 -5.5q3 2 5 5.5t4 6.5h19v-58h-19v26q0 1 -1 1q-2 0 -3.5 -3.5t-2.5 -5.5h-1q-5 0 -5.5 4.5t-4.5 5.5v-28h-19v36q0 2 -2 2.5t-2 2.5q0 4 2 8t2 9zM303 -219q-8 4 -8 11q0 9 10 9q9 0 9 -9q0 -11 -11 -11zM771 -219h-2q-4 0 -6 4.5t-2 6.5q0 10 10 10q4 0 5.5 -3t3.5 -5
v-3q0 -5 -3.5 -6.5t-5.5 -3.5z" />
    <glyph glyph-name="seven" unicode="7" 
d="M988 435q0 -3 -0.5 -11t-1.5 -16.5t-2 -16.5t-1 -12q-2 -12 -5 -24l-6 -24q-22 -82 -68 -149.5t-109 -116t-140 -75.5t-162 -27q-106 0 -197.5 40.5t-158 110t-103.5 162.5t-34 198q2 1 2 4q2 63 19 120t50 111q11 19 28 42t37.5 45t42 40.5t41.5 28.5l1 4h4l2 3
q3 2 6.5 3t6.5 3q6 4 11.5 7.5t10.5 7.5q14 8 29.5 14t30.5 12q41 16 83.5 23.5t86.5 7.5q96 0 186.5 -35.5t159.5 -103.5q23 -23 44 -48.5t38 -54.5q5 -9 9 -19t9 -19q3 -6 6.5 -11t5.5 -11q8 -16 12.5 -32.5t9.5 -33.5q10 -39 13 -72.5t3 -74.5zM754 677
q-35 -3 -70.5 -2.5t-70.5 0.5h-27q-12 -36 -21.5 -72.5t-21.5 -72.5q6 -1 12 -0.5t12 0.5q9 0 14 -2v-324h145v159h110q8 33 18.5 65.5t18.5 66.5h-147q1 5 0.5 10.5t-0.5 10.5v6.5t2 5.5h123q9 40 21.5 79t22.5 79h-138q-5 -2 -3 -9zM134 670q-9 -35 -20 -70t-19 -70
q6 -1 12 -0.5t12 0.5h6.5t6.5 -2v-324h145v125v21.5t2 21.5q14 -1 28 -0.5t28 0.5h16.5t17.5 -2v-164q14 -2 28 -2h28q22 0 44 0.5t45 -0.5v471q-23 -1 -45 0t-44 1q-29 0 -56 -3v-152h-92q0 23 0.5 47t0.5 47q0 30 -3 60h-137q-2 0 -2.5 -2t-1.5 -3zM562 -63q-2 -4 -2.5 -8
t-3.5 -8q-3 0 -6 1t-7 1q-2 0 -3 -1q3 -5 9 -6t11 -5q3 -5 3 -11q0 -7 -3 -13q-8 -7 -21 -7q-9 0 -18 3v2q0 5 1.5 8.5t2.5 8.5q4 -1 7.5 -2.5t7.5 -1.5h3q0 5 -5 6t-9 2q-3 5 -6.5 7.5t-3.5 8.5q0 10 10 14t18 4q7 0 15 -3zM184 -61h37v-1q1 -5 -1.5 -8.5t-1.5 -8.5
q-3 -1 -6 -0.5t-6 0.5q-4 0 -5 -2q2 -3 7.5 -2.5t8.5 0.5h3q-1 -5 -3 -8t-1 -9h-15v-20h-10q-7 0 -9 2l1 36q0 1 -4 3q2 5 2.5 9t2.5 9zM246 -61q0 -6 -0.5 -12t-0.5 -12q0 -10 4 -17h3q5 0 5 6v10v25h10q6 0 8 -2l1 -18q0 -13 -3.5 -26t-20.5 -13q-11 0 -21 9q-2 8 -2 14.5
v14.5q0 2 -2 2.5t-4 0.5q2 5 3 9t3 9h17zM301 -63q0 -9 -0.5 -18.5t0.5 -18.5q1 -2 4.5 -2h5.5h2q-2 -5 -3 -9t-3 -9h-24v38q0 2 -2 2t-4 1q2 4 3 8.5t3 9.5h10q6 0 8 -2zM335 -61q0 -10 -0.5 -19.5t0.5 -19.5q0 -2 3.5 -2h5.5h2v-2q1 -5 -1.5 -8t-2.5 -8q-4 0 -7.5 -0.5
t-7.5 -0.5q-7 0 -11 3l1 35q0 4 -4 4q2 5 2.5 9t2.5 9h17zM367 -61h18q2 -6 4.5 -11.5t3.5 -12.5q5 4 6 11.5t3 12.5h19q-3 -15 -8.5 -30t-10.5 -29h-15q-5 14 -10.5 29t-9.5 30zM424 -61h39q-2 -5 -3.5 -9t-1.5 -9q-2 -1 -5 -0.5t-5 0.5q-4 0 -5 -2q2 -3 7.5 -2.5t8.5 0.5
h3q-1 -4 -2 -7.5t-2 -7.5h-15q2 -3 7.5 -2t8.5 0h3v-1q0 -5 -2 -9.5t-4 -9.5h-32v39q0 2 -2 1.5t-3 0.5q2 4 3 8.5t2 9.5zM514 -84q0 -5 -1.5 -10t-6.5 -8q0 -5 4 -8t4 -9v-1q-3 -1 -8 -1q-6 0 -11.5 2t-5.5 10q-2 -1 -2 -3v-4q0 -4 -1 -4h-17v38q0 2 -2 2t-2 2q0 5 2 8.5
t4 8.5h8q14 1 24.5 -2.5t10.5 -20.5zM488 -89h2q6 0 5 6v2q-2 0 -3 1t-3 1h-1v-10zM586 -61v-59h-17l1 38q0 2 -2 2.5t-4 0.5q2 5 3 9t2 9h17zM614 -63q2 2 8 2q5 0 10 -2.5t10 -4.5q5 -8 9 -21q-2 -11 -8.5 -21t-19.5 -10q-14 0 -22.5 9.5t-8.5 23.5q0 9 7 16t15 8z
M629 -81q-4 2 -8 2t-7.5 -2.5t-3.5 -7.5q0 -13 14 -13h1q7 5 7 12q0 4 -3 9zM674 -61q3 -5 6 -9t5 -9q2 1 2 5.5v7.5q0 4 2 5h16v-59h-15q-4 5 -7.5 11.5t-6.5 12.5q-3 -3 -2.5 -9.5t0.5 -11.5v-3h-17v38q0 2 -2 2t-4 1q2 5 3 9t3 9h17zM752 -63q3 3 8 3t10 -3t10 -5
q3 -5 6 -11t3 -12q0 -13 -8.5 -20.5t-20.5 -7.5q-14 0 -22 8t-8 22q0 9 7 17t15 9zM760 -102q11 0 11 12q0 5 -4 8t-8 3t-3 -2q-8 -1 -8 -10q0 -11 12 -11zM811 -61q4 -5 7 -9t5 -9q2 1 1.5 5.5t-0.5 7.5t2 5h17v-59h-15q-2 6 -6.5 11t-6.5 11q-3 -2 -2 -8t1 -9l-1 -3
q-2 -2 -8 -2h-10v38q0 2 -2 2t-2 3q0 5 2 8t2 8h16zM508 -158l-2 -10t-3 -10h-15q2 -3 7.5 -2t7.5 0h3q0 -1 0.5 -1.5t0.5 -1.5q0 -3 -1.5 -6t-1.5 -6q-2 -1 -5 -0.5t-6 0.5q-4 0 -5 -2q2 -2 8 -1.5t9 0.5l3 -1q-2 -5 -2.5 -9t-2.5 -9h-34v36q0 2 -2 2.5t-2 2.5t2.5 8.5
t3.5 8.5l6 -1q7 0 13.5 1.5t13.5 1.5zM553 -158q-2 -11 -6 -20h-15q0 -5 6.5 -4t9.5 1q1 0 1.5 -0.5t1.5 -0.5q-1 -8 -6 -17h-13v-18h-18q-2 7 -1 13.5t1 14.5q0 5 -2 9t-2 6q3 2 3 6.5t3 8.5l6 -1q7 0 13 1.5t13 1.5zM715 -158q-2 -5 -3 -13t-10 -7v-39h-19v37q0 3 -3 2.5
t-5 -0.5h-1q0 5 1.5 9.5t1.5 9.5l6 -1q7 0 13.5 1.5t13.5 1.5zM737 -219h-6v2q-4 0 -9 1t-5 6q3 5 1 11l4 2q4 0 7.5 -2t7.5 -2l2 1q0 3 -4 4.5t-8.5 3.5t-8 5t-3.5 11q0 10 9 14t17 4q7 0 15 -3v-3q0 -4 -1.5 -5.5t-0.5 -6.5q-2 -2 -3 -2q-3 0 -5.5 1t-5.5 1q-4 0 -5 -2
q8 -2 16 -6.5t8 -14.5q0 -7 -7.5 -13.5t-14.5 -6.5zM813 -219h-5v2q-13 1 -20 9.5t-7 20.5q0 13 9.5 20.5t21.5 7.5q10 0 18 -6q-2 -5 -4 -8.5t-3 -8.5q-4 4 -12 4q-3 0 -6 -1t-5 -5v-9q0 -3 3.5 -4t5.5 -1q4 0 7 1t7 1q1 0 1 -1q1 -4 2.5 -6.5t3.5 -6.5q-2 -5 -7.5 -5.5
t-9.5 -3.5zM80 -159h19q1 -5 2 -10.5t1 -10.5l4 10t2 11h15q2 -5 2.5 -10.5t2.5 -10.5q4 4 3.5 10t2.5 11h37v-3q0 -5 1.5 -8t0.5 -8q5 2 5.5 8t2.5 11h14q0 -6 2.5 -11t1.5 -10q4 4 4 10t2 11h37q2 -5 2 -10.5t2 -10.5q2 5 3.5 10t1.5 11h15q2 -5 3 -10.5t3 -10.5q3 4 3 10
t2 11h17q-1 -15 -5 -29.5t-6 -28.5h-19v2q1 5 -1.5 9t-1.5 9q-4 -4 -5 -9.5t-1 -10.5h-19q-3 13 -5.5 25.5t-7.5 24.5q-8 -26 -11 -50h-18q-2 5 -3 9.5t-3 8.5q-4 -3 -3.5 -8.5t-2.5 -9.5h-18q-2 14 -5.5 26t-5.5 26q-6 -12 -7.5 -25.5t-5.5 -26.5h-19v2q1 5 -2 9t-2 9
q-3 -4 -4 -9.5t-1 -10.5h-19q-2 14 -6.5 28.5t-6.5 29.5zM337 -159v-19h9q3 2 2 7.5t0 8.5v3q3 -1 5.5 -0.5t5.5 0.5h4t4 -2v-56h-19v20h-9q-3 -2 -2.5 -8t0.5 -9v-3h-19v33q1 1 1 3t-2 2.5t-2 2.5q0 5 1.5 8.5t1.5 8.5h19zM369 -159h18l6 -12q2 2 2.5 5.5t2.5 6.5h19
q-2 -9 -5 -15l-6 -12t-4.5 -13t0.5 -18h-19q0 18 -1 25t-3 10.5t-4.5 7t-5.5 15.5zM439 -206v-11h-18v37q0 2 -2.5 2h-3.5q2 5 3 9.5t3 9.5h9q11 0 22 -4.5t11 -18.5q0 -11 -11 -22h-1q-4 0 -5.5 -1.5t-6.5 -0.5zM439 -187l2 -1q4 0 4 5t-4 5h-2v-9zM584 -219v2q-14 0 -21 9
t-7 23q0 11 9.5 18t20.5 7q13 0 21.5 -8t8.5 -21q0 -11 -10.5 -21.5t-21.5 -8.5zM592 -178q-2 0 -2.5 0.5t-2.5 0.5q-12 0 -12 -12q0 -4 4 -10q2 0 3 -0.5t3 -0.5q10 0 12 13q-1 2 -2.5 4.5t-2.5 4.5zM640 -159q1 -6 4.5 -10t5.5 -9q2 2 1.5 7.5t-0.5 8.5v3h19v-58h-17
l-6 12t-9 10v-22h-16v37q0 2 -2 2h-4q2 5 3 9.5t3 9.5h18zM860 -219v2q-11 0 -19 8.5t-8 19.5q0 13 7.5 21t21.5 8q11 0 20.5 -7.5t9.5 -19.5q0 -13 -9.5 -23t-22.5 -9zM860 -200q9 0 13 7v3q1 7 -3 10t-10 2h-4q-4 -4 -4 -10q0 -9 8 -12zM897 -159h19q2 -3 3.5 -6.5
t5.5 -5.5q3 2 5 5.5t4 6.5h19v-58h-19v26q0 1 -1 1q-2 0 -3.5 -3.5t-2.5 -5.5h-1q-5 0 -5.5 4.5t-4.5 5.5v-28h-19v36q0 2 -2 2.5t-2 2.5q0 4 2 8t2 9zM303 -219q-8 4 -8 11q0 9 10 9q9 0 9 -9q0 -11 -11 -11zM771 -219h-2q-4 0 -6 4.5t-2 6.5q0 10 10 10q4 0 5.5 -3t3.5 -5
v-3q0 -5 -3.5 -6.5t-5.5 -3.5z" />
    <glyph glyph-name="eight" unicode="8" 
d="M988 435q0 -3 -0.5 -11t-1.5 -16.5t-2 -16.5t-1 -12q-2 -12 -5 -24l-6 -24q-22 -82 -68 -149.5t-109 -116t-140 -75.5t-162 -27q-106 0 -197.5 40.5t-158 110t-103.5 162.5t-34 198q2 1 2 4q2 63 19 120t50 111q11 19 28 42t37.5 45t42 40.5t41.5 28.5l1 4h4l2 3
q3 2 6.5 3t6.5 3q6 4 11.5 7.5t10.5 7.5q14 8 29.5 14t30.5 12q41 16 83.5 23.5t86.5 7.5q96 0 186.5 -35.5t159.5 -103.5q23 -23 44 -48.5t38 -54.5q5 -9 9 -19t9 -19q3 -6 6.5 -11t5.5 -11q8 -16 12.5 -32.5t9.5 -33.5q10 -39 13 -72.5t3 -74.5zM754 677
q-35 -3 -70.5 -2.5t-70.5 0.5h-27q-12 -36 -21.5 -72.5t-21.5 -72.5q6 -1 12 -0.5t12 0.5q9 0 14 -2v-324h145v159h110q8 33 18.5 65.5t18.5 66.5h-147q1 5 0.5 10.5t-0.5 10.5v6.5t2 5.5h123q9 40 21.5 79t22.5 79h-138q-5 -2 -3 -9zM134 670q-9 -35 -20 -70t-19 -70
q6 -1 12 -0.5t12 0.5h6.5t6.5 -2v-324h145v125v21.5t2 21.5q14 -1 28 -0.5t28 0.5h16.5t17.5 -2v-164q14 -2 28 -2h28q22 0 44 0.5t45 -0.5v471q-23 -1 -45 0t-44 1q-29 0 -56 -3v-152h-92q0 23 0.5 47t0.5 47q0 30 -3 60h-137q-2 0 -2.5 -2t-1.5 -3zM562 -63q-2 -4 -2.5 -8
t-3.5 -8q-3 0 -6 1t-7 1q-2 0 -3 -1q3 -5 9 -6t11 -5q3 -5 3 -11q0 -7 -3 -13q-8 -7 -21 -7q-9 0 -18 3v2q0 5 1.5 8.5t2.5 8.5q4 -1 7.5 -2.5t7.5 -1.5h3q0 5 -5 6t-9 2q-3 5 -6.5 7.5t-3.5 8.5q0 10 10 14t18 4q7 0 15 -3zM184 -61h37v-1q1 -5 -1.5 -8.5t-1.5 -8.5
q-3 -1 -6 -0.5t-6 0.5q-4 0 -5 -2q2 -3 7.5 -2.5t8.5 0.5h3q-1 -5 -3 -8t-1 -9h-15v-20h-10q-7 0 -9 2l1 36q0 1 -4 3q2 5 2.5 9t2.5 9zM246 -61q0 -6 -0.5 -12t-0.5 -12q0 -10 4 -17h3q5 0 5 6v10v25h10q6 0 8 -2l1 -18q0 -13 -3.5 -26t-20.5 -13q-11 0 -21 9q-2 8 -2 14.5
v14.5q0 2 -2 2.5t-4 0.5q2 5 3 9t3 9h17zM301 -63q0 -9 -0.5 -18.5t0.5 -18.5q1 -2 4.5 -2h5.5h2q-2 -5 -3 -9t-3 -9h-24v38q0 2 -2 2t-4 1q2 4 3 8.5t3 9.5h10q6 0 8 -2zM335 -61q0 -10 -0.5 -19.5t0.5 -19.5q0 -2 3.5 -2h5.5h2v-2q1 -5 -1.5 -8t-2.5 -8q-4 0 -7.5 -0.5
t-7.5 -0.5q-7 0 -11 3l1 35q0 4 -4 4q2 5 2.5 9t2.5 9h17zM367 -61h18q2 -6 4.5 -11.5t3.5 -12.5q5 4 6 11.5t3 12.5h19q-3 -15 -8.5 -30t-10.5 -29h-15q-5 14 -10.5 29t-9.5 30zM424 -61h39q-2 -5 -3.5 -9t-1.5 -9q-2 -1 -5 -0.5t-5 0.5q-4 0 -5 -2q2 -3 7.5 -2.5t8.5 0.5
h3q-1 -4 -2 -7.5t-2 -7.5h-15q2 -3 7.5 -2t8.5 0h3v-1q0 -5 -2 -9.5t-4 -9.5h-32v39q0 2 -2 1.5t-3 0.5q2 4 3 8.5t2 9.5zM514 -84q0 -5 -1.5 -10t-6.5 -8q0 -5 4 -8t4 -9v-1q-3 -1 -8 -1q-6 0 -11.5 2t-5.5 10q-2 -1 -2 -3v-4q0 -4 -1 -4h-17v38q0 2 -2 2t-2 2q0 5 2 8.5
t4 8.5h8q14 1 24.5 -2.5t10.5 -20.5zM488 -89h2q6 0 5 6v2q-2 0 -3 1t-3 1h-1v-10zM586 -61v-59h-17l1 38q0 2 -2 2.5t-4 0.5q2 5 3 9t2 9h17zM614 -63q2 2 8 2q5 0 10 -2.5t10 -4.5q5 -8 9 -21q-2 -11 -8.5 -21t-19.5 -10q-14 0 -22.5 9.5t-8.5 23.5q0 9 7 16t15 8z
M629 -81q-4 2 -8 2t-7.5 -2.5t-3.5 -7.5q0 -13 14 -13h1q7 5 7 12q0 4 -3 9zM674 -61q3 -5 6 -9t5 -9q2 1 2 5.5v7.5q0 4 2 5h16v-59h-15q-4 5 -7.5 11.5t-6.5 12.5q-3 -3 -2.5 -9.5t0.5 -11.5v-3h-17v38q0 2 -2 2t-4 1q2 5 3 9t3 9h17zM752 -63q3 3 8 3t10 -3t10 -5
q3 -5 6 -11t3 -12q0 -13 -8.5 -20.5t-20.5 -7.5q-14 0 -22 8t-8 22q0 9 7 17t15 9zM760 -102q11 0 11 12q0 5 -4 8t-8 3t-3 -2q-8 -1 -8 -10q0 -11 12 -11zM811 -61q4 -5 7 -9t5 -9q2 1 1.5 5.5t-0.5 7.5t2 5h17v-59h-15q-2 6 -6.5 11t-6.5 11q-3 -2 -2 -8t1 -9l-1 -3
q-2 -2 -8 -2h-10v38q0 2 -2 2t-2 3q0 5 2 8t2 8h16zM508 -158l-2 -10t-3 -10h-15q2 -3 7.5 -2t7.5 0h3q0 -1 0.5 -1.5t0.5 -1.5q0 -3 -1.5 -6t-1.5 -6q-2 -1 -5 -0.5t-6 0.5q-4 0 -5 -2q2 -2 8 -1.5t9 0.5l3 -1q-2 -5 -2.5 -9t-2.5 -9h-34v36q0 2 -2 2.5t-2 2.5t2.5 8.5
t3.5 8.5l6 -1q7 0 13.5 1.5t13.5 1.5zM553 -158q-2 -11 -6 -20h-15q0 -5 6.5 -4t9.5 1q1 0 1.5 -0.5t1.5 -0.5q-1 -8 -6 -17h-13v-18h-18q-2 7 -1 13.5t1 14.5q0 5 -2 9t-2 6q3 2 3 6.5t3 8.5l6 -1q7 0 13 1.5t13 1.5zM715 -158q-2 -5 -3 -13t-10 -7v-39h-19v37q0 3 -3 2.5
t-5 -0.5h-1q0 5 1.5 9.5t1.5 9.5l6 -1q7 0 13.5 1.5t13.5 1.5zM737 -219h-6v2q-4 0 -9 1t-5 6q3 5 1 11l4 2q4 0 7.5 -2t7.5 -2l2 1q0 3 -4 4.5t-8.5 3.5t-8 5t-3.5 11q0 10 9 14t17 4q7 0 15 -3v-3q0 -4 -1.5 -5.5t-0.5 -6.5q-2 -2 -3 -2q-3 0 -5.5 1t-5.5 1q-4 0 -5 -2
q8 -2 16 -6.5t8 -14.5q0 -7 -7.5 -13.5t-14.5 -6.5zM813 -219h-5v2q-13 1 -20 9.5t-7 20.5q0 13 9.5 20.5t21.5 7.5q10 0 18 -6q-2 -5 -4 -8.5t-3 -8.5q-4 4 -12 4q-3 0 -6 -1t-5 -5v-9q0 -3 3.5 -4t5.5 -1q4 0 7 1t7 1q1 0 1 -1q1 -4 2.5 -6.5t3.5 -6.5q-2 -5 -7.5 -5.5
t-9.5 -3.5zM80 -159h19q1 -5 2 -10.5t1 -10.5l4 10t2 11h15q2 -5 2.5 -10.5t2.5 -10.5q4 4 3.5 10t2.5 11h37v-3q0 -5 1.5 -8t0.5 -8q5 2 5.5 8t2.5 11h14q0 -6 2.5 -11t1.5 -10q4 4 4 10t2 11h37q2 -5 2 -10.5t2 -10.5q2 5 3.5 10t1.5 11h15q2 -5 3 -10.5t3 -10.5q3 4 3 10
t2 11h17q-1 -15 -5 -29.5t-6 -28.5h-19v2q1 5 -1.5 9t-1.5 9q-4 -4 -5 -9.5t-1 -10.5h-19q-3 13 -5.5 25.5t-7.5 24.5q-8 -26 -11 -50h-18q-2 5 -3 9.5t-3 8.5q-4 -3 -3.5 -8.5t-2.5 -9.5h-18q-2 14 -5.5 26t-5.5 26q-6 -12 -7.5 -25.5t-5.5 -26.5h-19v2q1 5 -2 9t-2 9
q-3 -4 -4 -9.5t-1 -10.5h-19q-2 14 -6.5 28.5t-6.5 29.5zM337 -159v-19h9q3 2 2 7.5t0 8.5v3q3 -1 5.5 -0.5t5.5 0.5h4t4 -2v-56h-19v20h-9q-3 -2 -2.5 -8t0.5 -9v-3h-19v33q1 1 1 3t-2 2.5t-2 2.5q0 5 1.5 8.5t1.5 8.5h19zM369 -159h18l6 -12q2 2 2.5 5.5t2.5 6.5h19
q-2 -9 -5 -15l-6 -12t-4.5 -13t0.5 -18h-19q0 18 -1 25t-3 10.5t-4.5 7t-5.5 15.5zM439 -206v-11h-18v37q0 2 -2.5 2h-3.5q2 5 3 9.5t3 9.5h9q11 0 22 -4.5t11 -18.5q0 -11 -11 -22h-1q-4 0 -5.5 -1.5t-6.5 -0.5zM439 -187l2 -1q4 0 4 5t-4 5h-2v-9zM584 -219v2q-14 0 -21 9
t-7 23q0 11 9.5 18t20.5 7q13 0 21.5 -8t8.5 -21q0 -11 -10.5 -21.5t-21.5 -8.5zM592 -178q-2 0 -2.5 0.5t-2.5 0.5q-12 0 -12 -12q0 -4 4 -10q2 0 3 -0.5t3 -0.5q10 0 12 13q-1 2 -2.5 4.5t-2.5 4.5zM640 -159q1 -6 4.5 -10t5.5 -9q2 2 1.5 7.5t-0.5 8.5v3h19v-58h-17
l-6 12t-9 10v-22h-16v37q0 2 -2 2h-4q2 5 3 9.5t3 9.5h18zM860 -219v2q-11 0 -19 8.5t-8 19.5q0 13 7.5 21t21.5 8q11 0 20.5 -7.5t9.5 -19.5q0 -13 -9.5 -23t-22.5 -9zM860 -200q9 0 13 7v3q1 7 -3 10t-10 2h-4q-4 -4 -4 -10q0 -9 8 -12zM897 -159h19q2 -3 3.5 -6.5
t5.5 -5.5q3 2 5 5.5t4 6.5h19v-58h-19v26q0 1 -1 1q-2 0 -3.5 -3.5t-2.5 -5.5h-1q-5 0 -5.5 4.5t-4.5 5.5v-28h-19v36q0 2 -2 2.5t-2 2.5q0 4 2 8t2 9zM303 -219q-8 4 -8 11q0 9 10 9q9 0 9 -9q0 -11 -11 -11zM771 -219h-2q-4 0 -6 4.5t-2 6.5q0 10 10 10q4 0 5.5 -3t3.5 -5
v-3q0 -5 -3.5 -6.5t-5.5 -3.5z" />
    <glyph glyph-name="nine" unicode="9" 
d="M988 435q0 -3 -0.5 -11t-1.5 -16.5t-2 -16.5t-1 -12q-2 -12 -5 -24l-6 -24q-22 -82 -68 -149.5t-109 -116t-140 -75.5t-162 -27q-106 0 -197.5 40.5t-158 110t-103.5 162.5t-34 198q2 1 2 4q2 63 19 120t50 111q11 19 28 42t37.5 45t42 40.5t41.5 28.5l1 4h4l2 3
q3 2 6.5 3t6.5 3q6 4 11.5 7.5t10.5 7.5q14 8 29.5 14t30.5 12q41 16 83.5 23.5t86.5 7.5q96 0 186.5 -35.5t159.5 -103.5q23 -23 44 -48.5t38 -54.5q5 -9 9 -19t9 -19q3 -6 6.5 -11t5.5 -11q8 -16 12.5 -32.5t9.5 -33.5q10 -39 13 -72.5t3 -74.5zM754 677
q-35 -3 -70.5 -2.5t-70.5 0.5h-27q-12 -36 -21.5 -72.5t-21.5 -72.5q6 -1 12 -0.5t12 0.5q9 0 14 -2v-324h145v159h110q8 33 18.5 65.5t18.5 66.5h-147q1 5 0.5 10.5t-0.5 10.5v6.5t2 5.5h123q9 40 21.5 79t22.5 79h-138q-5 -2 -3 -9zM134 670q-9 -35 -20 -70t-19 -70
q6 -1 12 -0.5t12 0.5h6.5t6.5 -2v-324h145v125v21.5t2 21.5q14 -1 28 -0.5t28 0.5h16.5t17.5 -2v-164q14 -2 28 -2h28q22 0 44 0.5t45 -0.5v471q-23 -1 -45 0t-44 1q-29 0 -56 -3v-152h-92q0 23 0.5 47t0.5 47q0 30 -3 60h-137q-2 0 -2.5 -2t-1.5 -3zM562 -63q-2 -4 -2.5 -8
t-3.5 -8q-3 0 -6 1t-7 1q-2 0 -3 -1q3 -5 9 -6t11 -5q3 -5 3 -11q0 -7 -3 -13q-8 -7 -21 -7q-9 0 -18 3v2q0 5 1.5 8.5t2.5 8.5q4 -1 7.5 -2.5t7.5 -1.5h3q0 5 -5 6t-9 2q-3 5 -6.5 7.5t-3.5 8.5q0 10 10 14t18 4q7 0 15 -3zM184 -61h37v-1q1 -5 -1.5 -8.5t-1.5 -8.5
q-3 -1 -6 -0.5t-6 0.5q-4 0 -5 -2q2 -3 7.5 -2.5t8.5 0.5h3q-1 -5 -3 -8t-1 -9h-15v-20h-10q-7 0 -9 2l1 36q0 1 -4 3q2 5 2.5 9t2.5 9zM246 -61q0 -6 -0.5 -12t-0.5 -12q0 -10 4 -17h3q5 0 5 6v10v25h10q6 0 8 -2l1 -18q0 -13 -3.5 -26t-20.5 -13q-11 0 -21 9q-2 8 -2 14.5
v14.5q0 2 -2 2.5t-4 0.5q2 5 3 9t3 9h17zM301 -63q0 -9 -0.5 -18.5t0.5 -18.5q1 -2 4.5 -2h5.5h2q-2 -5 -3 -9t-3 -9h-24v38q0 2 -2 2t-4 1q2 4 3 8.5t3 9.5h10q6 0 8 -2zM335 -61q0 -10 -0.5 -19.5t0.5 -19.5q0 -2 3.5 -2h5.5h2v-2q1 -5 -1.5 -8t-2.5 -8q-4 0 -7.5 -0.5
t-7.5 -0.5q-7 0 -11 3l1 35q0 4 -4 4q2 5 2.5 9t2.5 9h17zM367 -61h18q2 -6 4.5 -11.5t3.5 -12.5q5 4 6 11.5t3 12.5h19q-3 -15 -8.5 -30t-10.5 -29h-15q-5 14 -10.5 29t-9.5 30zM424 -61h39q-2 -5 -3.5 -9t-1.5 -9q-2 -1 -5 -0.5t-5 0.5q-4 0 -5 -2q2 -3 7.5 -2.5t8.5 0.5
h3q-1 -4 -2 -7.5t-2 -7.5h-15q2 -3 7.5 -2t8.5 0h3v-1q0 -5 -2 -9.5t-4 -9.5h-32v39q0 2 -2 1.5t-3 0.5q2 4 3 8.5t2 9.5zM514 -84q0 -5 -1.5 -10t-6.5 -8q0 -5 4 -8t4 -9v-1q-3 -1 -8 -1q-6 0 -11.5 2t-5.5 10q-2 -1 -2 -3v-4q0 -4 -1 -4h-17v38q0 2 -2 2t-2 2q0 5 2 8.5
t4 8.5h8q14 1 24.5 -2.5t10.5 -20.5zM488 -89h2q6 0 5 6v2q-2 0 -3 1t-3 1h-1v-10zM586 -61v-59h-17l1 38q0 2 -2 2.5t-4 0.5q2 5 3 9t2 9h17zM614 -63q2 2 8 2q5 0 10 -2.5t10 -4.5q5 -8 9 -21q-2 -11 -8.5 -21t-19.5 -10q-14 0 -22.5 9.5t-8.5 23.5q0 9 7 16t15 8z
M629 -81q-4 2 -8 2t-7.5 -2.5t-3.5 -7.5q0 -13 14 -13h1q7 5 7 12q0 4 -3 9zM674 -61q3 -5 6 -9t5 -9q2 1 2 5.5v7.5q0 4 2 5h16v-59h-15q-4 5 -7.5 11.5t-6.5 12.5q-3 -3 -2.5 -9.5t0.5 -11.5v-3h-17v38q0 2 -2 2t-4 1q2 5 3 9t3 9h17zM752 -63q3 3 8 3t10 -3t10 -5
q3 -5 6 -11t3 -12q0 -13 -8.5 -20.5t-20.5 -7.5q-14 0 -22 8t-8 22q0 9 7 17t15 9zM760 -102q11 0 11 12q0 5 -4 8t-8 3t-3 -2q-8 -1 -8 -10q0 -11 12 -11zM811 -61q4 -5 7 -9t5 -9q2 1 1.5 5.5t-0.5 7.5t2 5h17v-59h-15q-2 6 -6.5 11t-6.5 11q-3 -2 -2 -8t1 -9l-1 -3
q-2 -2 -8 -2h-10v38q0 2 -2 2t-2 3q0 5 2 8t2 8h16zM508 -158l-2 -10t-3 -10h-15q2 -3 7.5 -2t7.5 0h3q0 -1 0.5 -1.5t0.5 -1.5q0 -3 -1.5 -6t-1.5 -6q-2 -1 -5 -0.5t-6 0.5q-4 0 -5 -2q2 -2 8 -1.5t9 0.5l3 -1q-2 -5 -2.5 -9t-2.5 -9h-34v36q0 2 -2 2.5t-2 2.5t2.5 8.5
t3.5 8.5l6 -1q7 0 13.5 1.5t13.5 1.5zM553 -158q-2 -11 -6 -20h-15q0 -5 6.5 -4t9.5 1q1 0 1.5 -0.5t1.5 -0.5q-1 -8 -6 -17h-13v-18h-18q-2 7 -1 13.5t1 14.5q0 5 -2 9t-2 6q3 2 3 6.5t3 8.5l6 -1q7 0 13 1.5t13 1.5zM715 -158q-2 -5 -3 -13t-10 -7v-39h-19v37q0 3 -3 2.5
t-5 -0.5h-1q0 5 1.5 9.5t1.5 9.5l6 -1q7 0 13.5 1.5t13.5 1.5zM737 -219h-6v2q-4 0 -9 1t-5 6q3 5 1 11l4 2q4 0 7.5 -2t7.5 -2l2 1q0 3 -4 4.5t-8.5 3.5t-8 5t-3.5 11q0 10 9 14t17 4q7 0 15 -3v-3q0 -4 -1.5 -5.5t-0.5 -6.5q-2 -2 -3 -2q-3 0 -5.5 1t-5.5 1q-4 0 -5 -2
q8 -2 16 -6.5t8 -14.5q0 -7 -7.5 -13.5t-14.5 -6.5zM813 -219h-5v2q-13 1 -20 9.5t-7 20.5q0 13 9.5 20.5t21.5 7.5q10 0 18 -6q-2 -5 -4 -8.5t-3 -8.5q-4 4 -12 4q-3 0 -6 -1t-5 -5v-9q0 -3 3.5 -4t5.5 -1q4 0 7 1t7 1q1 0 1 -1q1 -4 2.5 -6.5t3.5 -6.5q-2 -5 -7.5 -5.5
t-9.5 -3.5zM80 -159h19q1 -5 2 -10.5t1 -10.5l4 10t2 11h15q2 -5 2.5 -10.5t2.5 -10.5q4 4 3.5 10t2.5 11h37v-3q0 -5 1.5 -8t0.5 -8q5 2 5.5 8t2.5 11h14q0 -6 2.5 -11t1.5 -10q4 4 4 10t2 11h37q2 -5 2 -10.5t2 -10.5q2 5 3.5 10t1.5 11h15q2 -5 3 -10.5t3 -10.5q3 4 3 10
t2 11h17q-1 -15 -5 -29.5t-6 -28.5h-19v2q1 5 -1.5 9t-1.5 9q-4 -4 -5 -9.5t-1 -10.5h-19q-3 13 -5.5 25.5t-7.5 24.5q-8 -26 -11 -50h-18q-2 5 -3 9.5t-3 8.5q-4 -3 -3.5 -8.5t-2.5 -9.5h-18q-2 14 -5.5 26t-5.5 26q-6 -12 -7.5 -25.5t-5.5 -26.5h-19v2q1 5 -2 9t-2 9
q-3 -4 -4 -9.5t-1 -10.5h-19q-2 14 -6.5 28.5t-6.5 29.5zM337 -159v-19h9q3 2 2 7.5t0 8.5v3q3 -1 5.5 -0.5t5.5 0.5h4t4 -2v-56h-19v20h-9q-3 -2 -2.5 -8t0.5 -9v-3h-19v33q1 1 1 3t-2 2.5t-2 2.5q0 5 1.5 8.5t1.5 8.5h19zM369 -159h18l6 -12q2 2 2.5 5.5t2.5 6.5h19
q-2 -9 -5 -15l-6 -12t-4.5 -13t0.5 -18h-19q0 18 -1 25t-3 10.5t-4.5 7t-5.5 15.5zM439 -206v-11h-18v37q0 2 -2.5 2h-3.5q2 5 3 9.5t3 9.5h9q11 0 22 -4.5t11 -18.5q0 -11 -11 -22h-1q-4 0 -5.5 -1.5t-6.5 -0.5zM439 -187l2 -1q4 0 4 5t-4 5h-2v-9zM584 -219v2q-14 0 -21 9
t-7 23q0 11 9.5 18t20.5 7q13 0 21.5 -8t8.5 -21q0 -11 -10.5 -21.5t-21.5 -8.5zM592 -178q-2 0 -2.5 0.5t-2.5 0.5q-12 0 -12 -12q0 -4 4 -10q2 0 3 -0.5t3 -0.5q10 0 12 13q-1 2 -2.5 4.5t-2.5 4.5zM640 -159q1 -6 4.5 -10t5.5 -9q2 2 1.5 7.5t-0.5 8.5v3h19v-58h-17
l-6 12t-9 10v-22h-16v37q0 2 -2 2h-4q2 5 3 9.5t3 9.5h18zM860 -219v2q-11 0 -19 8.5t-8 19.5q0 13 7.5 21t21.5 8q11 0 20.5 -7.5t9.5 -19.5q0 -13 -9.5 -23t-22.5 -9zM860 -200q9 0 13 7v3q1 7 -3 10t-10 2h-4q-4 -4 -4 -10q0 -9 8 -12zM897 -159h19q2 -3 3.5 -6.5
t5.5 -5.5q3 2 5 5.5t4 6.5h19v-58h-19v26q0 1 -1 1q-2 0 -3.5 -3.5t-2.5 -5.5h-1q-5 0 -5.5 4.5t-4.5 5.5v-28h-19v36q0 2 -2 2.5t-2 2.5q0 4 2 8t2 9zM303 -219q-8 4 -8 11q0 9 10 9q9 0 9 -9q0 -11 -11 -11zM771 -219h-2q-4 0 -6 4.5t-2 6.5q0 10 10 10q4 0 5.5 -3t3.5 -5
v-3q0 -5 -3.5 -6.5t-5.5 -3.5z" />
    <glyph glyph-name="colon" unicode=":" horiz-adv-x="279" 
d="M136 57q13 0 21 -8.5t8 -19.5q0 -14 -8 -21.5t-21 -7.5q-12 0 -20 7.5t-8 21.5q0 11 8 19.5t20 8.5zM136 329q13 0 21 -8.5t8 -20.5q0 -13 -8 -20.5t-21 -7.5q-12 0 -20 7.5t-8 20.5q0 12 8 20.5t20 8.5z" />
    <glyph glyph-name="semicolon" unicode=";" horiz-adv-x="111" 
d="M86 55l-31 -128l-45 9l20 88zM55 329q13 0 20.5 -8.5t7.5 -20.5q0 -28 -28 -28t-28 28q0 12 7.5 20.5t20.5 8.5z" />
    <glyph glyph-name="less" unicode="&#x3c;" horiz-adv-x="553" 
d="M482 535l18 -39l-420 -195q104 -48 210.5 -98t209.5 -97l-18 -39l-505 234z" />
    <glyph glyph-name="equal" unicode="=" horiz-adv-x="337" 
d="M313 401v-44h-297v44h297zM313 260v-44h-297v44h297z" />
    <glyph glyph-name="greater" unicode="&#x3e;" horiz-adv-x="553" 
d="M564 301l-505 -234l-18 39l420 195q-104 48 -210.5 98t-209.5 97l18 39z" />
    <glyph glyph-name="question" unicode="?" horiz-adv-x="664" 
d="M311 20q0 14 8.5 21t19 7t19 -7t8.5 -21t-8.5 -21t-19 -7t-19 7t-8.5 21zM526 591q28 -32 41 -68.5t13 -73.5q0 -42 -15.5 -83t-44.5 -74t-69.5 -56t-89.5 -29v-130h-45v172h21q42 3 78.5 21.5t63 46t41.5 62t15 70.5q0 31 -11.5 61.5t-35.5 56.5q-29 32 -64 45.5
t-72 13.5q-38 0 -75 -14.5t-66.5 -41t-49 -62t-22.5 -77.5l-47 2q5 51 29 94.5t60 75t80.5 49.5t91.5 18t92 -18.5t81 -60.5z" />
    <glyph glyph-name="at" unicode="@" 
d="M988 435q0 -3 -0.5 -11t-1.5 -16.5t-2 -16.5t-1 -12q-2 -12 -5 -24l-6 -24q-22 -82 -68 -149.5t-109 -116t-140 -75.5t-162 -27q-106 0 -197.5 40.5t-158 110t-103.5 162.5t-34 198q2 1 2 4q2 63 19 120t50 111q11 19 28 42t37.5 45t42 40.5t41.5 28.5l1 4h4l2 3
q3 2 6.5 3t6.5 3q6 4 11.5 7.5t10.5 7.5q14 8 29.5 14t30.5 12q41 16 83.5 23.5t86.5 7.5q96 0 186.5 -35.5t159.5 -103.5q23 -23 44 -48.5t38 -54.5q5 -9 9 -19t9 -19q3 -6 6.5 -11t5.5 -11q8 -16 12.5 -32.5t9.5 -33.5q10 -39 13 -72.5t3 -74.5zM754 677
q-35 -3 -70.5 -2.5t-70.5 0.5h-27q-12 -36 -21.5 -72.5t-21.5 -72.5q6 -1 12 -0.5t12 0.5q9 0 14 -2v-324h145v159h110q8 33 18.5 65.5t18.5 66.5h-147q1 5 0.5 10.5t-0.5 10.5v6.5t2 5.5h123q9 40 21.5 79t22.5 79h-138q-5 -2 -3 -9zM134 670q-9 -35 -20 -70t-19 -70
q6 -1 12 -0.5t12 0.5h6.5t6.5 -2v-324h145v125v21.5t2 21.5q14 -1 28 -0.5t28 0.5h16.5t17.5 -2v-164q14 -2 28 -2h28q22 0 44 0.5t45 -0.5v471q-23 -1 -45 0t-44 1q-29 0 -56 -3v-152h-92q0 23 0.5 47t0.5 47q0 30 -3 60h-137q-2 0 -2.5 -2t-1.5 -3zM562 -63q-2 -4 -2.5 -8
t-3.5 -8q-3 0 -6 1t-7 1q-2 0 -3 -1q3 -5 9 -6t11 -5q3 -5 3 -11q0 -7 -3 -13q-8 -7 -21 -7q-9 0 -18 3v2q0 5 1.5 8.5t2.5 8.5q4 -1 7.5 -2.5t7.5 -1.5h3q0 5 -5 6t-9 2q-3 5 -6.5 7.5t-3.5 8.5q0 10 10 14t18 4q7 0 15 -3zM184 -61h37v-1q1 -5 -1.5 -8.5t-1.5 -8.5
q-3 -1 -6 -0.5t-6 0.5q-4 0 -5 -2q2 -3 7.5 -2.5t8.5 0.5h3q-1 -5 -3 -8t-1 -9h-15v-20h-10q-7 0 -9 2l1 36q0 1 -4 3q2 5 2.5 9t2.5 9zM246 -61q0 -6 -0.5 -12t-0.5 -12q0 -10 4 -17h3q5 0 5 6v10v25h10q6 0 8 -2l1 -18q0 -13 -3.5 -26t-20.5 -13q-11 0 -21 9q-2 8 -2 14.5
v14.5q0 2 -2 2.5t-4 0.5q2 5 3 9t3 9h17zM301 -63q0 -9 -0.5 -18.5t0.5 -18.5q1 -2 4.5 -2h5.5h2q-2 -5 -3 -9t-3 -9h-24v38q0 2 -2 2t-4 1q2 4 3 8.5t3 9.5h10q6 0 8 -2zM335 -61q0 -10 -0.5 -19.5t0.5 -19.5q0 -2 3.5 -2h5.5h2v-2q1 -5 -1.5 -8t-2.5 -8q-4 0 -7.5 -0.5
t-7.5 -0.5q-7 0 -11 3l1 35q0 4 -4 4q2 5 2.5 9t2.5 9h17zM367 -61h18q2 -6 4.5 -11.5t3.5 -12.5q5 4 6 11.5t3 12.5h19q-3 -15 -8.5 -30t-10.5 -29h-15q-5 14 -10.5 29t-9.5 30zM424 -61h39q-2 -5 -3.5 -9t-1.5 -9q-2 -1 -5 -0.5t-5 0.5q-4 0 -5 -2q2 -3 7.5 -2.5t8.5 0.5
h3q-1 -4 -2 -7.5t-2 -7.5h-15q2 -3 7.5 -2t8.5 0h3v-1q0 -5 -2 -9.5t-4 -9.5h-32v39q0 2 -2 1.5t-3 0.5q2 4 3 8.5t2 9.5zM514 -84q0 -5 -1.5 -10t-6.5 -8q0 -5 4 -8t4 -9v-1q-3 -1 -8 -1q-6 0 -11.5 2t-5.5 10q-2 -1 -2 -3v-4q0 -4 -1 -4h-17v38q0 2 -2 2t-2 2q0 5 2 8.5
t4 8.5h8q14 1 24.5 -2.5t10.5 -20.5zM488 -89h2q6 0 5 6v2q-2 0 -3 1t-3 1h-1v-10zM586 -61v-59h-17l1 38q0 2 -2 2.5t-4 0.5q2 5 3 9t2 9h17zM614 -63q2 2 8 2q5 0 10 -2.5t10 -4.5q5 -8 9 -21q-2 -11 -8.5 -21t-19.5 -10q-14 0 -22.5 9.5t-8.5 23.5q0 9 7 16t15 8z
M629 -81q-4 2 -8 2t-7.5 -2.5t-3.5 -7.5q0 -13 14 -13h1q7 5 7 12q0 4 -3 9zM674 -61q3 -5 6 -9t5 -9q2 1 2 5.5v7.5q0 4 2 5h16v-59h-15q-4 5 -7.5 11.5t-6.5 12.5q-3 -3 -2.5 -9.5t0.5 -11.5v-3h-17v38q0 2 -2 2t-4 1q2 5 3 9t3 9h17zM752 -63q3 3 8 3t10 -3t10 -5
q3 -5 6 -11t3 -12q0 -13 -8.5 -20.5t-20.5 -7.5q-14 0 -22 8t-8 22q0 9 7 17t15 9zM760 -102q11 0 11 12q0 5 -4 8t-8 3t-3 -2q-8 -1 -8 -10q0 -11 12 -11zM811 -61q4 -5 7 -9t5 -9q2 1 1.5 5.5t-0.5 7.5t2 5h17v-59h-15q-2 6 -6.5 11t-6.5 11q-3 -2 -2 -8t1 -9l-1 -3
q-2 -2 -8 -2h-10v38q0 2 -2 2t-2 3q0 5 2 8t2 8h16zM508 -158l-2 -10t-3 -10h-15q2 -3 7.5 -2t7.5 0h3q0 -1 0.5 -1.5t0.5 -1.5q0 -3 -1.5 -6t-1.5 -6q-2 -1 -5 -0.5t-6 0.5q-4 0 -5 -2q2 -2 8 -1.5t9 0.5l3 -1q-2 -5 -2.5 -9t-2.5 -9h-34v36q0 2 -2 2.5t-2 2.5t2.5 8.5
t3.5 8.5l6 -1q7 0 13.5 1.5t13.5 1.5zM553 -158q-2 -11 -6 -20h-15q0 -5 6.5 -4t9.5 1q1 0 1.5 -0.5t1.5 -0.5q-1 -8 -6 -17h-13v-18h-18q-2 7 -1 13.5t1 14.5q0 5 -2 9t-2 6q3 2 3 6.5t3 8.5l6 -1q7 0 13 1.5t13 1.5zM715 -158q-2 -5 -3 -13t-10 -7v-39h-19v37q0 3 -3 2.5
t-5 -0.5h-1q0 5 1.5 9.5t1.5 9.5l6 -1q7 0 13.5 1.5t13.5 1.5zM737 -219h-6v2q-4 0 -9 1t-5 6q3 5 1 11l4 2q4 0 7.5 -2t7.5 -2l2 1q0 3 -4 4.5t-8.5 3.5t-8 5t-3.5 11q0 10 9 14t17 4q7 0 15 -3v-3q0 -4 -1.5 -5.5t-0.5 -6.5q-2 -2 -3 -2q-3 0 -5.5 1t-5.5 1q-4 0 -5 -2
q8 -2 16 -6.5t8 -14.5q0 -7 -7.5 -13.5t-14.5 -6.5zM813 -219h-5v2q-13 1 -20 9.5t-7 20.5q0 13 9.5 20.5t21.5 7.5q10 0 18 -6q-2 -5 -4 -8.5t-3 -8.5q-4 4 -12 4q-3 0 -6 -1t-5 -5v-9q0 -3 3.5 -4t5.5 -1q4 0 7 1t7 1q1 0 1 -1q1 -4 2.5 -6.5t3.5 -6.5q-2 -5 -7.5 -5.5
t-9.5 -3.5zM80 -159h19q1 -5 2 -10.5t1 -10.5l4 10t2 11h15q2 -5 2.5 -10.5t2.5 -10.5q4 4 3.5 10t2.5 11h37v-3q0 -5 1.5 -8t0.5 -8q5 2 5.5 8t2.5 11h14q0 -6 2.5 -11t1.5 -10q4 4 4 10t2 11h37q2 -5 2 -10.5t2 -10.5q2 5 3.5 10t1.5 11h15q2 -5 3 -10.5t3 -10.5q3 4 3 10
t2 11h17q-1 -15 -5 -29.5t-6 -28.5h-19v2q1 5 -1.5 9t-1.5 9q-4 -4 -5 -9.5t-1 -10.5h-19q-3 13 -5.5 25.5t-7.5 24.5q-8 -26 -11 -50h-18q-2 5 -3 9.5t-3 8.5q-4 -3 -3.5 -8.5t-2.5 -9.5h-18q-2 14 -5.5 26t-5.5 26q-6 -12 -7.5 -25.5t-5.5 -26.5h-19v2q1 5 -2 9t-2 9
q-3 -4 -4 -9.5t-1 -10.5h-19q-2 14 -6.5 28.5t-6.5 29.5zM337 -159v-19h9q3 2 2 7.5t0 8.5v3q3 -1 5.5 -0.5t5.5 0.5h4t4 -2v-56h-19v20h-9q-3 -2 -2.5 -8t0.5 -9v-3h-19v33q1 1 1 3t-2 2.5t-2 2.5q0 5 1.5 8.5t1.5 8.5h19zM369 -159h18l6 -12q2 2 2.5 5.5t2.5 6.5h19
q-2 -9 -5 -15l-6 -12t-4.5 -13t0.5 -18h-19q0 18 -1 25t-3 10.5t-4.5 7t-5.5 15.5zM439 -206v-11h-18v37q0 2 -2.5 2h-3.5q2 5 3 9.5t3 9.5h9q11 0 22 -4.5t11 -18.5q0 -11 -11 -22h-1q-4 0 -5.5 -1.5t-6.5 -0.5zM439 -187l2 -1q4 0 4 5t-4 5h-2v-9zM584 -219v2q-14 0 -21 9
t-7 23q0 11 9.5 18t20.5 7q13 0 21.5 -8t8.5 -21q0 -11 -10.5 -21.5t-21.5 -8.5zM592 -178q-2 0 -2.5 0.5t-2.5 0.5q-12 0 -12 -12q0 -4 4 -10q2 0 3 -0.5t3 -0.5q10 0 12 13q-1 2 -2.5 4.5t-2.5 4.5zM640 -159q1 -6 4.5 -10t5.5 -9q2 2 1.5 7.5t-0.5 8.5v3h19v-58h-17
l-6 12t-9 10v-22h-16v37q0 2 -2 2h-4q2 5 3 9.5t3 9.5h18zM860 -219v2q-11 0 -19 8.5t-8 19.5q0 13 7.5 21t21.5 8q11 0 20.5 -7.5t9.5 -19.5q0 -13 -9.5 -23t-22.5 -9zM860 -200q9 0 13 7v3q1 7 -3 10t-10 2h-4q-4 -4 -4 -10q0 -9 8 -12zM897 -159h19q2 -3 3.5 -6.5
t5.5 -5.5q3 2 5 5.5t4 6.5h19v-58h-19v26q0 1 -1 1q-2 0 -3.5 -3.5t-2.5 -5.5h-1q-5 0 -5.5 4.5t-4.5 5.5v-28h-19v36q0 2 -2 2.5t-2 2.5q0 4 2 8t2 9zM303 -219q-8 4 -8 11q0 9 10 9q9 0 9 -9q0 -11 -11 -11zM771 -219h-2q-4 0 -6 4.5t-2 6.5q0 10 10 10q4 0 5.5 -3t3.5 -5
v-3q0 -5 -3.5 -6.5t-5.5 -3.5z" />
    <glyph glyph-name="A" unicode="A" horiz-adv-x="580" 
d="M385 297q-4 9 -8 21t-8 23q-11 28 -21 54.5t-20 53.5l-43 118l-103 -270h203zM285 671l271 -669q-11 -2 -20.5 -5.5t-20.5 -5.5l-113 268h-236l-55 -135q-14 -34 -28 -68.5t-27 -66.5q-5 1 -10.5 2t-11.5 3l-19 5z" />
    <glyph glyph-name="B" unicode="B" horiz-adv-x="565" 
d="M326 44q28 0 53 10.5t43.5 29.5t29 44t10.5 54q0 28 -10.5 53t-29 44t-43.5 30t-53 11h-214v-276h214zM318 659q36 0 66.5 -14t53 -37.5t35.5 -54t13 -63.5q0 -45 -21.5 -83.5t-59.5 -61.5q46 -23 73 -67t27 -96q0 -38 -14 -71t-38.5 -57.5t-57 -39t-69.5 -14.5h-258v659
h250zM442 491q0 26 -10 48.5t-26.5 39.5t-39.5 26.5t-48 9.5h-206v-251h206q25 0 48 10t39.5 27t26.5 40.5t10 49.5z" />
    <glyph glyph-name="C" unicode="C" horiz-adv-x="602" 
d="M608 80q-49 -41 -106 -63.5t-120 -22.5q-70 0 -131 27t-106.5 72.5t-71.5 107t-26 130.5q0 70 26 131t71.5 106.5t106.5 72t131 26.5q54 0 106.5 -18.5t101.5 -53.5l-35 -27q-38 27 -82 41.5t-91 14.5q-61 0 -114 -23t-92.5 -62.5t-62 -93t-22.5 -114.5
q0 -60 22.5 -113.5t62 -93t92.5 -63t114 -23.5q54 0 104 20.5t94 57.5z" />
    <glyph glyph-name="D" unicode="D" horiz-adv-x="652" 
d="M269 659q68 0 128 -26t104.5 -71t70.5 -105t26 -128t-26 -128t-70.5 -104.5t-104.5 -70.5t-128 -26h-200v659h200zM555 329q0 59 -22.5 111t-61.5 91t-91 61.5t-111 22.5h-156v-571h156q59 0 111 22.5t91 61t61.5 90.5t22.5 111z" />
    <glyph glyph-name="E" unicode="E" horiz-adv-x="471" 
d="M67 0v659h376v-44h-332v-205h224v-44h-224v-322h355v-44h-399z" />
    <glyph glyph-name="F" unicode="F" horiz-adv-x="436" 
d="M432 659v-44h-321v-208h252v-44h-252v-363h-44v659h365z" />
    <glyph glyph-name="G" unicode="G" horiz-adv-x="747" 
d="M709 404q0 -3 0.5 -12t0.5 -11q1 -8 1 -17v-17q0 -38 -6.5 -79t-19.5 -72q-21 -47 -54 -84t-73.5 -63.5t-86 -40.5t-92.5 -14q-68 0 -128.5 27t-105.5 73.5t-71.5 107.5t-26.5 129q0 69 27 130.5t72.5 107t106 72t126.5 26.5q35 0 70.5 -8t75.5 -25l-18 -43
q-35 17 -67 24.5t-60 7.5q-61 0 -113.5 -24.5t-91.5 -65t-61 -93t-22 -109.5q0 -62 23.5 -115.5t63.5 -93t91.5 -62t108.5 -22.5q40 0 79.5 12.5t74.5 35.5t63.5 55.5t46.5 73.5q11 29 18 64.5t7 67.5q0 3 -0.5 6t-0.5 6h-243v45h285z" />
    <glyph glyph-name="H" unicode="H" horiz-adv-x="660" 
d="M532 357h-420v-357h-44v659h44v-258h420v258h44v-659h-44v357z" />
    <glyph glyph-name="I" unicode="I" horiz-adv-x="212" 
d="M109 659v-659h-46v659h46z" />
    <glyph glyph-name="J" unicode="J" horiz-adv-x="329" 
d="M219 78q-19 -24 -45 -40t-55.5 -26t-61.5 -14t-64 -4v44q53 1 106 15.5t85 51.5q24 29 31.5 65.5t7.5 73.5v415h44v-415q0 -44 -9.5 -88t-39.5 -79z" />
    <glyph glyph-name="K" unicode="K" horiz-adv-x="553" 
d="M513 25l-36 -28l-350 322l-15 -15v-304h-44v659h44v-293l336 299l30 -31l-318 -284z" />
    <glyph glyph-name="L" unicode="L" horiz-adv-x="499" 
d="M493 44v-44h-425v659h44v-615h381z" />
    <glyph glyph-name="M" unicode="M" horiz-adv-x="724" 
d="M638 671v-671h-44v546q-58 -72 -120.5 -149.5t-119.5 -148.5l-241 300v-548h-44v671l285 -352z" />
    <glyph glyph-name="N" unicode="N" horiz-adv-x="647" 
d="M564 659v-700l-452 600v-559h-44v690l452 -600v569h44z" />
    <glyph glyph-name="O" unicode="O" horiz-adv-x="782" 
d="M383 665q69 0 130 -26.5t106.5 -72t72 -106.5t26.5 -131q0 -69 -26.5 -130.5t-72 -107t-106.5 -72t-130 -26.5q-70 0 -131 26.5t-106.5 72t-72 107t-26.5 130.5q0 70 26.5 131t72 106.5t106.5 72t131 26.5zM674 329q0 61 -23 114t-62.5 92.5t-92.5 62.5t-113 23
q-61 0 -114 -23t-92.5 -62.5t-62.5 -92.5t-23 -114q0 -60 23 -113.5t62.5 -93t92.5 -62.5t114 -23q60 0 113 23t92.5 62.5t62.5 93t23 113.5z" />
    <glyph glyph-name="P" unicode="P" horiz-adv-x="450" 
d="M111 615v-313h135q31 0 58 12.5t47.5 33.5t32.5 49.5t12 60.5q0 33 -12 61.5t-32.5 49.5t-48 33.5t-58.5 12.5h-134zM67 0v659h177q40 0 75.5 -16t62.5 -43t42.5 -63.5t15.5 -78.5t-15.5 -78.5t-41.5 -63.5t-61.5 -42.5t-75.5 -15.5h-135v-258h-44z" />
    <glyph glyph-name="Q" unicode="Q" horiz-adv-x="769" 
d="M706 329q0 -93 -47 -170.5t-132 -125.5q52 -29 94 -46t66 -17q3 0 8 2t13 6l19 -41q-11 -4 -21.5 -7t-18.5 -3q-35 0 -90 22.5t-121 60.5q-26 -9 -52.5 -13t-53.5 -4q-69 0 -130.5 26.5t-107 72t-72 107t-26.5 130.5q0 70 26.5 131t72 106.5t107 72t130.5 26.5
q70 0 131 -26.5t106.5 -72t72 -106.5t26.5 -131zM490 63q81 42 126.5 111.5t45.5 154.5q0 61 -23 114t-62.5 92.5t-92.5 62.5t-114 23t-114 -23t-92.5 -62.5t-62.5 -92.5t-23 -114q0 -32 6 -60t18 -57q5 1 10.5 1h15.5q19 0 47 -4t62 -13.5t71.5 -27t75.5 -44.5
q25 -18 48.5 -34t48.5 -31l4 2q3 0 5 2zM370 37q14 0 27 1.5t27 3.5q-16 11 -33.5 23.5t-33.5 24.5q-35 25 -68.5 40.5t-63.5 24t-55 11.5t-42 3h-3q40 -60 103.5 -96t141.5 -36z" />
    <glyph glyph-name="R" unicode="R" horiz-adv-x="559" 
d="M112 257v-257h-44v659h185q42 0 78.5 -17t63.5 -44.5t42 -63.5t15 -75q0 -62 -34 -113.5t-95 -73.5q24 -32 51 -67l54 -70t53.5 -69.5t50.5 -65.5h-56l-198 257h-166zM112 615v-314h141q33 0 61 12.5t49 34t33 50t12 60.5t-12 60.5t-33 50t-49 34t-61 12.5h-141z" />
    <glyph glyph-name="S" unicode="S" horiz-adv-x="604" 
d="M542 180q0 -45 -19.5 -80t-52.5 -59t-77.5 -36t-94.5 -12q-21 0 -46.5 3t-52 8t-53 12.5t-50.5 15.5l18 37l27 -6q12 -3 29 -7t36 -8t37.5 -6.5t33.5 -2.5h42q35 0 67 10t56.5 28.5t39 46t14.5 63.5q0 16 -7.5 34.5t-16.5 30.5q-15 20 -33.5 32t-38.5 18.5t-41 9t-43 4.5
q-35 2 -69.5 6.5t-67.5 24.5h1q-35 20 -58 57t-23 83q0 65 48 111.5t129 62.5q11 2 34 4t54 2q16 0 36.5 -3t42 -8t42 -11t37.5 -13l-17 -41q-24 9 -45 14.5t-40.5 9.5t-38.5 5.5t-41 1.5q-33 0 -67.5 -8t-63 -24.5t-47 -42t-18.5 -61.5q0 -24 15.5 -53t38.5 -44
q29 -18 58.5 -22.5t60.5 -6.5q35 -2 73.5 -9.5t72.5 -29.5q36 -23 57.5 -62t21.5 -79z" />
    <glyph glyph-name="T" unicode="T" horiz-adv-x="578" 
d="M566 659v-44h-260v-615h-44v615h-262v44h566z" />
    <glyph glyph-name="U" unicode="U" horiz-adv-x="663" 
d="M325 -7q-55 0 -103 20t-84 54.5t-57 81t-21 98.5v412h44v-412q0 -44 17 -82t47 -66.5t70.5 -45t86.5 -16.5q45 0 85 16.5t70 45t47 66.5t17 82v412h44v-412q0 -52 -21 -98.5t-56.5 -81t-83.5 -54.5t-102 -20z" />
    <glyph glyph-name="V" unicode="V" horiz-adv-x="623" 
d="M56 663l249 -580q12 27 28.5 66t36.5 85t41 95.5t42 97.5q48 112 101 236l39 -18l-288 -673l-290 674z" />
    <glyph glyph-name="W" unicode="W" horiz-adv-x="1029" 
d="M435 650l67 -158q14 32 26 59.5t21 49.5q11 25 20 47l39 -18l-82 -193q20 -47 38.5 -90.5t37 -86t37.5 -85.5t40 -91q11 27 28 66t36.5 84.5t40.5 95t42 97.5q48 112 102 236l39 -18l-288 -673l-177 410l-175 -410l-289 673l39 18l250 -580q12 30 29.5 71t38 88t42 97
t41.5 98l-83 196z" />
    <glyph glyph-name="X" unicode="X" horiz-adv-x="686" 
d="M624 638l-261 -307q64 -75 131 -155t130 -155l-35 -26l-253 302l-256 -305l-31 31l260 308q-63 74 -130 152.5t-130 152.5l30 30l257 -302l254 301z" />
    <glyph glyph-name="Y" unicode="Y" horiz-adv-x="542" 
d="M241 265l-241 387l40 19l224 -358l224 358l39 -19l-240 -387q0 -63 -0.5 -132.5t-0.5 -132.5h-44z" />
    <glyph glyph-name="Z" unicode="Z" horiz-adv-x="588" 
d="M533 44v-44h-541l437 615h-413v44h499l-438 -615h456z" />
    <glyph glyph-name="bracketleft" unicode="[" horiz-adv-x="259" 
d="M65 747h196v-44h-152v-757h152v-44h-196v845z" />
    <glyph glyph-name="backslash" unicode="\" horiz-adv-x="529" 
d="M35 731l497 -731h-49l-497 731h49z" />
    <glyph glyph-name="bracketright" unicode="]" horiz-adv-x="262" 
d="M189 -98h-196v44h152v757h-152v44h196v-845z" />
    <glyph glyph-name="underscore" unicode="_" horiz-adv-x="650" 
d="M567 -25h-499v44h499v-44z" />
    <glyph glyph-name="grave" unicode="`" horiz-adv-x="165" 
d="M164 659l-201 149l75 -2l107 -80z" />
    <glyph glyph-name="a" unicode="a" horiz-adv-x="478" 
d="M310 233l-77 198q-7 -18 -14.5 -37.5t-16 -43t-19.5 -52t-24 -65.5h151zM233 531q55 -129 109 -257.5t109 -264.5l-38 -10l-86 197h-184l-86 -199l-40 10z" />
    <glyph glyph-name="b" unicode="b" horiz-adv-x="480" 
d="M276 44q43 0 72 30t29 73q0 21 -8 40.5t-21.5 33.5t-32 22.5t-39.5 8.5h-166v-208h166zM269 526q29 0 54 -11.5t43 -30.5t28 -43.5t10 -51.5q0 -33 -16.5 -63t-42.5 -50q34 -19 54 -53.5t20 -75.5q0 -30 -11 -57t-30.5 -47t-45.5 -31.5t-56 -11.5h-209v526h202zM361 389
q0 20 -7 37t-19.5 30t-29.5 20t-36 7h-159v-188h159q19 0 36 7.5t29.5 20.5t19.5 30t7 36z" />
    <glyph glyph-name="c" unicode="c" horiz-adv-x="521" 
d="M489 69q-42 -35 -89 -54.5t-96 -19.5q-56 0 -105 21t-85.5 57.5t-57.5 85t-21 104.5t21 105t57.5 86t85.5 58t105 21q40 0 83.5 -16t86.5 -45l-35 -27q-65 44 -135 44q-47 0 -88 -17.5t-72 -48.5t-48.5 -72t-17.5 -88t17.5 -87.5t48.5 -71t72 -48t88 -17.5q40 0 80 16
t75 45z" />
    <glyph glyph-name="d" unicode="d" horiz-adv-x="548" 
d="M229 526q55 0 103 -20.5t83.5 -56.5t56 -84t20.5 -103q0 -54 -20.5 -102t-56 -83.5t-83.5 -56t-103 -20.5h-161v526h161zM450 262q0 46 -17.5 86t-47.5 70t-70 47.5t-86 17.5h-119v-439h119q46 0 86 17t70 46.5t47.5 69.5t17.5 85z" />
    <glyph glyph-name="e" unicode="e" horiz-adv-x="394" 
d="M67 0v526h304v-43h-260v-152h175v-43h-175v-244h278v-44h-322z" />
    <glyph glyph-name="f" unicode="f" horiz-adv-x="366" 
d="M362 483h-253v-154h200v-43h-200v-286h-42v526h295v-43z" />
    <glyph glyph-name="g" unicode="g" horiz-adv-x="615" 
d="M575 326q0 -10 0.5 -25.5t0.5 -24.5q0 -30 -4.5 -63t-15.5 -56q-17 -36 -43.5 -65.5t-59 -51t-68.5 -33.5t-73 -12q-54 0 -102.5 21.5t-84.5 58.5t-57 86t-21 103q0 55 21.5 104t58 86t84.5 58t101 21q26 0 54.5 -6.5t62.5 -20.5l-11 -45q-31 16 -57.5 22t-47.5 6
q-47 0 -87.5 -19t-70.5 -50t-47 -72t-17 -84q0 -48 18 -89t49 -71.5t70.5 -47.5t83.5 -17q31 0 61.5 9.5t57.5 27.5t48.5 43t36.5 56v-1q8 22 13 48.5t5 53.5v6h-191v44h232z" />
    <glyph glyph-name="h" unicode="h" horiz-adv-x="560" 
d="M432 280h-321v-280h-44v526h44v-202h321v202h44v-526h-44v280z" />
    <glyph glyph-name="i" unicode="i" horiz-adv-x="212" 
d="M107 526v-526h-44v526h44z" />
    <glyph glyph-name="j" unicode="j" horiz-adv-x="280" 
d="M179 63q-32 -38 -81.5 -53t-103.5 -15v43q42 1 84 12t67 40q19 20 24 48.5t5 57.5v330h44v-330q0 -35 -8 -71t-32 -63z" />
    <glyph glyph-name="k" unicode="k" horiz-adv-x="470" 
d="M429 24l-35 -28l-275 253l-9 -9v-240h-42v526h42v-225l260 231l31 -31l-249 -222z" />
    <glyph glyph-name="l" unicode="l" horiz-adv-x="417" 
d="M411 44v-44h-344v526h43v-482h301z" />
    <glyph glyph-name="m" unicode="m" horiz-adv-x="611" 
d="M525 533v-533h-44v414l-73 -93l-111 -138l-186 232v-415h-42v535l228 -284z" />
    <glyph glyph-name="n" unicode="n" horiz-adv-x="549" 
d="M465 519v-524l-355 427v-422h-43v536l355 -427v410h43z" />
    <glyph glyph-name="o" unicode="o" horiz-adv-x="678" 
d="M316 531q56 0 105 -21t85 -57.5t57 -85.5t21 -105t-21 -104.5t-57 -85t-85 -57.5t-105 -21t-104.5 21t-85 57.5t-57.5 85t-21 104.5t21 105t57.5 85.5t85 57.5t104.5 21zM541 262q0 47 -17.5 88t-48.5 71.5t-72 48t-87 17.5q-47 0 -88 -17.5t-71.5 -48t-48 -71.5
t-17.5 -88t17.5 -87.5t48 -71t71.5 -48t88 -17.5q46 0 87 17.5t72 48t48.5 71t17.5 87.5z" />
    <glyph glyph-name="p" unicode="p" horiz-adv-x="419" 
d="M110 483v-237h130q24 0 44.5 9.5t36 25t24.5 37t9 45.5q0 25 -9 47t-24.5 38t-36.5 25.5t-45 9.5h-129zM67 0v526h172q33 0 61.5 -12.5t50 -34.5t34 -52t12.5 -64q0 -33 -12.5 -62.5t-33.5 -51t-49.5 -34t-61.5 -12.5h-130v-203h-43z" />
    <glyph glyph-name="q" unicode="q" horiz-adv-x="615" 
d="M562 262q0 -72 -35.5 -132.5t-100.5 -99.5q38 -20 68 -32.5t49 -12.5q2 0 6.5 2.5t11.5 6.5l6 -39q-1 0 -3 -5t-4 -5q-8 -3 -17 -3q-29 0 -71.5 17t-94.5 48q-19 -7 -40 -10t-43 -3q-56 0 -104.5 21t-85 57.5t-57.5 85t-21 104.5t21 105t57.5 85.5t85 57.5t104.5 21
t105 -21t85 -57.5t57 -85.5t21 -105zM386 57q63 32 97.5 86.5t34.5 118.5q0 47 -17.5 88t-47.5 71.5t-71 48t-88 17.5t-87.5 -17.5t-71.5 -48t-48.5 -71.5t-17.5 -88q0 -21 5 -43.5t13 -42.5h17q15 0 37.5 -3.5t49.5 -11.5t56.5 -22t59.5 -35h-1q20 -14 38 -25t38 -24z
M294 38q8 0 16 0.5t15 1.5q-11 6 -21.5 14.5t-21.5 16.5q-24 16 -49 27t-47.5 18.5t-42 11.5t-32.5 5q30 -42 78 -68.5t105 -26.5zM382 54h1l2 1z" />
    <glyph glyph-name="r" unicode="r" horiz-adv-x="474" 
d="M110 202v-202h-42v526h149q35 0 64.5 -13.5t51 -36t33.5 -52t12 -60.5q0 -49 -25.5 -89.5t-72.5 -58.5l55 -70q12 -15 26.5 -34.5t29.5 -39t29.5 -38.5t25.5 -34h-55l-156 202h-125zM110 483v-238h107q25 0 47 9.5t38 25.5t25 37.5t9 45.5q0 25 -9 47t-25 38t-38 25.5
t-47 9.5h-107z" />
    <glyph glyph-name="s" unicode="s" horiz-adv-x="416" 
d="M375 145q0 -36 -15.5 -64t-42 -47t-62 -29t-75.5 -10q-17 0 -37 2.5t-42 7t-43 10t-39 11.5l11 36q34 -8 71.5 -16t62.5 -8h33q27 0 52 7t43.5 21.5t29.5 35.5t11 48q0 14 -5.5 28t-12.5 23q-10 13 -24.5 22t-31 14t-33.5 8t-32 4q-27 1 -55 6.5t-54 19.5
q-28 17 -47 47.5t-19 65.5q0 53 39 90.5t104 50.5q10 2 28.5 4t41.5 2q12 0 28 -2.5t33.5 -7t34.5 -10t30 -10.5q-2 -9 -5.5 -18.5t-5.5 -18.5q-39 13 -69.5 19t-64.5 6q-26 0 -53 -6t-49.5 -19t-37 -33t-14.5 -48q0 -17 12 -39t31 -35q19 -12 38 -15t39 -5h7q3 0 5.5 -0.5
t4.5 -0.5q26 -2 56 -8.5t60 -25.5q27 -19 45 -50t18 -63z" />
    <glyph glyph-name="t" unicode="t" horiz-adv-x="467" 
d="M454 526v-43h-204v-483h-44v483h-205v43h453z" />
    <glyph glyph-name="u" unicode="u" horiz-adv-x="559" 
d="M273 -6q-44 0 -82.5 16t-67.5 44t-46 65t-17 79v328h42v-328q0 -33 13.5 -62.5t36.5 -51t54.5 -34t66.5 -12.5q34 0 64.5 12.5t53.5 34t36 51t13 62.5v328h44v-328q0 -42 -17 -79t-45.5 -65t-67 -44t-81.5 -16z" />
    <glyph glyph-name="v" unicode="v" horiz-adv-x="510" 
d="M56 527l192 -426q10 24 23.5 54.5t29 65t32 70.5t31.5 70q36 79 76 165l43 -9l-235 -526l-233 524z" />
    <glyph glyph-name="w" unicode="w" horiz-adv-x="840" 
d="M350 517l49 -116q11 26 19.5 46.5t15.5 36.5q8 18 14 33l42 -12l-66 -158q17 -42 35 -84.5t37 -84.5l42 -97q10 24 23.5 56t29 67.5t32 73.5t31.5 74q36 84 76 175l42 -11l-234 -543l-138 320l-49 -113l-89 -208l-235 544l42 11l193 -448q30 70 57 134t57 135
q-2 5 -3.5 9.5t-3.5 9.5v-1q-14 31 -30.5 70t-29.5 69z" />
    <glyph glyph-name="x" unicode="x" horiz-adv-x="575" 
d="M511 503l-204 -238q49 -60 102.5 -122.5t101.5 -120.5l-30 -30l-201 237q-47 -57 -100.5 -119.5t-99.5 -118.5l-31 31l203 243q-49 58 -102 119.5t-101 118.5l30 30l200 -237l201 236z" />
    <glyph glyph-name="y" unicode="y" horiz-adv-x="407" 
d="M176 213l-173 304l38 18l157 -276l157 276l38 -18l-175 -304v-213h-43z" />
    <glyph glyph-name="z" unicode="z" horiz-adv-x="444" 
d="M430 43v-43h-437l345 484h-323v42h406l-346 -483h355z" />
    <glyph glyph-name="braceleft" unicode="{" horiz-adv-x="199" 
d="M185 719q-31 -19 -48.5 -45t-27 -56.5t-13 -64.5t-5.5 -68q-4 -47 -10 -96t-26 -90q20 -41 26.5 -90t10.5 -96q2 -35 5.5 -69t14 -65t29.5 -58.5t53 -48.5l-26 -40q-38 25 -60 57t-34 67t-16.5 71.5t-7.5 71.5q0 3 -0.5 6.5t-0.5 6.5q-2 22 -4.5 46t-7.5 48t-13.5 47.5
t-22.5 45.5q14 23 22.5 48t14 51t8 51.5t4.5 49.5q3 36 8 72.5t17 72t34 67t59 56.5l19 -34z" />
    <glyph glyph-name="bar" unicode="|" horiz-adv-x="212" 
d="M107 731v-861h-44v861h44z" />
    <glyph glyph-name="braceright" unicode="}" horiz-adv-x="200" 
d="M29 768q37 -26 59 -58t34 -67t17 -71.5t8 -72.5q0 -4 0.5 -6.5t0.5 -6.5q4 -45 12 -94t36 -93q-30 -47 -37.5 -99t-11.5 -101q-3 -35 -8 -72t-17 -72.5t-34 -67t-59 -55.5l-26 40q34 22 53 49.5t29 58.5t13.5 64.5t6.5 68.5q3 47 9.5 96t26.5 90q-20 41 -26 90.5t-9 95.5
q-3 34 -6.5 67.5t-13.5 64.5t-29 58t-52 48z" />
    <glyph glyph-name="DEL" horiz-adv-x="0" 
 />
    <glyph glyph-name="uni00A0" unicode="&#xa0;" horiz-adv-x="0" 
 />
    <glyph glyph-name="exclamdown" unicode="&#xa1;" horiz-adv-x="163" 
d="M44 339.003q10 0 17 7t7 17.999q0 13.999 -7 19.999q-7 5.99902 -17 5.99902q-26 0 -26 -25.998q0 -24.999 26 -24.999zM66 305.006h-44v-568.966h44v568.966z" />
    <glyph glyph-name="cent" unicode="&#xa2;" horiz-adv-x="508" 
d="M488 135q-42 -35 -89 -52.5t-95 -17.5q-37 0 -75 11q-5 -18 -10.5 -39t-10.5 -37h-46l27 91q-36 16 -64.5 42t-48 57.5t-30 68.5t-10.5 76q0 8 0.5 15.5t0.5 15.5q7 51 30.5 94t59 74.5t80.5 49.5t95 18h23l17 57h47l-20 -65q30 -7 57.5 -21.5t56.5 -37.5l-28 -37
q-24 20 -49 32.5t-49 19.5q-29 -110 -57.5 -215t-58.5 -216q31 -9 62 -9q40 0 80.5 16.5t77.5 47.5zM313 556q-43 1 -82 -13.5t-70 -41.5t-52 -63.5t-27 -78.5q-3 -34 4 -66.5t22 -62t38 -53.5t53 -40z" />
    <glyph glyph-name="sterling" unicode="&#xa3;" horiz-adv-x="626" 
d="M597 69q-46 -37 -87 -55t-82 -18q-32 0 -65.5 9.5t-70.5 27.5q-29 14 -59 25t-61 11q-38 0 -65.5 -14.5t-62.5 -42.5l-29 30q28 31 62 47t66 22q11 32 17.5 63t6.5 67q0 21 -3 44v1l-2 17h-84v44h76q-5 29 -9.5 60t-4.5 63q0 42 16 77.5t43.5 60.5t64 39t77.5 14
q60 0 105.5 -33.5t80.5 -83.5l-38 -27q-26 48 -68.5 74t-87.5 26q-35 0 -62.5 -13t-46.5 -35t-29 -51.5t-10 -62.5q0 -19 3.5 -43t10.5 -65h212v-44h-203q3 -16 4 -33.5t1 -34.5q0 -32 -5.5 -63.5t-16.5 -60.5q32 -6 62.5 -17.5t56.5 -22.5q35 -14 63 -22.5t52 -8.5
q32 0 65 15.5t78 47.5z" />
    <glyph glyph-name="currency" unicode="&#xa4;" horiz-adv-x="460" 
d="M215 1v63h-50v-63h-44v63h-59v533h59v62h44v-62h50v62h44v-62h7q28 0 53 -11.5t43.5 -31t29 -44.5t10.5 -52q0 -35 -15 -66t-43 -51q34 -19 54 -53t20 -76q0 -30 -11.5 -57t-31.5 -47.5t-46.5 -32t-57.5 -11.5h-12v-63h-44zM271 108q22 0 41 8t33 22.5t22 33.5t8 40
q0 45 -29.5 76t-74.5 31h-166v-211h166zM358 458q0 20 -7 37.5t-19.5 30.5t-29.5 20.5t-36 7.5h-161v-192h161q19 0 36 7.5t29.5 21t19.5 30.5t7 37z" />
    <glyph glyph-name="yen" unicode="&#xa5;" horiz-adv-x="553" 
d="M531 638l-211 -267h139v-44h-166v-66h166v-44h-166v-216h-45v216h-167v44h167v66h-167v44h140q-51 66 -105.5 134.5t-105.5 132.5l34 28l225 -286l227 286z" />
    <glyph glyph-name="brokenbar" unicode="&#xa6;" horiz-adv-x="177" 
d="M107 731v-369h-44v369h44zM107 238v-368h-44v368h44z" />
    <glyph glyph-name="section" unicode="&#xa7;" horiz-adv-x="476" 
d="M360 456q2 14 2.5 23t0.5 19q-2 28 -14 51.5t-31 40.5t-44.5 26.5t-53.5 9.5h-7q-13 -1 -28.5 -5t-29 -11.5t-23 -20t-9.5 -29.5v-6q1 -17 10.5 -30t24 -23.5t32.5 -18.5t37 -16q12 -5 24 -10.5t23 -10.5q45 -23 74 -41.5t46 -36.5t24 -36.5t8 -40.5v-4q0 -34 -24 -59.5
t-51 -39.5q22 -20 30.5 -42t8.5 -42q0 -28 -12 -48t-32.5 -33.5t-46.5 -20.5t-53 -8h-10q-37 0 -71 13.5t-59.5 37t-40.5 56t-15 70.5q0 5 0.5 12.5t2.5 20.5h45q-2 -11 -3 -20.5t-1 -15.5q0 -23 11 -46.5t30 -42t45 -30t57 -11.5h7q27 1 46 8t31 17t17.5 20.5t5.5 19.5
q0 17 -5 29t-20 24.5t-42.5 27.5t-73.5 38l-62 32q-18 9 -35.5 21t-31.5 27t-23 34.5t-9 43.5q0 30 20.5 57.5t48.5 44.5q-13 12 -22.5 28.5t-11.5 42.5v6q0 33 15 54t36 34t44 18t40 6h9q36 0 69 -12t58.5 -34.5t41.5 -54t18 -69.5q0 -8 -0.5 -18t-3.5 -24zM381 290
q-1 15 -7.5 28t-21.5 26.5t-39.5 28.5t-61.5 33h1l-28 13q-19 10 -30.5 16t-19 9.5t-12 5t-8.5 3.5q-8 -3 -19.5 -10t-22 -17t-17.5 -23t-7 -29v-3q0 -7 3 -16t11.5 -19.5t23 -22t38.5 -23.5l47 -24q35 -18 58.5 -29.5t40.5 -22.5q11 4 23.5 11t23 16t17.5 20t7 25v4z" />
    <glyph glyph-name="dieresis" unicode="&#xa8;" horiz-adv-x="290" 
d="M89 758q14 0 21.5 -8.5t7.5 -19.5q0 -13 -7.5 -21t-21.5 -8q-12 0 -19.5 8t-7.5 21q0 11 7.5 19.5t19.5 8.5zM195 758q13 0 20.5 -8.5t7.5 -19.5q0 -13 -7.5 -21t-20.5 -8t-20.5 8t-7.5 21q0 11 7.5 19.5t20.5 8.5z" />
    <glyph glyph-name="copyright" unicode="&#xa9;" horiz-adv-x="350" 
d="M54 578q0 24 9.5 45.5t26 38t38 26t45.5 9.5t45.5 -9.5t37.5 -26t25.5 -38t9.5 -45.5t-9.5 -46t-25.5 -38t-37.5 -25.5t-45.5 -9.5t-45.5 9.5t-38 25.5t-26 38t-9.5 46zM82 578q0 -38 26.5 -64.5t64.5 -26.5t64 26.5t26 64.5t-26 64.5t-64 26.5t-64.5 -26.5t-26.5 -64.5z
M228 525q-14 -11 -26.5 -14.5t-24.5 -3.5q-34 0 -54.5 21t-20.5 49q0 14 6.5 27t17 23t24 16t27.5 6q8 0 19 -3.5t25 -11.5l-8 -27q-14 10 -22.5 13.5t-13.5 3.5q-17 0 -33 -15t-16 -32q0 -18 14 -30.5t34 -12.5q17 0 37 13z" />
    <glyph glyph-name="ordfeminine" unicode="&#xaa;" horiz-adv-x="520" 
d="M354 490q0 28 -11 53t-29.5 43.5t-44 29t-53.5 10.5t-53 -10.5t-44 -29t-30 -43.5t-11 -53t11 -53t30 -43.5t44 -29.5t53 -11t53.5 11t44 29.5t29.5 43.5t11 53zM465 267q-47 26 -71 58t-32 57q-14 -19 -32.5 -32.5t-39 -22t-40 -12.5t-35.5 -4q-37 1 -70 15.5
t-57.5 38.5t-38.5 56t-14 69t14.5 70t39 57.5t57.5 38.5t70 14q88 0 138 -63v63h43v-208q0 -21 2 -41t9 -38.5t20.5 -36t36.5 -32.5v-47z" />
    <glyph glyph-name="guillemotleft" unicode="&#xab;" horiz-adv-x="482" 
d="M231 613v-9t0.5 -17t0.5 -17.5v-9.5v-14l-166 -210l49 -61l117 -147q0 -3 -0.5 -8t-0.5 -7v-51l-219 274zM412 613v-9t0.5 -17t0.5 -17.5v-9.5v-14l-165 -210l49 -61l116 -147q0 -3 -0.5 -8t-0.5 -7v-51l-218 274z" />
    <glyph glyph-name="logicalnot" unicode="&#xac;" horiz-adv-x="609" 
d="M482 329h-486v44h530v-303h-44v259z" />
    <glyph glyph-name="registered" unicode="&#xae;" horiz-adv-x="350" 
d="M54 578q0 24 9.5 45.5t26 38t38 26t45.5 9.5t45.5 -9.5t37.5 -26t25.5 -38t9.5 -45.5t-9.5 -46t-25.5 -38t-37.5 -25.5t-45.5 -9.5t-45.5 9.5t-38 25.5t-26 38t-9.5 46zM167 556h-9v-46h-27v140h44q19 0 31 -13.5t16 -32.5q0 -26 -21 -41l28 -29l15 -13q8 12 13.5 26
t5.5 31q0 38 -26 64.5t-64 26.5t-64.5 -26.5t-26.5 -64.5t26.5 -64.5t64.5 -26.5q18 0 33.5 6t27.5 16h-21zM158 624v-41h17q8 0 14 5.5t6 12.5q0 8 -6 15.5t-14 7.5h-17z" />
    <glyph glyph-name="degree" unicode="&#xb0;" horiz-adv-x="192" 
d="M43 680q0 21 15 36t36 15q22 0 36 -15t14 -36q0 -22 -14 -36t-36 -14q-21 0 -36 14t-15 36zM83 680q0 -10 11 -10t11 10q0 11 -11 11t-11 -11z" />
    <glyph glyph-name="plusminus" unicode="&#xb1;" horiz-adv-x="251" 
d="M145 506v-102h105v-42h-105v-109h-42v109h-108v42h108v102h42zM250 188h-255v42h255v-42z" />
    <glyph glyph-name="twosuperior" unicode="&#xb2;" horiz-adv-x="336" 
d="M274 618q0 -25 -11 -46.5t-31 -37.5q24 -14 40.5 -38t16.5 -55q0 -26 -10.5 -49.5t-28.5 -41.5t-42 -29t-51 -11q-36 0 -69.5 24.5t-48.5 71.5l47 1q8 -26 28 -40t43 -14q17 0 33 7.5t28 19.5t19.5 28.5t7.5 34.5q0 29 -23.5 46t-52.5 17q-2 0 -6 -0.5t-21 -5.5v54
q37 0 62 18t26 44q-1 15 -7.5 28.5t-17 23t-24 15t-28.5 5.5q-26 0 -47.5 -23t-21.5 -57l-46 -1q1 25 10.5 47.5t25 39.5t36 27t44.5 10q23 0 44.5 -9t38.5 -24.5t27 -36t10 -43.5z" />
    <glyph glyph-name="threesuperior" unicode="&#xb3;" horiz-adv-x="307" 
d="M227 610q0 29 -19 52.5t-48 25.5h-4q-27 0 -47 -22.5t-20 -51.5q0 -7 5 -32l-45 1q-2 9 -3 17t-1 15q0 23 9.5 44.5t25 37.5t36.5 25.5t44 9.5q24 0 44.5 -10.5t35 -28t23 -39t8.5 -44.5q0 -17 -6 -35t-17 -33l-69 -94q-10 -13 -17.5 -23.5t-15 -20t-15.5 -20.5t-17 -24
h175v-43h-259l184 251l-1 -1q14 22 14 43z" />
    <glyph glyph-name="acute" unicode="&#xb4;" horiz-adv-x="165" 
d="M16 725l108 81l74 2l-204 -152z" />
    <glyph glyph-name="paragraph" unicode="&#xb6;" horiz-adv-x="614" 
d="M275 -37h-45v314q-48 3 -85.5 22.5t-63.5 49.5t-39.5 67.5t-13.5 75.5q0 48 14 89t41 70t67.5 45.5t94.5 16.5h313v-45h-60v-705h-45v705h-178v-705z" />
    <glyph glyph-name="periodcentered" unicode="&#xb7;" horiz-adv-x="157" 
d="M75 351q14 0 21.5 -8.5t7.5 -20.5q0 -28 -29 -28q-12 0 -19.5 7.5t-7.5 20.5q0 12 7.5 20.5t19.5 8.5z" />
    <glyph glyph-name="cedilla" unicode="&#xb8;" horiz-adv-x="213" 
d="M101 -163q17 0 27 12.5t10 29.5q0 11 -9 22t-21 15q-5 0 -15 1t-13 1v108h43v-69q27 -7 43 -30t16 -50q0 -35 -23 -59t-58 -24q-33 0 -59.5 24t-33.5 62l40 10q9 -25 21 -39t32 -14z" />
    <glyph glyph-name="onesuperior" unicode="&#xb9;" horiz-adv-x="211" 
d="M137 759v-454h-44v316l-72 -106l-34 24z" />
    <glyph glyph-name="guillemotright" unicode="&#xbb;" horiz-adv-x="484" 
d="M460 336l-218 -274v8.5t-0.5 16.5t-0.5 16.5v9.5v15l117 147l49 61l-166 210v14v9t0.5 17t0.5 17v9zM278 336l-218 -274v8.5t-0.5 16.5t-0.5 16.5v9.5v15l117 147l49 61l-166 210v14v9t0.5 17t0.5 17v9z" />
    <glyph glyph-name="onequarter" unicode="&#xbc;" horiz-adv-x="770" 
d="M187 759v-454h-44v316l-72 -106l-34 24zM628 731l-497 -731h-49l497 731h49zM637 458v-330h79v-44h-79v-84h-43v84h-243zM594 330q-21 -27 -39.5 -51.5t-36.5 -48.5t-37 -49t-41 -53h154v202z" />
    <glyph glyph-name="onehalf" unicode="&#xbd;" horiz-adv-x="737" 
d="M186 759v-454h-44v316l-73 -106l-33 24zM622 294q0 28 -19.5 51.5t-48.5 25.5h-4q-26 0 -46.5 -22t-20.5 -52q0 -2 1.5 -11t3.5 -20l-45 1q-2 8 -3 16.5t-1 14.5q0 24 9.5 45t25.5 37t36.5 25.5t43.5 9.5q24 0 44.5 -10.5t35.5 -27.5t23.5 -38.5t8.5 -44.5q0 -36 -24 -68
l-69 -95q-9 -13 -17 -23t-15.5 -20t-15.5 -21t-17 -24h175v-43h-258l184 252l-1 -1q6 10 10 21t4 22zM627 731l-497 -731h-49l497 731h49z" />
    <glyph glyph-name="threequarters" unicode="&#xbe;" horiz-adv-x="848" 
d="M279 618q0 -25 -11 -46.5t-31 -37.5q24 -14 40 -38t16 -55q0 -26 -10.5 -49.5t-28.5 -41.5t-42 -29t-51 -11q-35 0 -68.5 24.5t-48.5 71.5l47 1q7 -26 27 -40t43 -14q17 0 33 7.5t28 19.5t19.5 28.5t7.5 34.5q0 26 -21.5 44.5t-50.5 18.5q-3 0 -8 -0.5t-22 -3.5v52h18
q29 0 49.5 18.5t20.5 44.5v5q-1 13 -8 25t-17.5 21t-23.5 14.5t-28 5.5q-13 0 -25.5 -6t-22 -17t-15.5 -25.5t-6 -31.5l-46 -1q1 25 10.5 47.5t25 39.5t36 27t44.5 10q36 0 68 -22t45 -56v1q4 -8 5.5 -17.5t1.5 -18.5zM711 458v-330h80v-44h-80v-84h-43v84h-243zM668 330
q-20 -27 -38.5 -51.5t-36.5 -48.5t-37.5 -49t-41.5 -53h154v202zM684 731l-498 -731h-48l497 731h49z" />
    <glyph glyph-name="questiondown" unicode="&#xbf;" horiz-adv-x="636" 
d="M335.019 386.001q0 -13.999 -8.49902 -20.998q-8.5 -7 -18.999 -7t-18.999 7q-8.49902 6.99902 -8.49902 20.998t8.49902 20.999q8.5 7 18.999 7t18.999 -7q8.49902 -7 8.49902 -20.999zM120.032 -184.964q-27.998 31.998 -40.998 68.4961
q-12.999 36.4971 -12.999 73.4951q0 41.9971 15.499 82.9951q15.499 40.9971 44.4971 73.9951q28.999 32.998 69.4961 55.9971q40.498 22.998 89.4951 28.998v129.992h44.9971v-171.989h-20.999q-41.9971 -3 -78.4951 -21.499t-62.9961 -45.9971t-41.498 -61.9961
q-14.999 -34.498 -14.999 -70.4961q0 -30.998 11.5 -61.4961q11.499 -30.498 35.4971 -56.4971q28.999 -31.998 63.9961 -45.4971q34.998 -13.499 71.9961 -13.499q37.998 0 74.9951 14.499q36.998 14.499 66.4961 40.998q29.498 26.498 48.9971 61.9961t22.499 77.4951
l46.9971 -2q-5 -50.9971 -28.998 -94.4941q-23.999 -43.4971 -59.9971 -74.9951q-35.9971 -31.498 -80.4951 -49.4971q-44.4971 -17.999 -91.4941 -17.999t-91.9941 18.499t-80.9951 60.4961z" />
    <glyph glyph-name="Agrave" unicode="&#xc0;" horiz-adv-x="580" 
d="M385 297q-4 9 -8 21t-8 23q-11 28 -21 54.5t-20 53.5l-43 118l-103 -270h203zM285 671l271 -669q-11 -2 -20.5 -5.5t-20.5 -5.5l-113 268h-236l-55 -135q-14 -34 -28 -68.5t-27 -66.5q-5 1 -10.5 2t-11.5 3l-19 5zM379 659l-201 149l75 -2l107 -80z" />
    <glyph glyph-name="Aacute" unicode="&#xc1;" horiz-adv-x="580" 
d="M385 297q-4 9 -8 21t-8 23q-11 28 -21 54.5t-20 53.5l-43 118l-103 -270h203zM285 671l271 -669q-11 -2 -20.5 -5.5t-20.5 -5.5l-113 268h-236l-55 -135q-14 -34 -28 -68.5t-27 -66.5q-5 1 -10.5 2t-11.5 3l-19 5zM217 726l108 81l74 2l-204 -152z" />
    <glyph glyph-name="Acircumflex" unicode="&#xc2;" horiz-adv-x="580" 
d="M385 297q-4 9 -8 21t-8 23q-11 28 -21 54.5t-20 53.5l-43 118l-103 -270h203zM285 671l271 -669q-11 -2 -20.5 -5.5t-20.5 -5.5l-113 268h-236l-55 -135q-14 -34 -28 -68.5t-27 -66.5q-5 1 -10.5 2t-11.5 3l-19 5zM162 723l108 83h36l108 -81l18 -65l-144 104l-148 -111z
" />
    <glyph glyph-name="Atilde" unicode="&#xc3;" horiz-adv-x="580" 
d="M385 297q-4 9 -8 21t-8 23q-11 28 -21 54.5t-20 53.5l-43 118l-103 -270h203zM285 671l271 -669q-11 -2 -20.5 -5.5t-20.5 -5.5l-113 268h-236l-55 -135q-14 -34 -28 -68.5t-27 -66.5q-5 1 -10.5 2t-11.5 3l-19 5zM418 761q-17 -38 -34.5 -52.5t-36.5 -14.5
q-16 0 -33.5 8.5t-33.5 16.5q-12 7 -26 13t-24 6q-8 0 -15.5 -8.5t-17.5 -32.5l-41 19q17 38 35 52.5t37 14.5q16 0 33.5 -8t33.5 -17q12 -6 25.5 -12.5t24.5 -6.5q8 0 16 9.5t18 32.5z" />
    <glyph glyph-name="Adieresis" unicode="&#xc4;" horiz-adv-x="580" 
d="M385 297q-4 9 -8 21t-8 23q-11 28 -21 54.5t-20 53.5l-43 118l-103 -270h203zM285 671l271 -669q-11 -2 -20.5 -5.5t-20.5 -5.5l-113 268h-236l-55 -135q-14 -34 -28 -68.5t-27 -66.5q-5 1 -10.5 2t-11.5 3l-19 5zM232 759q14 0 21.5 -8.5t7.5 -19.5q0 -13 -7.5 -21
t-21.5 -8q-12 0 -19.5 8t-7.5 21q0 11 7.5 19.5t19.5 8.5zM338 759q13 0 20.5 -8.5t7.5 -19.5q0 -13 -7.5 -21t-20.5 -8t-20.5 8t-7.5 21q0 11 7.5 19.5t20.5 8.5z" />
    <glyph glyph-name="Aring" unicode="&#xc5;" horiz-adv-x="580" 
d="M385 297q-4 9 -8 21t-8 23q-11 28 -21 54.5t-20 53.5l-43 118l-103 -270h203zM285 671l271 -669q-11 -2 -20.5 -5.5t-20.5 -5.5l-113 268h-236l-55 -135q-14 -34 -28 -68.5t-27 -66.5q-5 1 -10.5 2t-11.5 3l-19 5zM248 707q0 16 10.5 26.5t26.5 10.5t26.5 -10.5
t10.5 -26.5t-10.5 -26.5t-26.5 -10.5t-26.5 10.5t-10.5 26.5zM272 707q0 -13 13 -13t13 13t-13 13t-13 -13z" />
    <glyph glyph-name="AE" unicode="&#xc6;" horiz-adv-x="920" 
d="M492 269v347h-24q-31 -46 -59.5 -88.5t-56.5 -84.5t-56.5 -85t-59.5 -89h256zM866 659v-43h-330v-216h275v-44h-275v-313h353v-43h-397v225h-284l-152 -230l-36 27l426 637h420z" />
    <glyph glyph-name="Ccedilla" unicode="&#xc7;" horiz-adv-x="608" 
d="M338 -151q17 0 27.5 12t10.5 29q0 11 -9.5 22.5t-20.5 14.5q-6 0 -16 1t-13 1v73q-53 14 -96 41q-38 24 -68 56.5t-51 70t-32 78.5t-11 82q0 45 12 89t37 85q24 39 56 69t69.5 50.5t79 31.5t83.5 11q45 0 92 -14.5t95 -43.5l-26 -36q-42 26 -83 38t-79 12q-75 0 -141 -36
t-108 -105q-23 -36 -33 -74t-10 -77q0 -75 36.5 -141.5t105.5 -108.5q35 -21 73 -31.5t77 -10.5q44 0 88.5 15t88.5 46l26 -37q-50 -35 -101.5 -51.5t-100.5 -16.5h-18.5t-17.5 1v-27q28 -6 44 -29.5t16 -50.5q0 -35 -23.5 -58.5t-58.5 -23.5q-33 0 -60 21.5t-32 64.5l45 10
v-20l7 -14l-1 1q6 -10 17.5 -15t23.5 -5z" />
    <glyph glyph-name="Egrave" unicode="&#xc8;" horiz-adv-x="471" 
d="M67 0v659h376v-44h-332v-205h224v-44h-224v-322h355v-44h-399zM334 663l-201 149l75 -2l107 -80z" />
    <glyph glyph-name="Eacute" unicode="&#xc9;" horiz-adv-x="471" 
d="M67 0v659h376v-44h-332v-205h224v-44h-224v-322h355v-44h-399zM169 735l108 81l74 2l-204 -152z" />
    <glyph glyph-name="Ecircumflex" unicode="&#xca;" horiz-adv-x="471" 
d="M67 0v659h376v-44h-332v-205h224v-44h-224v-322h355v-44h-399zM124 744l108 83h36l108 -81l18 -65l-144 104l-148 -111z" />
    <glyph glyph-name="Edieresis" unicode="&#xcb;" horiz-adv-x="471" 
d="M67 0v659h376v-44h-332v-205h224v-44h-224v-322h355v-44h-399zM191 758q14 0 21.5 -8.5t7.5 -19.5q0 -13 -7.5 -21t-21.5 -8q-12 0 -19.5 8t-7.5 21q0 11 7.5 19.5t19.5 8.5zM297 758q13 0 20.5 -8.5t7.5 -19.5q0 -13 -7.5 -21t-20.5 -8t-20.5 8t-7.5 21q0 11 7.5 19.5
t20.5 8.5z" />
    <glyph glyph-name="Igrave" unicode="&#xcc;" horiz-adv-x="335" 
d="M206 659v-659h-46v659h46zM273 659l-201 149l75 -2l107 -80z" />
    <glyph glyph-name="Iacute" unicode="&#xcd;" horiz-adv-x="335" 
d="M201 659v-659h-46v659h46zM105 724l108 81l74 2l-204 -152z" />
    <glyph glyph-name="Icircumflex" unicode="&#xce;" horiz-adv-x="447" 
d="M244 659v-659h-46v659h46zM93 722l108 83h36l108 -81l18 -65l-144 104l-148 -111z" />
    <glyph glyph-name="Idieresis" unicode="&#xcf;" horiz-adv-x="335" 
d="M171 659v-659h-46v659h46zM92 758q14 0 21.5 -8.5t7.5 -19.5q0 -13 -7.5 -21t-21.5 -8q-12 0 -19.5 8t-7.5 21q0 11 7.5 19.5t19.5 8.5zM198 758q13 0 20.5 -8.5t7.5 -19.5q0 -13 -7.5 -21t-20.5 -8t-20.5 8t-7.5 21q0 11 7.5 19.5t20.5 8.5z" />
    <glyph glyph-name="Eth" unicode="&#xd0;" horiz-adv-x="698" 
d="M310 659q68 0 128 -26t104.5 -71t70.5 -105t26 -128t-26 -128t-70.5 -104.5t-104.5 -70.5t-128 -26h-200v347h-68v44h68v268h200zM410 347h-256v-303h156q59 0 111 22.5t91 61t61.5 90.5t22.5 111t-22.5 111.5t-61.5 91.5t-91 61.5t-111 22.5h-156v-225h256v-44z" />
    <glyph glyph-name="Ntilde" unicode="&#xd1;" horiz-adv-x="670" 
d="M605 659v-700l-452 600v-559h-44v690l452 -600v569h44zM490 754q-17 -38 -34.5 -52.5t-36.5 -14.5q-16 0 -33.5 8.5t-33.5 16.5q-12 7 -26 13t-24 6q-8 0 -15.5 -8.5t-17.5 -32.5l-41 19q17 38 35 52.5t37 14.5q16 0 33.5 -8t33.5 -17q12 -6 25.5 -12.5t24.5 -6.5
q8 0 16 9.5t18 32.5z" />
    <glyph glyph-name="Ograve" unicode="&#xd2;" horiz-adv-x="782" 
d="M383 665q69 0 130 -26.5t106.5 -72t72 -106.5t26.5 -131q0 -69 -26.5 -130.5t-72 -107t-106.5 -72t-130 -26.5q-70 0 -131 26.5t-106.5 72t-72 107t-26.5 130.5q0 70 26.5 131t72 106.5t106.5 72t131 26.5zM674 329q0 61 -23 114t-62.5 92.5t-92.5 62.5t-113 23
q-61 0 -114 -23t-92.5 -62.5t-62.5 -92.5t-23 -114q0 -60 23 -113.5t62.5 -93t92.5 -62.5t114 -23q60 0 113 23t92.5 62.5t62.5 93t23 113.5zM486 658l-201 149l75 -2l107 -80z" />
    <glyph glyph-name="Oacute" unicode="&#xd3;" horiz-adv-x="782" 
d="M383 665q69 0 130 -26.5t106.5 -72t72 -106.5t26.5 -131q0 -69 -26.5 -130.5t-72 -107t-106.5 -72t-130 -26.5q-70 0 -131 26.5t-106.5 72t-72 107t-26.5 130.5q0 70 26.5 131t72 106.5t106.5 72t131 26.5zM674 329q0 61 -23 114t-62.5 92.5t-92.5 62.5t-113 23
q-61 0 -114 -23t-92.5 -62.5t-62.5 -92.5t-23 -114q0 -60 23 -113.5t62.5 -93t92.5 -62.5t114 -23q60 0 113 23t92.5 62.5t62.5 93t23 113.5zM309 751l108 81l74 2l-204 -152z" />
    <glyph glyph-name="Ocircumflex" unicode="&#xd4;" horiz-adv-x="782" 
d="M383 665q69 0 130 -26.5t106.5 -72t72 -106.5t26.5 -131q0 -69 -26.5 -130.5t-72 -107t-106.5 -72t-130 -26.5q-70 0 -131 26.5t-106.5 72t-72 107t-26.5 130.5q0 70 26.5 131t72 106.5t106.5 72t131 26.5zM674 329q0 61 -23 114t-62.5 92.5t-92.5 62.5t-113 23
q-61 0 -114 -23t-92.5 -62.5t-62.5 -92.5t-23 -114q0 -60 23 -113.5t62.5 -93t92.5 -62.5t114 -23q60 0 113 23t92.5 62.5t62.5 93t23 113.5zM262 723l108 83h36l108 -81l18 -65l-144 104l-148 -111z" />
    <glyph glyph-name="Otilde" unicode="&#xd5;" horiz-adv-x="782" 
d="M383 665q69 0 130 -26.5t106.5 -72t72 -106.5t26.5 -131q0 -69 -26.5 -130.5t-72 -107t-106.5 -72t-130 -26.5q-70 0 -131 26.5t-106.5 72t-72 107t-26.5 130.5q0 70 26.5 131t72 106.5t106.5 72t131 26.5zM674 329q0 61 -23 114t-62.5 92.5t-92.5 62.5t-113 23
q-61 0 -114 -23t-92.5 -62.5t-62.5 -92.5t-23 -114q0 -60 23 -113.5t62.5 -93t92.5 -62.5t114 -23q60 0 113 23t92.5 62.5t62.5 93t23 113.5zM523 760q-17 -38 -34.5 -52.5t-36.5 -14.5q-16 0 -33.5 8.5t-33.5 16.5q-12 7 -26 13t-24 6q-8 0 -15.5 -8.5t-17.5 -32.5l-41 19
q17 38 35 52.5t37 14.5q16 0 33.5 -8t33.5 -17q12 -6 25.5 -12.5t24.5 -6.5q8 0 16 9.5t18 32.5z" />
    <glyph glyph-name="Odieresis" unicode="&#xd6;" horiz-adv-x="782" 
d="M383 665q69 0 130 -26.5t106.5 -72t72 -106.5t26.5 -131q0 -69 -26.5 -130.5t-72 -107t-106.5 -72t-130 -26.5q-70 0 -131 26.5t-106.5 72t-72 107t-26.5 130.5q0 70 26.5 131t72 106.5t106.5 72t131 26.5zM674 329q0 61 -23 114t-62.5 92.5t-92.5 62.5t-113 23
q-61 0 -114 -23t-92.5 -62.5t-62.5 -92.5t-23 -114q0 -60 23 -113.5t62.5 -93t92.5 -62.5t114 -23q60 0 113 23t92.5 62.5t62.5 93t23 113.5zM333 759q14 0 21.5 -8.5t7.5 -19.5q0 -13 -7.5 -21t-21.5 -8q-12 0 -19.5 8t-7.5 21q0 11 7.5 19.5t19.5 8.5zM439 759
q13 0 20.5 -8.5t7.5 -19.5q0 -13 -7.5 -21t-20.5 -8t-20.5 8t-7.5 21q0 11 7.5 19.5t20.5 8.5z" />
    <glyph glyph-name="multiply" unicode="&#xd7;" horiz-adv-x="467" 
d="M83 498l144 -166l147 166l40 -18l-159 -179q60 -69 99.5 -112.5t63.5 -69.5l-45 -13l-145 164l-144 -164l-44 13l159 181l-156 180z" />
    <glyph glyph-name="Oslash" unicode="&#xd8;" horiz-adv-x="746" 
d="M557 765l-53 -131q44 -20 80.5 -50.5t63 -70t41 -86.5t14.5 -99q0 -69 -26.5 -130.5t-72 -107t-107 -72t-130.5 -26.5q-59 0 -110 18q-13 -32 -26 -66.5t-27 -65.5h-46l60 149q-41 21 -75.5 52t-59.5 70t-38.5 84.5t-13.5 94.5q0 70 26.5 131t72 106.5t106.5 72t131 26.5
q25 0 49 -3.5t49 -11.5l46 116h46zM660 328q0 44 -13 84.5t-36 75t-54.5 61.5t-69.5 44q-55 -140 -107.5 -271t-107.5 -271q23 -8 46 -12t49 -4q61 0 114 23t93 63t63 93.5t23 113.5zM367 620q-61 0 -114 -23t-92.5 -62.5t-62.5 -92.5t-23 -114q0 -42 11.5 -81t32.5 -73
t50 -61t64 -45l214 540q-39 12 -80 12z" />
    <glyph glyph-name="Ugrave" unicode="&#xd9;" horiz-adv-x="663" 
d="M325 -7q-55 0 -103 20t-84 54.5t-57 81t-21 98.5v412h44v-412q0 -44 17 -82t47 -66.5t70.5 -45t86.5 -16.5q45 0 85 16.5t70 45t47 66.5t17 82v412h44v-412q0 -52 -21 -98.5t-56.5 -81t-83.5 -54.5t-102 -20zM423 658l-201 149l75 -2l107 -80z" />
    <glyph glyph-name="Uacute" unicode="&#xda;" horiz-adv-x="663" 
d="M325 -7q-55 0 -103 20t-84 54.5t-57 81t-21 98.5v412h44v-412q0 -44 17 -82t47 -66.5t70.5 -45t86.5 -16.5q45 0 85 16.5t70 45t47 66.5t17 82v412h44v-412q0 -52 -21 -98.5t-56.5 -81t-83.5 -54.5t-102 -20zM260 724l108 81l74 2l-204 -152z" />
    <glyph glyph-name="Ucircumflex" unicode="&#xdb;" horiz-adv-x="663" 
d="M325 -7q-55 0 -103 20t-84 54.5t-57 81t-21 98.5v412h44v-412q0 -44 17 -82t47 -66.5t70.5 -45t86.5 -16.5q45 0 85 16.5t70 45t47 66.5t17 82v412h44v-412q0 -52 -21 -98.5t-56.5 -81t-83.5 -54.5t-102 -20zM205 722l108 83h36l108 -81l18 -65l-144 104l-148 -111z" />
    <glyph glyph-name="Udieresis" unicode="&#xdc;" horiz-adv-x="663" 
d="M325 -7q-55 0 -103 20t-84 54.5t-57 81t-21 98.5v412h44v-412q0 -44 17 -82t47 -66.5t70.5 -45t86.5 -16.5q45 0 85 16.5t70 45t47 66.5t17 82v412h44v-412q0 -52 -21 -98.5t-56.5 -81t-83.5 -54.5t-102 -20zM278 759q14 0 21.5 -8.5t7.5 -19.5q0 -13 -7.5 -21t-21.5 -8
q-12 0 -19.5 8t-7.5 21q0 11 7.5 19.5t19.5 8.5zM384 759q13 0 20.5 -8.5t7.5 -19.5q0 -13 -7.5 -21t-20.5 -8t-20.5 8t-7.5 21q0 11 7.5 19.5t20.5 8.5z" />
    <glyph glyph-name="Yacute" unicode="&#xdd;" horiz-adv-x="745" 
d="M388 265l-241 387l40 19l224 -358l224 358l39 -19l-240 -387q0 -63 -0.5 -132.5t-0.5 -132.5h-44zM345 725l108 81l74 2l-204 -152z" />
    <glyph glyph-name="Thorn" unicode="&#xde;" horiz-adv-x="591" 
d="M94 659v-96h254q40 0 75.5 -16t62.5 -43t42.5 -63.5t15.5 -78.5q0 -41 -15.5 -77.5t-41.5 -63.5t-61.5 -42.5t-75.5 -15.5h-256v-163h-45v659h45zM94 519v-312h256q31 0 58 12t47.5 33t32.5 49.5t12 60.5q0 33 -12 61.5t-32.5 50t-48 33.5t-58.5 12h-255z" />
    <glyph glyph-name="germandbls" unicode="&#xdf;" horiz-adv-x="808" 
d="M380 145q0 -36 -15.5 -64.5t-42 -47.5t-62 -29t-75.5 -10q-17 0 -37 2.5t-41.5 7t-43 10.5t-40.5 12l11 38q35 -9 72 -16.5t63 -7.5h32q27 0 51.5 7t43 21t29.5 34.5t11 47.5q0 13 -5.5 27t-12.5 23q-10 13 -24 22t-30.5 14.5t-33.5 8t-32 3.5q-28 1 -55.5 6t-53.5 19
q-29 17 -47.5 47t-18.5 67q0 54 38.5 91.5t105.5 49.5q9 2 27.5 4t41.5 2q12 0 29 -2.5t34.5 -7t34.5 -10t30 -10.5l-12 -39q-39 13 -69 18.5t-66 5.5q-25 0 -51.5 -6t-48.5 -18.5t-36 -32t-14 -46.5q0 -17 12 -39t29 -34q19 -12 37.5 -15t38.5 -5q4 0 8 -0.5t8 -0.5
q27 -2 57.5 -8.5t59.5 -24.5q28 -19 45.5 -50.5t17.5 -63.5zM749 145q0 -36 -15.5 -64.5t-42 -47.5t-62 -29t-75.5 -10q-17 0 -37 2.5t-41.5 7t-43 10.5t-40.5 12l11 38q35 -9 72 -16.5t63 -7.5h32q27 0 51.5 7t43 21t29.5 34.5t11 47.5q0 13 -5.5 27t-12.5 23
q-10 13 -24 22t-30.5 14.5t-33.5 8t-32 3.5q-28 1 -55.5 6t-53.5 19q-29 17 -47.5 47t-18.5 67q0 54 38.5 91.5t105.5 49.5q9 2 27.5 4t41.5 2q12 0 29 -2.5t34.5 -7t34.5 -10t30 -10.5l-12 -39q-39 13 -69 18.5t-66 5.5q-25 0 -51.5 -6t-48.5 -18.5t-36 -32t-14 -46.5
q0 -17 12 -39t29 -34q19 -12 37.5 -15t38.5 -5q4 0 8 -0.5t8 -0.5q27 -2 57.5 -8.5t59.5 -24.5q28 -19 45.5 -50.5t17.5 -63.5z" />
    <glyph glyph-name="agrave" unicode="&#xe0;" horiz-adv-x="478" 
d="M310 233l-77 198q-7 -18 -14.5 -37.5t-16 -43t-19.5 -52t-24 -65.5h151zM233 531q55 -129 109 -257.5t109 -264.5l-38 -10l-86 197h-184l-86 -199l-40 10zM326 545l-201 149l75 -2l107 -80z" />
    <glyph glyph-name="aacute" unicode="&#xe1;" horiz-adv-x="478" 
d="M310 233l-77 198q-7 -18 -14.5 -37.5t-16 -43t-19.5 -52t-24 -65.5h151zM233 531q55 -129 109 -257.5t109 -264.5l-38 -10l-86 197h-184l-86 -199l-40 10zM164 611l108 81l74 2l-204 -152z" />
    <glyph glyph-name="acircumflex" unicode="&#xe2;" horiz-adv-x="478" 
d="M310 233l-77 198q-7 -18 -14.5 -37.5t-16 -43t-19.5 -52t-24 -65.5h151zM233 531q55 -129 109 -257.5t109 -264.5l-38 -10l-86 197h-184l-86 -199l-40 10zM107 602l108 83h36l108 -81l18 -65l-144 104l-148 -111z" />
    <glyph glyph-name="atilde" unicode="&#xe3;" horiz-adv-x="478" 
d="M310 233l-77 198q-7 -18 -14.5 -37.5t-16 -43t-19.5 -52t-24 -65.5h151zM233 531q55 -129 109 -257.5t109 -264.5l-38 -10l-86 197h-184l-86 -199l-40 10zM367 669q-17 -38 -34.5 -52.5t-36.5 -14.5q-16 0 -33.5 8.5t-33.5 16.5q-12 7 -26 13t-24 6q-8 0 -15.5 -8.5
t-17.5 -32.5l-41 19q17 38 35 52.5t37 14.5q16 0 33.5 -8t33.5 -17q12 -6 25.5 -12.5t24.5 -6.5q8 0 16 9.5t18 32.5z" />
    <glyph glyph-name="adieresis" unicode="&#xe4;" horiz-adv-x="478" 
d="M310 233l-77 198q-7 -18 -14.5 -37.5t-16 -43t-19.5 -52t-24 -65.5h151zM233 531q55 -129 109 -257.5t109 -264.5l-38 -10l-86 197h-184l-86 -199l-40 10zM179 683q14 0 21.5 -8.5t7.5 -19.5q0 -13 -7.5 -21t-21.5 -8q-12 0 -19.5 8t-7.5 21q0 11 7.5 19.5t19.5 8.5z
M285 683q13 0 20.5 -8.5t7.5 -19.5q0 -13 -7.5 -21t-20.5 -8t-20.5 8t-7.5 21q0 11 7.5 19.5t20.5 8.5z" />
    <glyph glyph-name="aring" unicode="&#xe5;" horiz-adv-x="478" 
d="M310 233l-77 198q-7 -18 -14.5 -37.5t-16 -43t-19.5 -52t-24 -65.5h151zM233 531q55 -129 109 -257.5t109 -264.5l-38 -10l-86 197h-184l-86 -199l-40 10zM196 571q0 16 10.5 26.5t26.5 10.5t26.5 -10.5t10.5 -26.5t-10.5 -26.5t-26.5 -10.5t-26.5 10.5t-10.5 26.5z
M220 571q0 -13 13 -13t13 13t-13 13t-13 -13z" />
    <glyph glyph-name="ae" unicode="&#xe6;" horiz-adv-x="750" 
d="M395 485h-12q-24 -36 -46 -68t-43.5 -64t-44 -65t-46.5 -69h192v266zM699 485h-261v-162h217v-42h-217v-239h279v-42h-322v177h-217q-9 -13 -18.5 -25.5t-17.5 -25.5l-88 -131l-34 26l340 506h339v-42z" />
    <glyph glyph-name="ccedilla" unicode="&#xe7;" horiz-adv-x="474" 
d="M265 -157q17 0 27 12t10 29q0 11 -9 22t-20 15q-6 0 -16 0.5t-13 0.5v78q-46 9 -86 32.5t-69.5 58t-47 78t-17.5 90.5q-1 55 20 104t57.5 86t85 58.5t102.5 22.5q35 0 74 -11t80 -35l-27 -36q-34 22 -66 30.5t-61 8.5q-47 -1 -88 -20t-71.5 -50.5t-47.5 -72.5t-17 -85
q0 -47 19.5 -88t51.5 -70.5t73 -46.5t85 -16q32 0 68 12.5t72 38.5l26 -35q-42 -29 -83.5 -43.5t-80.5 -15.5q-2 0 -4.5 0.5t-4.5 0.5v-35q27 -6 43 -29t16 -50q0 -35 -23 -58.5t-58 -23.5q-32 0 -59 22t-33 64l45 10l1 -20l6 -14l-1 1q6 -10 17.5 -15t23.5 -5z" />
    <glyph glyph-name="egrave" unicode="&#xe8;" horiz-adv-x="394" 
d="M67 0v526h304v-43h-260v-152h175v-43h-175v-244h278v-44h-322zM302 545l-201 149l75 -2l107 -80z" />
    <glyph glyph-name="eacute" unicode="&#xe9;" horiz-adv-x="394" 
d="M67 0v526h304v-43h-260v-152h175v-43h-175v-244h278v-44h-322zM141 611l108 81l74 2l-204 -152z" />
    <glyph glyph-name="ecircumflex" unicode="&#xea;" horiz-adv-x="394" 
d="M67 0v526h304v-43h-260v-152h175v-43h-175v-244h278v-44h-322zM95 609l108 83h36l108 -81l18 -65l-144 104l-148 -111z" />
    <glyph glyph-name="edieresis" unicode="&#xeb;" horiz-adv-x="394" 
d="M67 0v526h304v-43h-260v-152h175v-43h-175v-244h278v-44h-322zM161 682q14 0 21.5 -8.5t7.5 -19.5q0 -13 -7.5 -21t-21.5 -8q-12 0 -19.5 8t-7.5 21q0 11 7.5 19.5t19.5 8.5zM267 682q13 0 20.5 -8.5t7.5 -19.5q0 -13 -7.5 -21t-20.5 -8t-20.5 8t-7.5 21q0 11 7.5 19.5
t20.5 8.5z" />
    <glyph glyph-name="igrave" unicode="&#xec;" horiz-adv-x="335" 
d="M204 527v-527h-44v527h44zM274 523l-201 149l75 -2l107 -80z" />
    <glyph glyph-name="iacute" unicode="&#xed;" horiz-adv-x="335" 
d="M196 527v-527h-44v527h44zM104 591l108 81l74 2l-204 -152z" />
    <glyph glyph-name="icircumflex" unicode="&#xee;" horiz-adv-x="447" 
d="M242 527v-527h-44v527h44zM93 569l108 83h36l108 -81l18 -65l-144 104l-148 -111z" />
    <glyph glyph-name="idieresis" unicode="&#xef;" horiz-adv-x="335" 
d="M168 527v-527h-44v527h44zM92 663q14 0 21.5 -8.5t7.5 -19.5q0 -13 -7.5 -21t-21.5 -8q-12 0 -19.5 8t-7.5 21q0 11 7.5 19.5t19.5 8.5zM198 663q13 0 20.5 -8.5t7.5 -19.5q0 -13 -7.5 -21t-20.5 -8t-20.5 8t-7.5 21q0 11 7.5 19.5t20.5 8.5z" />
    <glyph glyph-name="ntilde" unicode="&#xf1;" horiz-adv-x="549" 
d="M465 519v-584l-355 472v-407h-43v536l355 -472v455h43zM395 659q-17 -38 -34.5 -52.5t-36.5 -14.5q-16 0 -33.5 8.5t-33.5 16.5q-12 7 -26 13t-24 6q-8 0 -15.5 -8.5t-17.5 -32.5l-41 19q17 38 35 52.5t37 14.5q16 0 33.5 -8t33.5 -17q12 -6 25.5 -12.5t24.5 -6.5
q8 0 16 9.5t18 32.5z" />
    <glyph glyph-name="ograve" unicode="&#xf2;" horiz-adv-x="649" 
d="M316 531q56 0 105 -21t85 -57.5t57 -85.5t21 -105t-21 -104.5t-57 -85t-85 -57.5t-105 -21t-104.5 21t-85 57.5t-57.5 85t-21 104.5t21 105t57.5 85.5t85 57.5t104.5 21zM541 262q0 47 -17.5 88t-48.5 71.5t-72 48t-87 17.5q-47 0 -88 -17.5t-71.5 -48t-48 -71.5
t-17.5 -88t17.5 -87.5t48 -71t71.5 -48t88 -17.5q46 0 87 17.5t72 48t48.5 71t17.5 87.5zM409 544l-201 149l75 -2l107 -80z" />
    <glyph glyph-name="oacute" unicode="&#xf3;" horiz-adv-x="649" 
d="M316 531q56 0 105 -21t85 -57.5t57 -85.5t21 -105t-21 -104.5t-57 -85t-85 -57.5t-105 -21t-104.5 21t-85 57.5t-57.5 85t-21 104.5t21 105t57.5 85.5t85 57.5t104.5 21zM541 262q0 47 -17.5 88t-48.5 71.5t-72 48t-87 17.5q-47 0 -88 -17.5t-71.5 -48t-48 -71.5
t-17.5 -88t17.5 -87.5t48 -71t71.5 -48t88 -17.5q46 0 87 17.5t72 48t48.5 71t17.5 87.5zM235 611l108 81l74 2l-204 -152z" />
    <glyph glyph-name="ocircumflex" unicode="&#xf4;" horiz-adv-x="649" 
d="M316 531q56 0 105 -21t85 -57.5t57 -85.5t21 -105t-21 -104.5t-57 -85t-85 -57.5t-105 -21t-104.5 21t-85 57.5t-57.5 85t-21 104.5t21 105t57.5 85.5t85 57.5t104.5 21zM541 262q0 47 -17.5 88t-48.5 71.5t-72 48t-87 17.5q-47 0 -88 -17.5t-71.5 -48t-48 -71.5
t-17.5 -88t17.5 -87.5t48 -71t71.5 -48t88 -17.5q46 0 87 17.5t72 48t48.5 71t17.5 87.5zM190 609l108 83h36l108 -81l18 -65l-144 104l-148 -111z" />
    <glyph glyph-name="otilde" unicode="&#xf5;" horiz-adv-x="649" 
d="M316 531q56 0 105 -21t85 -57.5t57 -85.5t21 -105t-21 -104.5t-57 -85t-85 -57.5t-105 -21t-104.5 21t-85 57.5t-57.5 85t-21 104.5t21 105t57.5 85.5t85 57.5t104.5 21zM541 262q0 47 -17.5 88t-48.5 71.5t-72 48t-87 17.5q-47 0 -88 -17.5t-71.5 -48t-48 -71.5
t-17.5 -88t17.5 -87.5t48 -71t71.5 -48t88 -17.5q46 0 87 17.5t72 48t48.5 71t17.5 87.5zM446 678q-17 -38 -34.5 -52.5t-36.5 -14.5q-16 0 -33.5 8.5t-33.5 16.5q-12 7 -26 13t-24 6q-8 0 -15.5 -8.5t-17.5 -32.5l-41 19q17 38 35 52.5t37 14.5q16 0 33.5 -8t33.5 -17
q12 -6 25.5 -12.5t24.5 -6.5q8 0 16 9.5t18 32.5z" />
    <glyph glyph-name="odieresis" unicode="&#xf6;" horiz-adv-x="649" 
d="M316 531q56 0 105 -21t85 -57.5t57 -85.5t21 -105t-21 -104.5t-57 -85t-85 -57.5t-105 -21t-104.5 21t-85 57.5t-57.5 85t-21 104.5t21 105t57.5 85.5t85 57.5t104.5 21zM541 262q0 47 -17.5 88t-48.5 71.5t-72 48t-87 17.5q-47 0 -88 -17.5t-71.5 -48t-48 -71.5
t-17.5 -88t17.5 -87.5t48 -71t71.5 -48t88 -17.5q46 0 87 17.5t72 48t48.5 71t17.5 87.5zM262 683q14 0 21.5 -8.5t7.5 -19.5q0 -13 -7.5 -21t-21.5 -8q-12 0 -19.5 8t-7.5 21q0 11 7.5 19.5t19.5 8.5zM368 683q13 0 20.5 -8.5t7.5 -19.5q0 -13 -7.5 -21t-20.5 -8t-20.5 8
t-7.5 21q0 11 7.5 19.5t20.5 8.5z" />
    <glyph glyph-name="divide" unicode="&#xf7;" horiz-adv-x="580" 
d="M309 198q13 0 21 -8.5t8 -19.5q0 -14 -8 -21.5t-21 -7.5q-12 0 -20 7.5t-8 21.5q0 11 8 19.5t20 8.5zM309 470q13 0 21 -8.5t8 -20.5q0 -13 -8 -20.5t-21 -7.5q-12 0 -20 7.5t-8 20.5q0 12 8 20.5t20 8.5zM518 277h-425v44h425v-44z" />
    <glyph glyph-name="oslash" unicode="&#xf8;" horiz-adv-x="603" 
d="M476 655l-59 -151q67 -33 108 -97t41 -145q0 -56 -21 -104.5t-58 -84.5t-86 -57t-105 -21q-21 0 -40.5 2.5t-36.5 7.5l-26 -67v1q-8 -20 -17.5 -43.5t-16.5 -43.5h-47l67 168q-71 31 -113 95t-42 147q0 56 21.5 105.5t58 86t86 57.5t106.5 21q20 0 40.5 -3.5t38.5 -8.5
q13 33 27.5 68t26.5 67h47zM69 262q0 -64 35 -118t92 -82l163 415q-15 5 -31.5 7.5t-31.5 2.5q-47 0 -88.5 -17.5t-72.5 -48.5t-48.5 -72t-17.5 -87zM522 262q0 65 -34 117t-89 81l-163 -414q14 -3 29 -5t31 -2q46 0 87 17.5t72 48t49 71t18 86.5z" />
    <glyph glyph-name="ugrave" unicode="&#xf9;" horiz-adv-x="559" 
d="M273 -6q-44 0 -82.5 16t-67.5 44t-46 65t-17 79v328h42v-328q0 -33 13.5 -62.5t36.5 -51t54.5 -34t66.5 -12.5q34 0 64.5 12.5t53.5 34t36 51t13 62.5v328h44v-328q0 -42 -17 -79t-45.5 -65t-67 -44t-81.5 -16zM373 544l-201 149l75 -2l107 -80z" />
    <glyph glyph-name="uacute" unicode="&#xfa;" horiz-adv-x="559" 
d="M273 -6q-44 0 -82.5 16t-67.5 44t-46 65t-17 79v328h42v-328q0 -33 13.5 -62.5t36.5 -51t54.5 -34t66.5 -12.5q34 0 64.5 12.5t53.5 34t36 51t13 62.5v328h44v-328q0 -42 -17 -79t-45.5 -65t-67 -44t-81.5 -16zM193 611l108 81l74 2l-204 -152z" />
    <glyph glyph-name="ucircumflex" unicode="&#xfb;" horiz-adv-x="559" 
d="M273 -6q-44 0 -82.5 16t-67.5 44t-46 65t-17 79v328h42v-328q0 -33 13.5 -62.5t36.5 -51t54.5 -34t66.5 -12.5q34 0 64.5 12.5t53.5 34t36 51t13 62.5v328h44v-328q0 -42 -17 -79t-45.5 -65t-67 -44t-81.5 -16zM148 610l108 83h36l108 -81l18 -65l-144 104l-148 -111z
" />
    <glyph glyph-name="udieresis" unicode="&#xfc;" horiz-adv-x="559" 
d="M273 -6q-44 0 -82.5 16t-67.5 44t-46 65t-17 79v328h42v-328q0 -33 13.5 -62.5t36.5 -51t54.5 -34t66.5 -12.5q34 0 64.5 12.5t53.5 34t36 51t13 62.5v328h44v-328q0 -42 -17 -79t-45.5 -65t-67 -44t-81.5 -16zM219 683q14 0 21.5 -8.5t7.5 -19.5q0 -13 -7.5 -21
t-21.5 -8q-12 0 -19.5 8t-7.5 21q0 11 7.5 19.5t19.5 8.5zM325 683q13 0 20.5 -8.5t7.5 -19.5q0 -13 -7.5 -21t-20.5 -8t-20.5 8t-7.5 21q0 11 7.5 19.5t20.5 8.5z" />
    <glyph glyph-name="yacute" unicode="&#xfd;" horiz-adv-x="573" 
d="M266 213l-173 304l38 18l157 -276l157 276l39 -18l-175 -304v-213h-44zM221 611l108 81l74 2l-204 -152z" />
    <glyph glyph-name="thorn" unicode="&#xfe;" horiz-adv-x="523" 
d="M460 247q0 -48 -14.5 -94t-41 -81t-63.5 -56.5t-82 -21.5q-51 0 -94 29t-71 73v-295h-44v852h44v-255q28 46 70 75t95 29q45 0 82 -21.5t63.5 -57t41 -81.5t14.5 -95zM419 247q0 39 -11.5 77t-32.5 68t-50.5 49t-65.5 19q-33 0 -61 -17.5t-49.5 -45t-35.5 -62.5t-19 -69
v-38q5 -34 19 -68t35.5 -61.5t49.5 -44.5t61 -17q36 0 65.5 18.5t50.5 48.5t32.5 67.5t11.5 75.5z" />
    <glyph glyph-name="ydieresis" unicode="&#xff;" horiz-adv-x="446" 
d="M195 213l-173 304l38 18l157 -276l157 276l39 -18l-175 -304v-213h-44zM164 683q14 0 21.5 -8.5t7.5 -19.5q0 -13 -7.5 -21t-21.5 -8q-12 0 -19.5 8t-7.5 21q0 11 7.5 19.5t19.5 8.5zM270 683q13 0 20.5 -8.5t7.5 -19.5q0 -13 -7.5 -21t-20.5 -8t-20.5 8t-7.5 21
q0 11 7.5 19.5t20.5 8.5z" />
    <glyph glyph-name="dotlessi" unicode="&#x131;" horiz-adv-x="213" 
d="M107 527v-527h-44v527h44z" />
    <glyph glyph-name="Lslash" unicode="&#x141;" horiz-adv-x="586" 
d="M351 449l-156 -145v-259h382v-44h-426v264q-23 -23 -48.5 -46.5t-48.5 -43.5l-44 20l141 128v336h44v-297q27 26 56.5 53.5t55.5 51.5z" />
    <glyph glyph-name="lslash" unicode="&#x142;" horiz-adv-x="477" 
d="M292 357l-124 -117v-196h300v-43h-344v200q-19 -18 -36 -33t-34 -32l-41 21l111 102v267h44v-227q20 20 41.5 39.5t41.5 38.5z" />
    <glyph glyph-name="OE" unicode="&#x152;" horiz-adv-x="951" 
d="M920 44v-44h-536q-69 0 -129 26t-104.5 70.5t-70 104.5t-25.5 129q0 68 26 128t70.5 104.5t104.5 70.5t129 26h513v-43h-331v-209h222v-43h-222v-320h353zM522 44v572h-137q-59 0 -111 -22.5t-91 -61.5t-61.5 -91t-22.5 -111t22.5 -111t61 -91t90.5 -61.5t111 -22.5h138z
" />
    <glyph glyph-name="oe" unicode="&#x153;" horiz-adv-x="780" 
d="M746 43v-43h-427q-55 0 -103 20.5t-84 56.5t-56.5 84t-20.5 103t20.5 103t56.5 83.5t84 56t104 20.5h409v-42h-262v-156h175v-41h-175v-245h279zM424 43v442h-104q-46 0 -86.5 -17.5t-71 -47.5t-48 -70.5t-17.5 -85.5q0 -46 17.5 -86t47.5 -70t70.5 -47.5t86.5 -17.5h105
z" />
    <glyph glyph-name="Scaron" unicode="&#x160;" horiz-adv-x="658" 
d="M546 180q0 -45 -19.5 -80t-52.5 -59t-77.5 -36t-94.5 -12q-21 0 -46.5 3t-52 8t-53 12.5t-50.5 15.5l18 37l27 -6q12 -3 29 -7t36 -8t37.5 -6.5t33.5 -2.5h42q35 0 67 10t56.5 28.5t39 46t14.5 63.5q0 16 -7.5 34.5t-16.5 30.5q-15 20 -33.5 32t-38.5 18.5t-41 9t-43 4.5
q-35 2 -69.5 6.5t-67.5 24.5h1q-35 20 -58 57t-23 83q0 65 48 111.5t129 62.5q11 2 34 4t54 2q16 0 36.5 -3t42 -8t42 -11t37.5 -13l-17 -41q-24 9 -45 14.5t-40.5 9.5t-38.5 5.5t-41 1.5q-33 0 -67.5 -8t-63 -24.5t-47 -42t-18.5 -61.5q0 -24 15.5 -53t38.5 -44
q29 -18 58.5 -22.5t60.5 -6.5q35 -2 73.5 -9.5t72.5 -29.5q36 -23 57.5 -62t21.5 -79zM183 853l145 -108l143 104l-18 -65l-108 -81h-36l-107 82z" />
    <glyph glyph-name="scaron" unicode="&#x161;" horiz-adv-x="419" 
d="M393 145q0 -36 -15.5 -64.5t-42 -47.5t-62 -29t-75.5 -10q-16 0 -36.5 2.5t-42 7t-43 10.5t-40.5 12l12 38q35 -9 71.5 -16.5t62.5 -7.5h32q27 0 51.5 7t43 21t29.5 34.5t11 47.5q0 13 -5.5 27t-11.5 23q-10 13 -24.5 22t-31 14.5t-33.5 8t-32 3.5q-28 1 -55 6t-53 19
q-29 17 -48 47t-19 67q0 54 38.5 91.5t105.5 49.5q9 2 27.5 4t41.5 2q12 0 29 -2.5t34.5 -7t34.5 -10t30 -10.5l-11 -39q-39 13 -69 18.5t-67 5.5q-25 0 -51.5 -6t-48.5 -18.5t-36 -32t-14 -46.5q0 -17 12 -39t29 -34q19 -12 38 -15t38 -5q4 0 8.5 -0.5t7.5 -0.5
q27 -2 57.5 -8.5t60.5 -24.5q27 -19 44.5 -50.5t17.5 -63.5zM77 737l145 -108l143 104l-18 -65l-108 -81h-36l-107 82z" />
    <glyph glyph-name="Ydieresis" unicode="&#x178;" horiz-adv-x="613" 
d="M388 265l-241 387l40 19l224 -358l224 358l39 -19l-240 -387q0 -63 -0.5 -132.5t-0.5 -132.5h-44zM361 758q14 0 21.5 -8.5t7.5 -19.5q0 -13 -7.5 -21t-21.5 -8q-12 0 -19.5 8t-7.5 21q0 11 7.5 19.5t19.5 8.5zM467 758q13 0 20.5 -8.5t7.5 -19.5q0 -13 -7.5 -21
t-20.5 -8t-20.5 8t-7.5 21q0 11 7.5 19.5t20.5 8.5z" />
    <glyph glyph-name="Zcaron" unicode="&#x17d;" horiz-adv-x="741" 
d="M533 44v-44h-541l437 615h-413v44h499l-438 -615h456zM115 853l145 -108l143 104l-18 -65l-108 -81h-36l-107 82z" />
    <glyph glyph-name="zcaron" unicode="&#x17e;" horiz-adv-x="443" 
d="M429 44v-44h-436l342 483h-321v43h405l-342 -482h352zM77 740l145 -108l143 104l-18 -65l-108 -81h-36l-107 82z" />
    <glyph glyph-name="circumflex" unicode="&#x2c6;" horiz-adv-x="333" 
d="M38 723l108 83h36l108 -81l18 -65l-144 104l-148 -111z" />
    <glyph glyph-name="caron" unicode="&#x2c7;" horiz-adv-x="326" 
d="M15 828l145 -108l143 104l-18 -65l-108 -81h-36l-107 82z" />
    <glyph glyph-name="breve" unicode="&#x2d8;" horiz-adv-x="348" 
d="M83 670q6 -37 29.5 -60.5t55.5 -23.5q35 0 60 21t30 63h47q-10 -58 -47.5 -93.5t-89.5 -35.5q-26 0 -47.5 9.5t-39 27t-29 41t-16.5 51.5h47z" />
    <glyph glyph-name="dotaccent" unicode="&#x2d9;" horiz-adv-x="208" 
d="M111 670v-106h-48v106h48z" />
    <glyph glyph-name="ring" unicode="&#x2da;" horiz-adv-x="170" 
d="M46 678q0 16 10.5 26.5t26.5 10.5t26.5 -10.5t10.5 -26.5t-10.5 -26.5t-26.5 -10.5t-26.5 10.5t-10.5 26.5zM70 678q0 -13 13 -13t13 13t-13 13t-13 -13z" />
    <glyph glyph-name="ogonek" unicode="&#x2db;" horiz-adv-x="233" 
d="M194 29q-35 -28 -57.5 -48.5t-35.5 -36t-17.5 -27.5t-4.5 -22q0 -6 2 -14.5t7 -17t12 -14t18 -5.5q26 0 42.5 9t27.5 22l39 -21q-28 -32 -56.5 -43t-52.5 -11q-21 0 -37 10t-26.5 24.5t-15.5 31t-5 28.5q0 19 8 37.5t20.5 35.5t29 32.5t33.5 29.5h69z" />
    <glyph glyph-name="tilde" unicode="&#x2dc;" horiz-adv-x="244" 
d="M250 765q-17 -38 -34.5 -52.5t-36.5 -14.5q-16 0 -33.5 8.5t-33.5 16.5q-12 7 -26 13t-24 6q-8 0 -15.5 -8.5t-17.5 -32.5l-41 19q17 38 35 52.5t37 14.5q16 0 33.5 -8t33.5 -17q12 -6 25.5 -12.5t24.5 -6.5q8 0 16 9.5t18 32.5z" />
    <glyph glyph-name="hungarumlaut" unicode="&#x2dd;" horiz-adv-x="310" 
d="M37 725l108 81l75 2l-205 -152zM140 725l108 81l74 2l-204 -152z" />
    <glyph glyph-name="endash" unicode="&#x2013;" horiz-adv-x="650" 
d="M567 277h-499v44h499v-44z" />
    <glyph glyph-name="emdash" unicode="&#x2014;" horiz-adv-x="724" 
d="M638 277h-569v44h569v-44z" />
    <glyph glyph-name="quoteleft" unicode="&#x2018;" horiz-adv-x="169" 
d="M63 611v121h46v-79z" />
    <glyph glyph-name="quoteright" unicode="&#x2019;" horiz-adv-x="182" 
d="M154 670l-73 -160l-45 21l55 117z" />
    <glyph glyph-name="quotedblleft" unicode="&#x201c;" horiz-adv-x="224" 
d="M64 611v121h46v-79zM142 611v121h46v-79z" />
    <glyph glyph-name="quotedblright" unicode="&#x201d;" horiz-adv-x="226" 
d="M144 651v81h46v-123zM56 651v81h46v-123z" />
    <glyph glyph-name="dagger" unicode="&#x2020;" horiz-adv-x="429" 
d="M423 450h-192v-580h-44v580h-190v44h190v237h44v-237h192v-44z" />
    <glyph glyph-name="daggerdbl" unicode="&#x2021;" horiz-adv-x="429" 
d="M231 254h192v-44h-192v-340h-44v340h-190v44h190v196h-190v44h190v237h44v-237h192v-44h-192v-196z" />
    <glyph glyph-name="bullet" unicode="&#x2022;" horiz-adv-x="186" 
d="M90 348q22 0 35.5 -14.5t13.5 -34.5q0 -22 -13.5 -35t-35.5 -13q-20 0 -33.5 13t-13.5 35q0 20 13.5 34.5t33.5 14.5z" />
    <glyph glyph-name="ellipsis" unicode="&#x2026;" horiz-adv-x="941" 
d="M98 57q14 0 21.5 -8.5t7.5 -19.5q0 -29 -29 -29q-12 0 -19.5 7.5t-7.5 21.5q0 11 7.5 19.5t19.5 8.5zM465 57q13 0 20.5 -8.5t7.5 -19.5q0 -29 -28 -29t-28 29q0 11 7.5 19.5t20.5 8.5zM821 57q14 0 21.5 -8.5t7.5 -19.5q0 -29 -29 -29q-12 0 -19.5 7.5t-7.5 21.5
q0 11 7.5 19.5t19.5 8.5z" />
    <glyph glyph-name="perthousand" unicode="&#x2030;" horiz-adv-x="1178" 
d="M680 731l-498 -731h-48l497 731h49zM381 516q0 -41 -11.5 -79.5t-32.5 -68t-50.5 -47.5t-65.5 -18t-65.5 18t-51.5 47.5t-34 68t-12 79.5t12 80t34 69t51.5 48.5t65.5 18.5t65.5 -18.5t50.5 -48.5t32.5 -69t11.5 -80zM337 516q0 32 -8 63t-23 55t-36.5 39t-48.5 15
q-26 0 -48 -15t-38 -39t-25 -55t-9 -63q0 -31 9 -61t25 -54t38 -39t48 -15q27 0 48.5 15t36.5 39t23 54t8 61zM763 205q0 -41 -11.5 -79.5t-33 -68.5t-51 -48t-65.5 -18q-35 0 -65 18t-51.5 48t-33.5 68.5t-12 79.5t12 80t33.5 69t51.5 48t65 18q36 0 65.5 -18t51 -48
t33 -69t11.5 -80zM719 205q0 31 -8.5 62t-23.5 55t-36.5 39t-48.5 15q-26 0 -48 -15t-37.5 -39t-24.5 -55t-9 -62t9 -61.5t24.5 -54.5t37.5 -39t48 -15q27 0 48.5 15t36.5 39t23.5 54.5t8.5 61.5zM1117 205q0 -41 -11.5 -79.5t-33 -68.5t-51 -48t-65.5 -18q-35 0 -65 18
t-51.5 48t-33.5 68.5t-12 79.5t12 80t33.5 69t51.5 48t65 18q36 0 65.5 -18t51 -48t33 -69t11.5 -80zM1073 205q0 31 -8.5 62t-23.5 55t-36.5 39t-48.5 15q-26 0 -48 -15t-38 -39t-24.5 -55t-8.5 -62t8.5 -61.5t24.5 -54.5t38 -39t48 -15q27 0 48.5 15t36.5 39t23.5 54.5
t8.5 61.5z" />
    <glyph glyph-name="guilsinglleft" unicode="&#x2039;" horiz-adv-x="264" 
d="M208 613v-9t0.5 -17t0.5 -17.5v-9.5v-14l-166 -210l49 -61l117 -147q0 -3 -0.5 -8t-0.5 -7v-50q-11 13 -26.5 32.5t-32 39.5t-32.5 40l-28 35q-23 29 -50.5 63.5t-48.5 62.5z" />
    <glyph glyph-name="guilsinglright" unicode="&#x203a;" horiz-adv-x="264" 
d="M269 336l-218 -274v8.5t-0.5 16.5t-0.5 16.5v9.5v15l116 147l49 61l-165 210v14v9t0.5 17t0.5 17v9z" />
    <glyph glyph-name="fraction" unicode="&#x2044;" horiz-adv-x="529" 
d="M535 731l-498 -731h-51l497 731h52z" />
    <glyph glyph-name="Euro" unicode="&#x20ac;" horiz-adv-x="643" 
d="M624 52q-45 -29 -96 -43.5t-94 -14.5q-55 0 -106 17t-94 48.5t-74.5 76.5t-47.5 101h-92v44h83q-2 12 -2.5 25.5t-0.5 25.5v20.5t2 19.5h-82v45h92q14 59 46 105t76 78t96 49t106 17q67 0 153 -37q-10 -15 -13.5 -23.5t-6.5 -16.5q-75 32 -134 32q-41 0 -80.5 -11.5
t-74.5 -33.5t-63 -53.5t-47 -71.5v1q-2 -7 -3.5 -10.5l-3 -7l-3 -7t-3.5 -10.5h316v-45h-326q-3 -21 -3 -42q0 -12 1 -24.5t3 -24.5h325v-44h-314q15 -47 42 -84t63.5 -62.5t80.5 -39t91 -13.5q39 0 81.5 12.5t81.5 38.5z" />
    <glyph glyph-name="trademark" unicode="&#x2122;" horiz-adv-x="465" 
d="M203 698v-26h-68v-158h-27v158h-67v26h162zM380 702v-188h-27v112q-13 -14 -27.5 -31.5t-24.5 -30.5l-56 67v-117h-27v191l83 -97z" />
    <glyph glyph-name="minus" unicode="&#x2212;" horiz-adv-x="574" 
d="M493 277h-425v44h425v-44z" />
    <glyph glyph-name="approxequal" unicode="&#x2248;" horiz-adv-x="404" 
d="M356 402q-19 -36 -40 -50.5t-43 -14.5t-41.5 7t-39.5 17q-18 8 -36 15t-29 7q-12 0 -23.5 -10t-22.5 -33l-42 17q20 38 41.5 53t42.5 15q20 0 39.5 -7.5t39.5 -15.5h-2q1 -1 3 -1q19 -9 36 -15.5t31 -6.5q13 0 25 9t24 33zM356 257q-19 -36 -40 -50.5t-43 -14.5
t-41.5 7.5t-39.5 16.5q-18 8 -36 15t-29 7q-12 0 -23.5 -9.5t-22.5 -33.5l-42 17q20 38 41.5 53t42.5 15q20 0 39.5 -7t39.5 -16h-2q1 -1 3 -1q19 -8 36 -15t31 -7q13 0 25 9.5t24 32.5z" />
    <glyph glyph-name="notequal" unicode="&#x2260;" horiz-adv-x="408" 
d="M332 374v-44h-105l-37 -97h142v-44h-159l-36 -94l-40 16l29 78h-90v44h107l37 97h-144v44h159l36 87l40 -16l-28 -71h89z" />
    <glyph glyph-name="lessequal" unicode="&#x2264;" horiz-adv-x="514" 
d="M483 668l18 -39l-420 -195q104 -48 210.5 -98t209.5 -97l-18 -39l-505 234zM498 105h-502v44h502v-44z" />
    <glyph glyph-name="greaterequal" unicode="&#x2265;" horiz-adv-x="514" 
d="M525 434l-505 -234l-18 39l420 195q-104 48 -210.5 98t-209.5 97l18 39zM5 149h502v-44h-502v44z" />
    <glyph glyph-name="apple" unicode="&#xf8ff;" horiz-adv-x="0" 
 />
    </font>
</defs>
</svg>
